<?xml version="1.0" encoding="utf-8"?>
<svg version="1.1" id="deichwave-logo" xmlns="http://www.w3.org/2000/svg" xmlns:xlink="http://www.w3.org/1999/xlink"
    x="0px" y="0px" viewBox="0 0 100 100" style="enable-background:new 0 0 100 100;" xml:space="preserve">
    <style type="text/css">
        .st0 {
            fill: #45206A;
        }

        .st1 {
            fill: #D81962;
        }

        .st2 {
            fill: #9B1954;
        }

        .st3 {
            fill: #70244E;
        }

        .st4 {
            fill: #F476AF;
        }

        .st5 {
            fill: #FFFFFF;
        }

        .st6 {
            fill: #B5B5B5;
        }

        .st7 {
            fill: #737373;
        }

        .st8 {
            fill: #E2C9DC;
        }

        .st9 {
            fill: none;
            stroke: #421731;
            stroke-width: 1.7797;
            stroke-linecap: round;
            stroke-miterlimit: 10;
        }

        .st10 {
            fill: none;
            stroke: #421731;
            stroke-width: 1.7797;
            stroke-miterlimit: 10;
        }

        .st11 {
            fill: #383D3C;
        }

        .st12 {
            fill: none;
            stroke: #7E8483;
            stroke-width: 1.7797;
            stroke-linecap: round;
            stroke-miterlimit: 10;
        }

        .st13 {
            fill: #7E8483;
        }

        .st14 {
            fill: #1F2624;
        }

        .st15 {
            fill: none;
            stroke: #FFFFFF;
            stroke-width: 1.1865;
            stroke-miterlimit: 10;
        }
    </style>
    <g id="car">
        <path class="st0"
            d="M79.7,84.2c-7.4,0-13.8-5-15.6-12.2h-8.9c-1.7,1-3.7,1.4-5.7,1.3c-2.5,0-4.3-0.3-5.7-1.3H33.2
		c-0.8,3.3-2.7,6.3-5.3,8.5c-6.8,5.7-17,4.7-22.6-2.2C2.8,75.4,1.5,71.8,1.5,68v-1.1l-0.9-0.2v-8L2,58.4l2.2-0.4l0.3-2.7
		c-1.5-0.1-2.1-0.8-2.4-1.4c-0.4-0.9-0.3-2,0.3-3c0.6-1.1,1.8-2.2,3.4-3c1.6-0.9,3.8-1.6,6.2-2c0.1-2.3,0.5-4.8,0.5-5l0.2-1.5l1.6,0
		c0.1,0,2.4,0.1,5.5,1.2c1-0.3,3.3-1.2,6.8-2.1l1.4-3.8l0.8,0l0.7-3.8C29,30,28.4,29,27.9,28l-1.3-2.6c-0.6-0.2-2.1-0.8-3.6-1.6
		c-1.1-0.6-2.1-1.3-2.7-1.9c-0.9-0.9-1.3-1.9-1.2-2.8c0.1-0.7,0.4-1.8,1.6-2.6c1-0.6,2.4-0.9,4.4-0.9c2.9,0,7.1,0.6,13.1,1.9
		c5.7,1.2,9.8,2.8,12.3,4.5c1.4,1,2.4,2.2,2.7,3.3c0.2,0.9,0.1,1.9-0.3,2.6c-0.5,0.8-1.5,1.4-3.3,1.8c-0.7,0.1-1.3,0.2-2,0.2
		c-0.6,0.2-2.4,1.1-4.4,1.7L40,32.4l-0.5,3.5l0.8,0.1c2.9-0.3,5.8-0.5,8.8-0.4l0.9,0l0.5,0.8c0,0,1.3,1.9,3.3,3.8
		c1.8,1.6,4.6,3.6,7.8,3.6h0.1c2.6,0,4.9-1.1,7.1-3.3c1-1,1.8-2.1,2.5-3.3l0.6-1.2l1.3,0.3c3.5,0.7,6.9,1.6,10.3,2.5
		c2,0.6,2.8,1.1,3.2,1.8c0.4,0.8,0.5,1.9,0.6,2.8c3.7,1.3,6.7,3.1,8.8,5.1c2,1.9,3.2,4,3.3,5.9c0.1,1.8-0.7,3.3-2.2,4.1
		c-0.9,0.4-1.7,0.6-2.4,0.6c-0.6,0-1.3-0.2-1.8-0.5l-0.1,0.2C98,66,96.3,76.1,89,81.2C86.3,83.1,83,84.2,79.7,84.2L79.7,84.2z" />
        <path class="st0" d="M25.1,16.4c2.7,0,6.7,0.5,12.9,1.9c6.3,1.4,9.9,2.9,12,4.4c2.9,2.1,2.7,3.9,2.2,4.7c-0.8,1.4-4.7,1.6-4.8,1.6
		c0,0-2,1-4.4,1.7l-3.8,1l-0.7,4.9l1.8,0.2v0c3.1-0.3,5.5-0.4,7-0.4l1.8,0l0.4,0l0.2,0.3c0,0,1.3,2,3.5,4c1.9,1.7,4.9,3.8,8.4,3.8
		h0.1c2.8,0,5.4-1.2,7.7-3.5c1.8-1.8,2.7-3.6,2.7-3.6l0.3-0.6L73,37c3.4,0.7,6.8,1.6,10.2,2.5c1.9,0.6,2.4,0.9,2.7,1.4
		c0.5,0.9,0.5,2.2,0.4,3.1l0.6,0.2c3.5,1.2,6.5,2.9,8.6,4.9c1.8,1.7,2.9,3.6,3,5.3c0.1,1.5-0.5,2.6-1.7,3.2c-0.8,0.4-1.4,0.6-2,0.6
		c-0.8,0-1.5-0.4-2.1-0.9l-0.8,1.6c2,2.6,3.1,5.8,3.1,9.1c0,8.4-6.7,15.2-15.1,15.3c-7.3,0-13.5-5.1-15-12.2H55
		c-1.7,1-3.6,1.4-5.5,1.3c-2.5,0-4.1-0.4-5.5-1.3H32.5c-1.6,8.2-9.6,13.5-17.9,11.9C7.5,81.6,2.4,75.3,2.4,68c0-0.6,0-1.2,0.1-1.8
		l-0.3-0.1L1.5,66v-6.5l0.7-0.1L5,58.8l0.5-4.4c0,0-0.1,0-0.1,0c-0.2,0-0.5,0-0.7,0c-0.6,0-1.5-0.1-1.8-0.9
		c-0.3-0.7-0.2-1.5,0.2-2.2c0.5-1,1.6-1.9,3-2.7c1.7-0.9,3.9-1.6,6.4-2l0.3,0c0-2.4,0.5-5.4,0.5-5.6l0.1-0.8l0.8,0
		c0.1,0,2.4,0.1,5.5,1.2c0.7-0.3,3.3-1.2,7.5-2.3l1.3-3.5h0.7l0.2,0l0.9-4.9c0,0-1-1.3-1.9-3.2l-1.5-3c0,0-7.7-2.7-7.3-5.4
		C20.2,17.6,21.2,16.4,25.1,16.4 M25.1,14.6c-2.2,0-3.8,0.3-4.9,1.1c-1.1,0.7-1.8,1.9-2,3.2c-0.1,0.7,0,1.4,0.3,2.1
		c0.3,0.5,0.6,1,1.1,1.5c0.7,0.6,1.7,1.3,2.9,2c1.1,0.6,2.2,1.1,3.4,1.5l1.1,2.3c0.5,1,1,1.9,1.6,2.8l-0.5,2.7l-0.6,0L27.1,35
		l-1,2.7c-3,0.8-5,1.5-6.1,1.9c-3-1-5.2-1.1-5.4-1.1h-0.8l-1.6-0.1L11.9,40l-0.1,0.8c0,0.1-0.4,2.2-0.5,4.4c-2.3,0.5-4.3,1.1-5.8,2
		c-1.8,0.9-3.1,2.1-3.8,3.4C1,51.6,0.9,53,1.4,54.2c0.3,0.8,0.9,1.3,1.7,1.7C3.2,56,3.4,56,3.5,56.1l-0.1,1.2l-1.5,0.2l-0.7,0.1
		L-0.3,58v9.5l0.9,0.2V68c0,9.4,7.6,17,16.9,17c3.9,0,7.7-1.4,10.8-3.9c1.5-1.2,2.8-2.7,3.8-4.3c0.7-1.2,1.3-2.6,1.7-4h9.6
		c0.7,0.4,1.5,0.7,2.4,0.9c1,0.2,2.2,0.3,3.6,0.3l2,0c0.3,0,1.9-0.1,4-1.2h8c0.4,1.4,1,2.8,1.7,4c4.7,8.1,15,10.9,23.2,6.3
		c8.1-4.7,10.9-15,6.3-23.2h0.2c0.9,0,1.8-0.2,2.8-0.7c1.8-0.9,2.9-2.8,2.7-4.9c0-1.1-0.4-2.3-1.1-3.4c-0.6-1.1-1.4-2.1-2.5-3.1
		c-2.2-2-5.1-3.8-8.7-5.1c-0.1-1-0.3-1.9-0.7-2.6c-0.6-1.1-1.7-1.6-3.7-2.3c-3.4-0.9-6.9-1.8-10.4-2.5l-0.7-0.1l-1.3-0.3l-0.6,1.2
		l-0.3,0.6c0,0-0.8,1.6-2.4,3.1c-1.9,1.9-4.1,3-6.4,3h-0.1c-2.9,0-5.5-1.8-7.1-3.3c-1.2-1.1-2.3-2.3-3.2-3.6L51,35.5l-0.4-0.7
		l-0.9,0l-0.4,0l-1.9,0c-1.4,0-3.8,0.1-6.8,0.4l0.3-1.9l2.7-0.7c1.9-0.5,3.6-1.3,4.3-1.6c0.7-0.1,1.4-0.2,2-0.3
		c2-0.4,3.2-1.1,3.9-2.2c0.5-0.9,0.7-2.1,0.3-3.3c-0.4-1.3-1.4-2.6-3-3.8c-1.2-0.9-2.9-1.7-4.8-2.5c-2.1-0.8-4.8-1.6-7.8-2.2
		C32.3,15.2,28,14.6,25.1,14.6z" />
        <path class="st1" d="M93,56.5c0,0-7.2,13.5-7.3,13.5l-14.5,0.4l-16.7,0.1l-4.8,0.9l-5.9-1.1L6.2,70.2l-1.7-4.3l-2.2-0.8L2.1,60
		l3.8-0.6l0.5-5.9l-2.3,0l-0.5-1.5L7,49.2l7.1-2.1l0.5-6.1l5.7,1.7l8.2-2.7l1-3.1l7.1,0.6l12.3-0.5c0,0,4,8.4,12.3,8.2
		c8.4-0.2,11.5-7.6,11.5-7.6l12.2,3.3l0.9,4.1c0,0,4.7,0.9,7.9,3.9s3.9,6.2,3.9,6.2l-2.5,2.4L93,56.5z" />
        <path class="st2" d="M2.6,62.6h3.8l-0.1,3.2l-4-0.5L2.6,62.6z" />
        <path class="st2" d="M48.7,37.4c0,0-0.7,0.8,0.2,5.8s3.3,7.8,2.8,9c-0.4,1.2-1.4,4-5.4,3.5s-9.4-2-9.4-2s5.8,7.2,12.1,6.5
		c6.3-0.7,9.2-4.3,13.4-8.2s7.8-6.7,10.6-7.3c2.8-0.6,4.6-0.8,4.6-0.8l-4.3-1.1c-1.4-0.3-3.9-0.7-3.9-0.7s-3.3,4.2-8.3,3.9
		C56.2,45.5,48.7,37.4,48.7,37.4z" />
        <path class="st2" d="M75.1,50.3c0,0-6.3-1.9-10.7,3.5s-7.5,13.3-13.5,13.6c-6,0.3-10.1-3.9-12.7-6.4c-2.6-2.5-6.6-5.2-8.6-5.2
		c-2,0,5.6,4.8,7.5,6.8c1.9,2,5.6,9,13.1,8.6c7.4-0.4,10.2-5.7,12-9.4c1.8-3.7,4.2-6.8,5.5-7.9C69.1,52.8,75.1,50.3,75.1,50.3z
		 M89.7,46.5c0,0,3.6,2.5,2.3,3.8c-1.6,1.5-8.5-0.1-8.5-0.1s5.6,1.9,7.1,3.9c1.5,1.9,3.9,3.9,5.6,2.8c1.8-1.1,2.1-3.4,0.2-5.6
		C94.6,49,89.7,46.5,89.7,46.5z M14.3,47.2l0-1.8c0,0,1.1-0.4,3.7-0.5c2.6-0.1,5.5,0.1,5.5,0.1l1,1.6L14.3,47.2z M9,49
		c0,0-1.2,1.1-1,1.7s3,0.7,4.9,0.5s4.6,0.3,4.6,0.3l-13.4,2c0,0-1.1-1.7,1.2-3.2C7.7,48.9,9,49,9,49z" />
        <path class="st2" d="M58.1,57.2c0,0,0.9,2.2-3.5,4.4S44.4,61.3,42,58.9c-2.4-2.4,4.3,1.2,4.3,1.2s4.4,0.7,7.1-0.5
		S58.1,57.2,58.1,57.2z" />
        <path class="st3" d="M6.2,59.6l0.6-6.2c0,0,7-2.3,12.7-1.2s9.6,3.1,13.8,6.9s9.8,10.8,9.8,10.8L6.5,70L6.2,59.6z M56.1,70
		c0,0,4.2-4.4,6-8c1.9-3.6,6.1-10.9,14.7-11.6C85.4,49.7,89,52,90,53.3s3.1,3.1,3.1,3.1l-7.4,13.9L56.1,70z M49.3,39
		c0,0-0.2,2.6,1.1,6.1s3.9,6.5,3.7,8c-0.1,1.5-0.7,3.5-4.1,4.2s-8.2,0.2-8.2,0.2s3.7,3.8,8.7,2.7c5-1.1,7.2-3.3,10.9-7
		c3.8-3.8,6.8-6.2,6.8-6.2s-3.2,1.7-6.6,0.9c-3.5-0.8-5-3.3-5-3.3L49.3,39z" />
        <path class="st4" d="M47.7,39.7c0,0,0,1.6,0.3,3c0.2,1.4,0.9,4.3,0.9,4.3s-6.8,0.1-10.9,0.7L29.7,49l-4.2-1.7l-1.8-2.7
		c0,0,5.1-1.9,11.8-3.3C42,40,47.7,39.7,47.7,39.7z M14.9,41.6l-0.4,2.8c0,0,1.1-0.1,2.9-0.2s4.9,0,4.9,0S20,43,18.7,42.6
		C17.4,42.2,14.9,41.6,14.9,41.6z M13.5,47.6c0,0-1.8,0.6-1.6,1.7c0.1,1.1,1.9,2.2,4.8,2.2s6,1.3,7.5,1.4c1.4,0,3.9,0,4.4-1.1
		c0.5-1.1,0.1-2.4-0.9-2.9s-3-1.5-6.2-1.6S13.5,47.6,13.5,47.6z M84.7,44.6c0,0,2.4,0.6,2.1,1.7c-0.3,1.1-1.9,1.5-4,1.5
		c-2,0-3.6-0.1-5.6,0.1c-2,0.2-4.6,0.7-5.6,0.6c-0.9-0.1-3.2-0.5-2-2c1.1-1.5,4.2-2.7,7.4-2.8S84.7,44.6,84.7,44.6z M73.1,38.4
		l9.4,2.2c0,0,0,0.6-0.6,0.9c-0.6,0.3-4.3-0.1-6.9-0.5l-3.5-0.6" />
        <path class="st5" d="M45.7,41.1c-0.6,0.8-1.2,1.5-1.8,2.3c-0.1,0.2-0.2,0.4-0.4,0.5c0.1,0,0,0,0,0c0.2-0.1,0.4,0,0.5,0.1v0
		c0,0,0-0.1,0-0.1c-0.1-0.4,0-0.7,0.1-1.1c0.2-0.5-0.2-0.9-0.7-0.9c-0.9-0.1-1.8,0.4-2.5,0.9l-0.9,0.7l0,0l-0.1,0.1l-0.2,0.1
		c-0.1,0.1-0.2,0.1-0.2,0.1h0c0.1,0,0.2,0,0.2,0l0.2,0.2v0v-0.1l0-0.2l-0.1-0.4c-0.1-0.3-0.1-0.7-0.3-1c-0.5-0.7-1.3-0.2-1.9,0.1
		L36,43.4c-0.3,0.2-0.7,0.5-1,0.7c-0.1,0.1-0.2,0.1-0.3,0.1l0.8,0.3c-0.4-1-1.6-1.2-2.6-1.1c-1,0.1-2,0.4-3,0.7
		c-0.4,0.1-0.6,0.5-0.5,0.9c0.1,0.4,0.5,0.6,0.9,0.5c0.8-0.3,1.6-0.5,2.4-0.6c0.3-0.1,0.7-0.1,1,0h0.1c0.1,0,0.1,0.1,0.2,0.1
		c-0.1,0,0,0,0,0.1h0c0,0,0,0.1,0,0.1c0.1,0.2,0.5,0.4,0.8,0.3c0.7-0.3,1.3-0.7,1.9-1.1l0.8-0.6c0.1-0.1,0.3-0.2,0.4-0.3l0.2-0.1
		c0.1,0,0.1,0,0.1,0c0,0-0.6-0.3-0.6-0.3l0,0.2l0,0.3l0.1,0.6c0,0.2,0.1,0.4,0.2,0.6c0.2,0.2,0.5,0.4,0.8,0.3c0.8,0,1.5-0.7,2.1-1.2
		l0.9-0.6c0.2-0.1,0.2-0.1,0.4-0.2l0.1,0h0.1c0.1,0,0.2,0,0.3,0l-0.7-0.9c-0.2,0.7-0.2,1.4,0,2c0.1,0.4,0.3,0.8,0.7,0.9
		c0.4,0.1,0.8,0,1.1-0.2l0.6-0.7l0.6-0.8l1.3-1.7c0.2-0.3,0-0.8-0.2-1C46.3,40.7,45.9,40.8,45.7,41.1z M25,48.5l-1.3,0.3L23,49
		l-0.3,0l-0.2,0c-0.1,0-0.1,0,0.1,0l0.3,0.2l0,0l0.2,0.3v0.1l0-0.1l0-0.2l0.1-0.6c0.1-0.3-0.1-0.8-0.5-0.9c-0.8-0.2-1.6-0.4-2.4-0.2
		l-1.1,0.2c-0.2,0-0.4,0.1-0.6,0.1c-0.2,0-0.1,0,0,0l0.2,0.3l0,0l0.1,0.4l0-0.2c0-0.1,0-0.2,0-0.3c-0.1-0.2-0.2-0.4-0.4-0.5
		c-0.3-0.2-0.8-0.1-1.1-0.1c-0.8,0-1.6,0.1-2.4,0.3c-0.4,0-0.6,0.5-0.5,0.9c0.1,0.4,0.5,0.6,0.9,0.5c0.7-0.1,1.3-0.2,2-0.2l0.5,0h0
		c0.1,0,0.1,0-0.1-0.3c-0.1-0.3-0.1-0.4-0.2-0.2v0.2c0,0.5,0.4,0.8,0.9,0.9c0.7,0,1.3-0.2,2-0.3c0.6-0.1,1.3,0,1.9,0.2l-0.5-0.9
		l-0.3,1.3c0,0.3,0.2,0.6,0.4,0.8c0.2,0.1,0.5,0.1,0.8,0.1l2.4-0.7c0.4-0.1,0.6-0.5,0.6-0.9c0,0,0,0,0-0.1
		C25.7,48.6,25.3,48.4,25,48.5z M81.7,44.2c-1,0.3-2,0.7-3,1.1l1.1,0.6l0-0.8c0-0.4-0.2-0.8-0.6-0.9c-0.5-0.2-1.2-0.1-1.7,0
		c-1,0.3-1.9,0.9-2.8,1.2l0.7,1.2c0.4-0.4,0.4-1.1,0-1.5c-0.1-0.1-0.1-0.1-0.2-0.2c-0.5-0.3-1.1-0.2-1.7,0c-1,0.2-1.9,0.7-2.7,1.2
		c-0.3,0.2-0.5,0.7-0.3,1c0.2,0.4,0.7,0.5,1,0.3c0,0,0,0,0,0c0.5-0.3,1.1-0.6,1.6-0.8c0.3-0.1,0.6-0.2,0.9-0.2c0.1,0,0.2,0,0.3,0h0
		l0,0c-0.2-0.2-0.5-0.3-0.1-0.7c-0.5,0.5,0,1.4,0.7,1.2c0.7-0.1,1.4-0.5,2.1-0.9c0.3-0.1,0.6-0.2,0.9-0.3c0.1,0,0.3-0.1,0.4,0
		c0.1,0,0.2,0,0.3,0h0l-0.3-0.2c0-0.1,0-0.3,0-0.1l0,0.2V46c0,0.6,0.6,0.9,1.1,0.6c0.9-0.4,1.7-0.7,2.6-1c0.4-0.1,0.6-0.5,0.5-0.9
		C82.4,44.3,82.1,44.1,81.7,44.2z" />
        <path class="st6" d="M49.9,22.7c-2.1-1.5-5.7-3-12-4.4C22.8,15,20.4,16.4,20,19.2c-0.4,2.8,7.3,5.4,7.3,5.4l1.5,3
		c0.9,1.9,1.9,3.2,1.9,3.2l-1,5.6l8.8,1l0.8-5.7l3.8-1c2.3-0.6,4.4-1.7,4.4-1.7c-0.9-0.5-1.7-1.2-2.3-1.6c-0.4-0.2-1.4-0.6-2.5-0.9
		c-0.5,0.3-1.7,0.8-2.9,0.6c-1.2-0.2-2.5-1.9-3-2.7c-3.5-1.1-9.4-2.8-9.4-2.8l6.3,0.5c3.7,0.3,4.3,1,9.1,2.9s7.4,1.8,8.2,0.3
		C51.3,24.5,50.6,23.4,49.9,22.7z" />
        <path class="st7" d="M52.1,27.4c0.5-0.8,0.7-2.7-2.2-4.7c0.6,0.8,1.3,1.9,0.9,2.7c-0.7,1.5-3.3,1.6-8.1-0.3s-5.5-2.6-9.1-2.9
		l-6.4-0.5c0,0,9.5,2.7,11.6,3.6s5.3,1.7,6.2,2.2c0.5,0.3,1.3,1.1,2.3,1.6C47.3,29,51.3,28.8,52.1,27.4z M34.9,37.5l1.1-6.7
		c0,0,1,0,1.8,0.2c0.5,0.1,0.9,0.3,1.3,0.6l-0.8,5.7L34.9,37.5z" />
        <path class="st7"
            d="M46.9,28.6c0,0-1.5,0.9-3.6,1.4l-4.1,1c0,0-0.4-0.4-1.3-0.6l-1.4-0.2c0,0,0.1-0.5-0.2-1.1s-1.5-1.3-2.5-2.6
		c-1-1.3-2-3.7-2-3.7l2.4,0.6c0.3,0.8,0.8,1.6,1.4,2.2c1,1,1.7,1.8,3.3,2c1.6,0.2,3.2-0.3,3.6-0.5s1-0.7,1-0.7l2.9,1.2L46.9,28.6z" />
        <path class="st8" d="M34.1,36.7l1-6c0,0-0.3-0.2-1.8-0.1C31.8,30.7,31,31,31,31l-0.9,5.6L34.1,36.7z M28,24.6l3,5.5
		c0,0,0.5-0.2,1.7-0.4c0.8-0.1,1.5-0.1,2.3,0c0,0-2.1-1.6-3.1-3.2l-1.8-2.9c-0.1-0.2-0.7-0.9-1.4-0.5C27.9,23.5,27.8,24.2,28,24.6z
		 M21,19.1c0-1.1,2.6-2.1,8.2-1.5s9.2,1.9,12.2,3.1c3,1.1,5.7,2.8,5.2,3.6c-0.4,0.8-4.5-1-7.4-1.7c-2.9-0.6-8.8-1.4-10.7-1.3
		c-1.9,0-3.9,0.3-5.5-0.2C21.5,20.5,21.1,20.2,21,19.1z" />
        <path class="st5" d="M32.4,31.5c-0.5,0.9-0.9,1.9-1.1,3c-0.1,0.4,0.1,0.8,0.5,0.9c0.1,0,0.1,0,0.2,0c0.3,0,0.7-0.1,0.9-0.2l-1-1
		c-0.2,0.4-0.4,0.9-0.5,1.3c0,0.4,0.1,0.8,0.5,0.9c0.4,0,0.8-0.1,0.9-0.5c0.1-0.3,0.2-0.7,0.3-1c0.1-0.3,0.1-0.6-0.1-0.9
		c-0.2-0.3-0.6-0.3-0.9-0.1H32l0.7,0.9c0.2-0.9,0.6-1.8,1-2.6c0.2-0.3,0.1-0.8-0.2-1C33.1,31.1,32.6,31.2,32.4,31.5z M30.7,17.9
		c-0.8,0-1.5,0.3-2.2,0.7L28,18.9L27.6,19l-0.1,0c0.4,0.4,0.6,0.5,0.5,0.2c0-0.1,0-0.1,0-0.2c-0.1-0.2-0.2-0.4-0.4-0.6
		c-0.6-0.5-1.6-0.6-2.4-0.6c-0.9,0.1-1.7,0.4-2.5,0.8c-0.3,0.1-0.4,0.7-0.3,1c0.2,0.4,0.7,0.4,1,0.3c0.3-0.2,0.7-0.3,1-0.4
		c0.3-0.1,0.7-0.1,1-0.1c0.4,0,0.8,0,1.1,0.1h0c0,0,0.1,0,0.1,0h0c0,0,0-0.1,0,0c0,0.1,0,0.1,0,0.2c0.1,0.6,0.8,0.8,1.3,0.6l1-0.4
		l0.9-0.5l0.1,0c0.1,0,0.2,0,0.2,0c0,0,0.2,0,0.1,0c0.1,0,0.2,0,0.3,0c0.4,0,0.8-0.3,0.7-0.7C31.4,18.2,31.1,17.9,30.7,17.9
		L30.7,17.9z" />
        <path class="st9" d="M92.6,56.7L90.7,60" />
        <path class="st10" d="M51.2,71.5c-7,0.4-7.5-1.4-12.2-6.7S26.4,52.7,19.8,51.9C13.1,51,4.4,54.6,3.8,53.2s1.5-4.4,9-5.7
		s12.7-1.5,20.2,3.6s8.8,9.4,16.6,9.2c7.8-0.2,11.6-8,15.3-11c3.7-3,11.3-8,21.7-4.3c10.4,3.7,12.9,10.2,9.7,11.8
		c-3.1,1.6-3.3-1.2-7.2-3.7c-3.9-2.5-9.3-4.3-16.6-1.4s-9.1,7.3-12,12.7C56.1,71.3,51.2,71.5,51.2,71.5z" />
        <path class="st9" d="M20.1,42.4c0,0,5.1-2.1,14.1-3.8S49,37.3,49,37.3s5.3,8.3,12.7,8.2s11.1-7.6,11.1-7.6s11.7,2.4,12.3,3.5
		c0.6,1.1,0.3,3.3,0.3,3.3 M13.9,47.4c-0.1-2.4,0.5-6.2,0.5-6.2s2.5,0.1,5.7,1.4s5.5,4.7,5.5,4.7 M7,59.6c-2.3,0.1-4.6,0.6-4.6,0.6
		v5.1c0,0,2.8,0.6,4.3,0.7" />
        <path class="st9" d="M6.6,53.7l-0.7,5.8 M55,70.3h15.8 M29.7,70.3h14.2" />
        <path class="st10" d="M28.1,40.1l1.3-3.5c0,0,2.1,0.1,4.3,0.4l6.5,0.7" />
        <circle class="st11" cx="79.7" cy="68.1" r="15.2" />
        <circle class="st11" cx="17.6" cy="68.1" r="15.2" />
        <path class="st12"
            d="M79.7,77.1c5,0,9-4,9-9c0,0,0,0,0,0 M84.3,79.4c3-1.2,5.4-3.6,6.6-6.6 M77.2,56.1c-4.7,0.9-8.5,4.6-9.5,9.4" />
        <path class="st13" d="M80.9,69c-1.7,1.7-2.1,4.3-0.8,6.1c0.3,0,0.7-0.1,1-0.1c-1.3-1.5-1.2-3.9,0.4-5.4c1.6-1.5,3.9-1.7,5.4-0.4
		c0.1-0.3,0.1-0.7,0.1-1C85.2,67,82.6,67.3,80.9,69z" />
        <path class="st14"
            d="M86.8,69.2c-1.5-1.3-3.9-1.1-5.4,0.4c-1.5,1.5-1.7,4-0.4,5.4C84,74.4,86.3,72.1,86.8,69.2z" />
        <path class="st13" d="M80.2,66.6c2.4,0.6,4.8-0.5,5.8-2.5c-0.2-0.4-0.5-0.8-0.7-1.1c-0.5,2-2.7,3.1-4.8,2.6
		c-2.2-0.5-3.6-2.6-3.1-4.6l0.1-0.2c-0.4,0.1-0.9,0.3-1.3,0.5C75.9,63.6,77.6,66,80.2,66.6z" />
        <path class="st14"
            d="M77.4,60.8L77.3,61c-0.5,2,0.9,4.1,3.1,4.6c2.1,0.5,4.3-0.6,4.8-2.6l-0.4-0.4C82.9,60.6,80,59.9,77.4,60.8z" />
        <path class="st13" d="M77,68.5c0.6,2-0.4,4.2-2.2,4.8c0.3,0.2,0.6,0.5,0.9,0.6c1.9-1,2.8-3.4,2.2-5.7c-0.7-2.3-2.7-3.9-4.8-3.8
		c-0.2,0.3-0.3,0.6-0.4,1C74.5,65.2,76.4,66.5,77,68.5z" />
        <path class="st14"
            d="M77,68.5c-0.6-2.1-2.5-3.4-4.4-3c-0.9,2.6-0.2,5.5,1.8,7.5l0.4,0.4C76.6,72.7,77.6,70.6,77,68.5z" />
        <circle class="st15" cx="79.7" cy="68.1" r="9.9" />
        <circle class="st11" cx="17.3" cy="68.1" r="14" />
        <path class="st12"
            d="M17.4,77.1c5,0,9-4,9-9c0,0,0,0,0,0 M22,79.4c3-1.2,5.4-3.6,6.6-6.6 M14.9,56.1c-4.7,0.9-8.5,4.6-9.5,9.4" />
        <path class="st13" d="M17.4,66.3c2.5,0,4.5-1.6,4.9-3.8c-0.3-0.2-0.5-0.4-0.8-0.6c-0.1,2-1.9,3.6-4.1,3.6s-4-1.6-4.1-3.6
		c-0.3,0.2-0.6,0.4-0.8,0.6C12.9,64.7,14.9,66.3,17.4,66.3z" />
        <path class="st14" d="M13.3,61.9c0.1,2,1.9,3.6,4.1,3.6s4-1.6,4.1-3.6C19,60.2,15.8,60.2,13.3,61.9z" />
        <path class="st13" d="M16.2,68.5c-1.3-2.2-3.8-3.1-5.9-2.4c-0.1,0.4-0.2,0.9-0.2,1.3c1.8-1,4.1-0.3,5.2,1.6c1.2,1.9,0.7,4.4-1,5.4
		L14,74.6c0.4,0.2,0.8,0.4,1.3,0.5C17.1,73.6,17.5,70.8,16.2,68.5z" />
        <path class="st14"
            d="M14,74.6l0.2-0.1c1.7-1,2.2-3.5,1-5.4c-1.1-1.9-3.5-2.6-5.2-1.6V68C10,70.8,11.5,73.3,14,74.6z" />
        <path class="st13" d="M19.8,69.4c1-1.9,3.2-2.7,5-1.9c0-0.3-0.1-0.7-0.1-1c-2.1-0.6-4.4,0.4-5.6,2.5c-1.1,2.1-0.8,4.6,0.8,6.1
		c0.3-0.1,0.7-0.3,1-0.4C19.2,73.5,18.7,71.3,19.8,69.4z" />
        <path class="st14" d="M19.8,69.4c-1,1.8-0.6,4.1,1,5.2c2.5-1.3,4-3.8,4-6.6v-0.5C23,66.7,20.8,67.5,19.8,69.4z" />
        <circle class="st15" cx="17.4" cy="68.1" r="9.9" />
    </g>
</svg>