<svg id="deichwave-logo" xmlns="http://www.w3.org/2000/svg" viewBox="0 0 132.24 132.8">
    <defs>
        <style>
            .cls-1 {
                fill: #45206a;
            }

            .cls-2 {
                fill: #2a0f46;
            }

            .cls-24,
            .cls-25,
            .cls-27,
            .cls-28,
            .cls-3 {
                isolation: isolate;
            }

            .cls-3 {
                opacity: 0.4;
            }

            .cls-4 {
                fill: #78e3f4;
            }

            .cls-5 {
                fill: #420329;
            }

            .cls-6 {
                fill: #600540;
            }

            .cls-7 {
                fill: #28add1;
            }

            .cls-8 {
                fill: #4ec8e5;
            }

            .cls-9 {
                fill: #d81962;
            }

            .cls-10 {
                fill: #9b1954;
            }

            .cls-11 {
                fill: #70244e;
            }

            .cls-12 {
                fill: #f476af;
            }

            .cls-13 {
                fill: #fff;
            }

            .cls-14 {
                fill: #b5b5b5;
            }

            .cls-15 {
                fill: #737373;
            }

            .cls-16 {
                fill: #e2c9dc;
            }

            .cls-17,
            .cls-18,
            .cls-20,
            .cls-23 {
                fill: none;
                stroke-miterlimit: 10;
            }

            .cls-17,
            .cls-18 {
                stroke: #421731;
            }

            .cls-17,
            .cls-20 {
                stroke-linecap: round;
            }

            .cls-17,
            .cls-18,
            .cls-20 {
                stroke-width: 1.78px;
            }

            .cls-19 {
                fill: #383d3c;
            }

            .cls-20 {
                stroke: #7e8483;
            }

            .cls-21 {
                fill: #7e8483;
            }

            .cls-22 {
                fill: #1f2624;
            }

            .cls-23 {
                stroke: #fff;
                stroke-width: 1.19px;
            }

            .cls-24,
            .cls-25,
            .cls-26 {
                font-size: 15px;
            }

            .cls-24,
            .cls-27 {
                fill: #9c41a2;
            }

            .cls-24,
            .cls-25,
            .cls-26,
            .cls-27,
            .cls-28 {
                font-family: CenturyGothic-Bold, Century Gothic;
                font-weight: 700;
            }

            .cls-25,
            .cls-26,
            .cls-28 {
                fill: #f8e969;
            }

            .cls-27 {
                font-size: 37.53px;
            }

            .cls-28 {
                font-size: 38px;
            }
        </style>
    </defs>
    <g id="bg_outline" data-name="bg outline">
        <path class="cls-1"
            d="M65.8,121.9a60.49,60.49,0,0,1-23.5-4.7,59.56,59.56,0,0,1-19.2-12.9,61.5,61.5,0,0,1-13-19.2,59.93,59.93,0,0,1,0-47,58.28,58.28,0,0,1,13-19.2,61.5,61.5,0,0,1,19.2-13A59.42,59.42,0,0,1,65.8,1.2,58.47,58.47,0,0,1,79.6,2.8a64.42,64.42,0,0,1,8.8,2.8.66.66,0,0,1-.2-.7V4.6a1.25,1.25,0,0,1-.7-1.7.9.9,0,0,1,.6-.6h0a3.29,3.29,0,0,1,1.7-.4c.1-.1.1-.3.2-.4a1.28,1.28,0,0,1,1-.4h0c1,0,1.8.9,2.4,1.5v.1a6.15,6.15,0,0,1,1.6,2,20.29,20.29,0,0,1,1.1,2.6,2.57,2.57,0,0,1,.5,1.2v.4l.1.6h0l1.1.7.5-.8.2-.3a32.64,32.64,0,0,1,2.9-3.6,13.12,13.12,0,0,1,2.8-2.4c.2-.1.5-.2.7-.3s.2-.1.3-.1a.9.9,0,0,1,.5-.1,1.17,1.17,0,0,1,1.1.8c0,.1.1.2,0,.3l.1.1a1.08,1.08,0,0,1,.2,1.4,3.45,3.45,0,0,1-1.2.9v.3a.87.87,0,0,1-.6.9.37.37,0,0,1-.3.1c0,.1.1.3,0,.4h0c2.3-1.3,5.3-2.7,8.4-2.7a9.74,9.74,0,0,1,3.4.6,1.06,1.06,0,0,1,.9,1,1.3,1.3,0,0,1-.8,1.2l.1.1h0a1.32,1.32,0,0,1-1.1,2.1h-.1c-.3,0-.6-.1-.9-.1h0a1.34,1.34,0,0,1-.7.6,1.06,1.06,0,0,1,.1.8,1.17,1.17,0,0,1-1.1.9h-.6a1.2,1.2,0,0,1-1.2.9h-.1a4.31,4.31,0,0,1,1.3,1.7V15a18,18,0,0,1,.8,2.1,18.46,18.46,0,0,1,.4,2.3,2.16,2.16,0,0,1,.1,1.1v2l1.1-1,.2-.2a29,29,0,0,1,4.9-3.5l.9-.3a1.27,1.27,0,0,1,.6-.1h.5a1.06,1.06,0,0,1,1,.9c0,.1.1.3,0,.4h0a1.07,1.07,0,0,1-.1,1.4,2.7,2.7,0,0,1-1.1.5v.1a1.14,1.14,0,0,1-.7.8H121a16.74,16.74,0,0,1,4.7-.7,9.6,9.6,0,0,1,5.2,1.4,1,1,0,0,1,.6,1.1,1.08,1.08,0,0,1-.8.9,1.07,1.07,0,0,1-.1,1.1,1.23,1.23,0,0,1-1,.5h-.4c-.2-.1-.5-.2-.7-.3-.2.1-.3.2-.5.3a.9.9,0,0,1-.1.5,1.09,1.09,0,0,1-1,.7.9.9,0,0,1-.5-.1h0a.88.88,0,0,1-1,.5c-.2,0-.4-.1-.6-.1h0a1.09,1.09,0,0,1-1,.7h-.3a1.48,1.48,0,0,1-.7-.1l-.5-.1a1.1,1.1,0,0,1-1,.6h0a1.17,1.17,0,0,1-1.1.8h-1c0,.1-.1.2-.1.3a1,1,0,0,1-.5.4,11,11,0,0,1,2.4,4,11.56,11.56,0,0,1,.8,3.2A60.61,60.61,0,0,1,109,103.7a61.5,61.5,0,0,1-19.2,13A56.78,56.78,0,0,1,65.8,121.9ZM106.3,16.7l1.9,1.8a.64.64,0,0,1,0-.6c0-.1.1-.2.1-.3-.2-.1-.3-.3-.4-.4a1.16,1.16,0,0,1-.2-1v-.1a1.38,1.38,0,0,1-.3-.4.76.76,0,0,1-.4.2h-.1A2.1,2.1,0,0,1,106.3,16.7Z"
            transform="translate(0.02 0)" />
        <path class="cls-1"
            d="M91.1,1.8c.7,0,1.4.9,1.8,1.3a8.58,8.58,0,0,1,1.3,2,15.33,15.33,0,0,1,1.1,2.7,1.23,1.23,0,0,1,.4.8V9l.3.9.1.4,2.1,1.3,1-1.5a27.06,27.06,0,0,1,3-3.9A17.83,17.83,0,0,1,104.8,4l.9-.4h.1a.21.21,0,0,1,.1.4l-.6.5c.2,0,.4-.1.5,0s.5,0,.6.1.1.1,0,.2c-.2.4-.8.6-1.2.8-.2.1-.4.4-.6.6.2,0,.3.1.4.1s.1.3,0,.3a6.58,6.58,0,0,1-1.5.4l-.5.4h0a3,3,0,0,1,1,.2c.2.1.2.5,0,.5a12.23,12.23,0,0,0-1.7.3l-.3.1h.4a4.1,4.1,0,0,1,1.1.1c.2.1.1.3-.1.4a12.09,12.09,0,0,0-1.8.5,2,2,0,0,1,.8.1c.4.1.5.6.1.7l-1.6.5c-.2.1-.3.2-.4.2a2.77,2.77,0,0,1,.9-.1,1.27,1.27,0,0,1,.6.1h.1l2.4-1.8C107,7.5,110.2,6,113.3,6a8.66,8.66,0,0,1,3.2.6c.3,0,.2.4,0,.4l-2,.3a4.81,4.81,0,0,1,1.6,1.2.37.37,0,0,1-.3.6,8.51,8.51,0,0,1-2.2-.4.55.55,0,0,1,.3.5c0,.2,0,.4-.3.5h-.2a4.22,4.22,0,0,1-1.2-.3,8.33,8.33,0,0,0-1.5-.4l-1.6-.2-.2.1c.7.2,1.4.4,2,.6a22.56,22.56,0,0,1,2.2,1.1c.2.1.2.6-.1.6h-.1a15.52,15.52,0,0,1-2.1-.4,17.42,17.42,0,0,0-2.2-.5l-1-.1h.1a16.27,16.27,0,0,1,3.7,1.3c.3.2.2.6-.1.6h-.1a12.66,12.66,0,0,0-2.8-.6,2.65,2.65,0,0,1,.6.5.19.19,0,0,1,0,.3h0c.1,0,.2.1.3.1l.3.2c.2.1.2.5-.1.5s-.5.1-.8.1h-1.1l-2.3-.2h-2a21.08,21.08,0,0,1,3.5.5.32.32,0,0,1-.1.6,13.55,13.55,0,0,1-2,.2l.9.3c.4.1.2.6-.1.7a3.55,3.55,0,0,1-1,.2c1.8,1.6,3.6,3.3,5.2,5l1,.6a3.81,3.81,0,0,0-.9-1.3L109,19c-.1-.1,0-.3.1-.4h.2a2,2,0,0,1,1.1.3,8.64,8.64,0,0,0-1.4-1.3c-.2-.1,0-.4.2-.4h.9l-.2-.2a6.1,6.1,0,0,1-1.5-1.3.25.25,0,0,1,.1-.4,1.27,1.27,0,0,1,.6-.1h.3l-1.2-.7a.31.31,0,0,1,0-.6,1.09,1.09,0,0,1,.5-.1,3.19,3.19,0,0,1,1.4.3.6.6,0,0,1-.1-.4.27.27,0,0,1,.3-.3h.1c.5.1.9,1,1.2,1.5a14.58,14.58,0,0,1,.7,1.9,20,20,0,0,1,.4,2.4,1.06,1.06,0,0,1,.1.8.37.37,0,0,1-.1.3V21l-.1,3.4a33.15,33.15,0,0,1,2.7-2.6,27.85,27.85,0,0,1,3.2-2.6,12.64,12.64,0,0,1,2.6-1.3c.3-.1.6,0,.8-.1h0c.2,0,.2.3.1.4s-.4.2-.6.3h0a1.4,1.4,0,0,1,.9.3v.1h0a4.23,4.23,0,0,1-1.2.4l-.6.3c.1.1.2.1.3.2s0,.2-.1.2-.3.1-.5,0h-.8l-.5.1a3.55,3.55,0,0,1,.9.4c.1.1.1.4-.1.4h0l-1.2-.1h-.4a2.84,2.84,0,0,1,1.2.4.19.19,0,0,1-.1.3,8.6,8.6,0,0,0-1.6.1,1.85,1.85,0,0,1,.7.2c.3.1.3.6,0,.6a6.15,6.15,0,0,0-1.4.1c-.1,0-.3.1-.4.1h.1a2,2,0,0,1,1.1.2h.1a22.88,22.88,0,0,1,2.3-1,17.42,17.42,0,0,1,5.6-1.1,7.6,7.6,0,0,1,4.7,1.3c.3.1.1.4,0,.4h0l-1.6-.1a4.73,4.73,0,0,1,1.1,1.3.38.38,0,0,1-.3.5h-.1a6,6,0,0,1-1.6-.8.75.75,0,0,1,.1.5.27.27,0,0,1-.3.3,2.27,2.27,0,0,1-1.2-.6c-.4-.2-.7-.4-1.1-.6l-1.2-.4H124l1.5.9,1.5,1.4c.2.1.1.5-.1.5h-.1a11.11,11.11,0,0,1-1.6-.7,13,13,0,0,0-1.7-.8l-.8-.3.1.1a9.48,9.48,0,0,1,2.7,1.7c.2.2.1.5-.1.5h-.2a14.72,14.72,0,0,0-2.2-1,1.76,1.76,0,0,1,.4.5c0,.1,0,.2-.1.2.1.1.2.1.2.2l.2.3c.1.1.1.4-.1.4h0a2.49,2.49,0,0,1-.8-.1l-.8-.2-1.8-.6a4.71,4.71,0,0,0-1.7-.4,11.26,11.26,0,0,1,2.8,1.2c.2.1,0,.5-.2.5a9.85,9.85,0,0,1-1.7-.2,2.51,2.51,0,0,1,.7.4.33.33,0,0,1-.2.6h-.1a14.92,14.92,0,0,1-2.1-.2,1.76,1.76,0,0,1,.4.5c.1.3,0,.5-.3.5h-.3l.1.2a.34.34,0,0,1-.3.5H117a10.2,10.2,0,0,1,3,4.4,16.65,16.65,0,0,1,.8,3.2A59.46,59.46,0,1,1,11.7,84c-13-30.1.3-64,30.5-77A59.52,59.52,0,0,1,91.9,8.1a.75.75,0,0,1,.5.1,12.81,12.81,0,0,0-2-1.1c-.3-.1-.2-.5.1-.6a5,5,0,0,1,1.2-.2.37.37,0,0,0-.3-.1c-.7-.4-1.5-.6-2.2-1a.45.45,0,0,1,0-.5,1.93,1.93,0,0,1,1-.3L88.6,4c-.4-.1-.4-.5-.1-.7A1.76,1.76,0,0,1,90,2.6a2.77,2.77,0,0,1,.9.1c-.1-.2-.2-.3-.2-.5s.1-.4.4-.4M100.2,13h.2l.7-.6-1,.4H100l.2.2m14.5,12.3a5,5,0,0,1,1.2-.2h.3l.6-.4c-.3,0-.6.1-.9.1l-1.2.5M91.1,0a2.61,2.61,0,0,0-1.7.7l-.1.1a4.28,4.28,0,0,0-1.6.5,2,2,0,0,0-1.1,2.2v.2a61.39,61.39,0,1,0,35.5,33.6c-.2-1.1-.5-2.2-.8-3.3a11.91,11.91,0,0,0-1.9-3.5h.3a2.23,2.23,0,0,0,1.7-.9,2,2,0,0,0,.8-.4,2.77,2.77,0,0,0,.9.1h.4a2.14,2.14,0,0,0,1.2-.4c.1,0,.1-.1.2-.1h.3a2.45,2.45,0,0,0,1.2-.4h.3a2.05,2.05,0,0,0,1.9-1.3h0l.2.1a1.27,1.27,0,0,0,.6.1,2.23,2.23,0,0,0,1.8-1,2,2,0,0,0,.3-1.1,1.71,1.71,0,0,0,.7-1.3,1.81,1.81,0,0,0-1-1.9,9.68,9.68,0,0,0-5.6-1.6h-1.4a2,2,0,0,0-.1-1.7v-.3a2,2,0,0,0-1.9-1.6h-.6c-.3,0-.5.1-.8.1h0a21,21,0,0,0-3,1.5,22.54,22.54,0,0,0-3,2.4,3.4,3.4,0,0,0-.2-1.4,20,20,0,0,0-.4-2.4,15.55,15.55,0,0,0-.8-2.3h0v-.1c-.2-.3-.3-.6-.5-.9l.3-.3a2.39,2.39,0,0,0,1.4-.5,2.07,2.07,0,0,0,.6-1c0-.2.1-.4,0-.6h.8a2.4,2.4,0,0,0,2-1.2,2,2,0,0,0,.1-1.5,1.74,1.74,0,0,0,.5-1.5,2,2,0,0,0-1.5-1.8,11.48,11.48,0,0,0-3.7-.6A14.47,14.47,0,0,0,108,5.8a2,2,0,0,0-.4-2.3V3.4a2,2,0,0,0-2.5-1.3c-.1,0-.2.1-.4.1l-.2.1c-.3.1-.5.2-.8.3h0a14.25,14.25,0,0,0-3,2.5,34.71,34.71,0,0,0-2.9,3.8V9l-.1.1h0V8.4a4.71,4.71,0,0,0-.6-1.5c-.3-.9-.7-1.7-1.1-2.6a12.54,12.54,0,0,0-1.6-2.4h0C93.6,1.2,92.6,0,91.1,0Z"
            transform="translate(0.02 0)" />
    </g>
    <g id="bg">
        <circle class="cls-2" cx="65.82" cy="61.5" r="59.5" />
        <circle cx="65.82" cy="61.5" r="59.5" />
        <path d="M7.2,71.6Zm8.5,21.9h0m-3.4-5.8h0Z" transform="translate(0.02 0)" />
        <path class="cls-3" d="M66.5,120.7H59.7a64.22,64.22,0,0,0,12.4,0Z" transform="translate(0.02 0)" />
        <path d="M15.7,93.5Z" transform="translate(0.02 0)" />
        <path class="cls-3" d="M15.7,93.5Z" transform="translate(0.02 0)" />
        <path d="M25.7,93.5H17l-.7.9c.8,1.3,1.7,2.5,2.6,3.7h4Z" transform="translate(0.02 0)" />
        <path class="cls-3" d="M25.7,93.5H17l-.7.9c.8,1.3,1.7,2.5,2.6,3.7h4Z" transform="translate(0.02 0)" />
        <path d="M19.7,99.1l1.5,1.8,1.1-1.8Z" transform="translate(0.02 0)" />
        <path class="cls-3" d="M19.7,99.1l1.5,1.8,1.1-1.8Z" transform="translate(0.02 0)" />
        <path d="M11,84.6a12.15,12.15,0,0,0,.9,2l1.8-2Z" transform="translate(0.02 0)" />
        <path class="cls-3" d="M11,84.6a12.15,12.15,0,0,0,.9,2l1.8-2Z" transform="translate(0.02 0)" />
        <path d="M15.2,75.1H9.5L8.2,76.2l.2.7h4.9Z" transform="translate(0.02 0)" />
        <path class="cls-3" d="M15.2,75.1H9.5L8.2,76.2l.2.7h4.9Z" transform="translate(0.02 0)" />
        <path d="M12.2,77.9H8.7l.6,2.2H10Z" transform="translate(0.02 0)" />
        <path class="cls-3" d="M12.2,77.9H8.7l.6,2.2H10Z" transform="translate(0.02 0)" />
        <path d="M22.4,84.6H15.1l-2.7,3v.1H20Z" transform="translate(0.02 0)" />
        <path class="cls-3" d="M22.4,84.6H15.1l-2.7,3v.1H20Z" transform="translate(0.02 0)" />
        <path d="M19.3,88.7H13c.7,1.3,1.4,2.6,2.1,3.8h1.4Z" transform="translate(0.02 0)" />
        <path class="cls-3" d="M19.3,88.7H13c.7,1.3,1.4,2.6,2.1,3.8h1.4Z" transform="translate(0.02 0)" />
        <path d="M33.1,99.1H23.5l-1.6,2.6c1,1,1.9,2,3,3h5.7Z" transform="translate(0.02 0)" />
        <path class="cls-3" d="M33.1,99.1H23.5l-1.6,2.6c1,1,1.9,2,3,3h5.7Z" transform="translate(0.02 0)" />
        <path d="M92.7,114.6l1.9-1H92.4Z" transform="translate(0.02 0)" />
        <path class="cls-3" d="M92.7,114.6l1.9-1H92.4Z" transform="translate(0.02 0)" />
        <path d="M90,105.6l2.1,7h4.2a54.53,54.53,0,0,0,5.8-4l-1.4-3Z" transform="translate(0.02 0)" />
        <path class="cls-3" d="M90,105.6l2.1,7h4.2a54.53,54.53,0,0,0,5.8-4l-1.4-3Z" transform="translate(0.02 0)" />
        <path d="M102.9,108a20.94,20.94,0,0,0,2.8-2.4h-3.9Z" transform="translate(0.02 0)" />
        <path class="cls-3" d="M102.9,108a20.94,20.94,0,0,0,2.8-2.4h-3.9Z" transform="translate(0.02 0)" />
        <path d="M7.9,75.1Z" transform="translate(0.02 0)" />
        <path class="cls-3" d="M7.9,75.1Z" transform="translate(0.02 0)" />
        <path d="M79.4,113.6l.8,5.6A59.54,59.54,0,0,0,91.8,115l-.4-1.4Z" transform="translate(0.02 0)" />
        <path class="cls-3" d="M79.4,113.6l.8,5.6A59.54,59.54,0,0,0,91.8,115l-.4-1.4Z" transform="translate(0.02 0)" />
        <path d="M26,105.6l3,2.6,1.1-2.6Z" transform="translate(0.02 0)" />
        <path class="cls-3" d="M26,105.6l3,2.6,1.1-2.6Z" transform="translate(0.02 0)" />
        <path d="M40.6,113.6l-.5,1.5a59.54,59.54,0,0,0,11.6,4.2l.9-5.7Z" transform="translate(0.02 0)" />
        <path class="cls-3" d="M40.6,113.6l-.5,1.5a59.54,59.54,0,0,0,11.6,4.2l.9-5.7Z" transform="translate(0.02 0)" />
        <path d="M41.9,105.6H31.2l-1.4,3.2c1.8,1.4,3.7,2.6,5.6,3.8h4.4Z" transform="translate(0.02 0)" />
        <path class="cls-3" d="M41.9,105.6H31.2l-1.4,3.2c1.8,1.4,3.7,2.6,5.6,3.8h4.4Z" transform="translate(0.02 0)" />
        <path d="M37.1,113.6l2.1,1.1.3-1.1Z" transform="translate(0.02 0)" />
        <path class="cls-3" d="M37.1,113.6l2.1,1.1.3-1.1Z" transform="translate(0.02 0)" />
        <path d="M17,81.1H10.3l-.5.5.8,2.1h4.1Z" transform="translate(0.02 0)" />
        <path class="cls-3" d="M17,81.1H10.3l-.5.5.8,2.1h4.1Z" transform="translate(0.02 0)" />
        <path d="M54,69.4h5.2l.2-1.3H53.8l.5.1Z" transform="translate(0.02 0)" />
        <path class="cls-3" d="M54,69.4h5.2l.2-1.3H53.8l.5.1Z" transform="translate(0.02 0)" />
        <path d="M84.4,69.4l-.5-1.1.4-.2H78.7l.4,1.3Z" transform="translate(0.02 0)" />
        <path class="cls-3" d="M84.4,69.4l-.5-1.1.4-.2H78.7l.4,1.3Z" transform="translate(0.02 0)" />
        <path d="M90.6,69.4l-.6-1,.5-.3H84.9l.6,1.3Z" transform="translate(0.02 0)" />
        <path class="cls-3" d="M90.6,69.4l-.6-1,.5-.3H84.9l.6,1.3Z" transform="translate(0.02 0)" />
        <path d="M78.1,69.4l-.3-1.2.5-.1H72.7l.2,1.3Z" transform="translate(0.02 0)" />
        <path class="cls-3" d="M78.1,69.4l-.3-1.2.5-.1H72.7l.2,1.3Z" transform="translate(0.02 0)" />
        <path d="M60.3,69.4h5.3V68.1h1v1.3h5.3l-.2-1.2.6-.1H59.9l.5.1Z" transform="translate(0.02 0)" />
        <path class="cls-3" d="M60.3,69.4h5.3V68.1h1v1.3h5.3l-.2-1.2.6-.1H59.9l.5.1Z" transform="translate(0.02 0)" />
        <path d="M96.9,69.4l-.8-1,.4-.3H91l.8,1.3Z" transform="translate(0.02 0)" />
        <path class="cls-3" d="M96.9,69.4l-.8-1,.4-.3H91l.8,1.3Z" transform="translate(0.02 0)" />
        <path d="M121.9,69.4l-1.2-.9.3-.4h-5.3l1.6,1.3Z" transform="translate(0.02 0)" />
        <path class="cls-3" d="M121.9,69.4l-1.2-.9.3-.4h-5.3l1.6,1.3Z" transform="translate(0.02 0)" />
        <path d="M115.7,69.4l-1.1-.9.3-.4h-5.4l1.4,1.3Z" transform="translate(0.02 0)" />
        <path class="cls-3" d="M115.7,69.4l-1.1-.9.3-.4h-5.4l1.4,1.3Z" transform="translate(0.02 0)" />
        <path d="M109.4,69.4l-1-.9.3-.4h-5.4l1.2,1.3Z" transform="translate(0.02 0)" />
        <path class="cls-3" d="M109.4,69.4l-1-.9.3-.4h-5.4l1.2,1.3Z" transform="translate(0.02 0)" />
        <path d="M103.1,69.4l-.9-1,.4-.3H97.1l1,1.3Z" transform="translate(0.02 0)" />
        <path class="cls-3" d="M103.1,69.4l-.9-1,.4-.3H97.1l1,1.3Z" transform="translate(0.02 0)" />
        <path d="M22.7,69.4h4.9l1.2-1.3H23.3l.3.4Z" transform="translate(0.02 0)" />
        <path class="cls-3" d="M22.7,69.4h4.9l1.2-1.3H23.3l.3.4Z" transform="translate(0.02 0)" />
        <path d="M10.3,69.4h4.6l1.6-1.3H11.2l.3.4Z" transform="translate(0.02 0)" />
        <path class="cls-3" d="M10.3,69.4h4.6l1.6-1.3H11.2l.3.4Z" transform="translate(0.02 0)" />
        <path d="M7,70.3v.1l.2-.1Z" transform="translate(0.02 0)" />
        <path class="cls-3" d="M7,70.3v.1l.2-.1Z" transform="translate(0.02 0)" />
        <path d="M13.7,70.3H8.9L7.2,71.5h4.9Z" transform="translate(0.02 0)" />
        <path class="cls-3" d="M13.7,70.3H8.9L7.2,71.5h4.9Z" transform="translate(0.02 0)" />
        <path d="M47.7,69.4H53l.4-1.3H47.8l.5.2Z" transform="translate(0.02 0)" />
        <path class="cls-3" d="M47.7,69.4H53l.4-1.3H47.8l.5.2Z" transform="translate(0.02 0)" />
        <path d="M16.5,69.4h4.8l1.4-1.3H17.3l.3.4Z" transform="translate(0.02 0)" />
        <path class="cls-3" d="M16.5,69.4h4.8l1.4-1.3H17.3l.3.4Z" transform="translate(0.02 0)" />
        <path d="M41.4,69.4h5.2l.6-1.3H41.6l.4.3Z" transform="translate(0.02 0)" />
        <path class="cls-3" d="M41.4,69.4h5.2l.6-1.3H41.6l.4.3Z" transform="translate(0.02 0)" />
        <path d="M11,72.6H7.4l.3,1.5H9.2Z" transform="translate(0.02 0)" />
        <path class="cls-3" d="M11,72.6H7.4l.3,1.5H9.2Z" transform="translate(0.02 0)" />
        <path d="M35.2,69.4h5.1l.8-1.3H35.6l.4.3Z" transform="translate(0.02 0)" />
        <path class="cls-3" d="M35.2,69.4h5.1l.8-1.3H35.6l.4.3Z" transform="translate(0.02 0)" />
        <path d="M28.9,69.4h5l1-1.3H29.4l.3.3Z" transform="translate(0.02 0)" />
        <path class="cls-3" d="M28.9,69.4h5l1-1.3H29.4l.3.3Z" transform="translate(0.02 0)" />
        <path d="M102.5,75.1l1.4,1.8H110l-1.6-1.8Z" transform="translate(0.02 0)" />
        <path class="cls-3" d="M102.5,75.1l1.4,1.8H110l-1.6-1.8Z" transform="translate(0.02 0)" />
        <path d="M97.1,80.1l-1.3-2.2H89.4l.9,2.2Z" transform="translate(0.02 0)" />
        <path class="cls-3" d="M97.1,80.1l-1.3-2.2H89.4l.9,2.2Z" transform="translate(0.02 0)" />
        <path d="M88.9,76.9h6.3l-1.1-1.8h-6Z" transform="translate(0.02 0)" />
        <path class="cls-3" d="M88.9,76.9h6.3l-1.1-1.8h-6Z" transform="translate(0.02 0)" />
        <path d="M97.7,81.1h-7l1.2,2.6h7.3Z" transform="translate(0.02 0)" />
        <path class="cls-3" d="M97.7,81.1h-7l1.2,2.6h7.3Z" transform="translate(0.02 0)" />
        <path d="M93.8,72.6l.9,1.5h5.8l-1.1-1.5Z" transform="translate(0.02 0)" />
        <path class="cls-3" d="M93.8,72.6l.9,1.5h5.8l-1.1-1.5Z" transform="translate(0.02 0)" />
        <path d="M103.3,77.9H97l1.3,2.2H105Z" transform="translate(0.02 0)" />
        <path class="cls-3" d="M103.3,77.9H97l1.3,2.2H105Z" transform="translate(0.02 0)" />
        <path d="M83.8,84.7l.9,3.1h8l-1.4-3.1Z" transform="translate(0.02 0)" />
        <path class="cls-3" d="M83.8,84.7l.9,3.1h8l-1.4-3.1Z" transform="translate(0.02 0)" />
        <path d="M81.7,77.9l.6,2.2h6.8l-.9-2.2Z" transform="translate(0.02 0)" />
        <path class="cls-3" d="M81.7,77.9l.6,2.2h6.8l-.9-2.2Z" transform="translate(0.02 0)" />
        <path d="M90.8,83.7l-1.2-2.6h-7l.8,2.6Z" transform="translate(0.02 0)" />
        <path class="cls-3" d="M90.8,83.7l-1.2-2.6h-7l.8,2.6Z" transform="translate(0.02 0)" />
        <path d="M94.8,92.5l-1.7-3.8H85l1.1,3.8Z" transform="translate(0.02 0)" />
        <path class="cls-3" d="M94.8,92.5l-1.7-3.8H85l1.1,3.8Z" transform="translate(0.02 0)" />
        <path d="M88.7,104.7,87,99.1H77.3l.8,5.6Z" transform="translate(0.02 0)" />
        <path class="cls-3" d="M88.7,104.7,87,99.1H77.3l.8,5.6Z" transform="translate(0.02 0)" />
        <path d="M86.9,72.6l.7,1.5h5.9l-.9-1.5Z" transform="translate(0.02 0)" />
        <path class="cls-3" d="M86.9,72.6l.7,1.5h5.9l-.9-1.5Z" transform="translate(0.02 0)" />
        <path d="M95.3,93.5H86.4L87.8,98h9.5Z" transform="translate(0.02 0)" />
        <path class="cls-3" d="M95.3,93.5H86.4L87.8,98h9.5Z" transform="translate(0.02 0)" />
        <path d="M85,92.5l-1-3.7H75.8l.5,3.8H85Z" transform="translate(0.02 0)" />
        <path class="cls-3" d="M85,92.5l-1-3.7H75.8l.5,3.8H85Z" transform="translate(0.02 0)" />
        <path d="M86.7,98.1l-1.4-4.5H76.4l.7,4.5Z" transform="translate(0.02 0)" />
        <path class="cls-3" d="M86.7,98.1l-1.4-4.5H76.4l.7,4.5Z" transform="translate(0.02 0)" />
        <path d="M83.7,87.8l-.9-3.1H75.2l.5,3.1Z" transform="translate(0.02 0)" />
        <path class="cls-3" d="M83.7,87.8l-.9-3.1H75.2l.5,3.1Z" transform="translate(0.02 0)" />
        <path d="M35.7,93.5H26.9L24.1,98h9.5Z" transform="translate(0.02 0)" />
        <path class="cls-3" d="M35.7,93.5H26.9L24.1,98h9.5Z" transform="translate(0.02 0)" />
        <path d="M82.4,83.7l-.8-2.6H74.5l.4,2.6Z" transform="translate(0.02 0)" />
        <path class="cls-3" d="M82.4,83.7l-.8-2.6H74.5l.4,2.6Z" transform="translate(0.02 0)" />
        <path d="M118.4,71.6l-1.5-1.3H112l1.3,1.3Z" transform="translate(0.02 0)" />
        <path class="cls-3" d="M118.4,71.6l-1.5-1.3H112l1.3,1.3Z" transform="translate(0.02 0)" />
        <path d="M55.9,98.1h9.6V93.6H56.6Z" transform="translate(0.02 0)" />
        <path class="cls-3" d="M55.9,98.1h9.6V93.6H56.6Z" transform="translate(0.02 0)" />
        <path d="M56.7,92.5h8.8V88.7H57.3Z" transform="translate(0.02 0)" />
        <path class="cls-3" d="M56.7,92.5h8.8V88.7H57.3Z" transform="translate(0.02 0)" />
        <path d="M54.9,104.7H65.5V99.1H55.7Z" transform="translate(0.02 0)" />
        <path class="cls-3" d="M54.9,104.7H65.5V99.1H55.7Z" transform="translate(0.02 0)" />
        <path d="M58.1,83.7h7.5V81.1H58.5Z" transform="translate(0.02 0)" />
        <path class="cls-3" d="M58.1,83.7h7.5V81.1H58.5Z" transform="translate(0.02 0)" />
        <path d="M57.5,87.8h8.1V84.7H58Z" transform="translate(0.02 0)" />
        <path class="cls-3" d="M57.5,87.8h8.1V84.7H58Z" transform="translate(0.02 0)" />
        <path d="M53.7,112.6H65.5v-7H54.7Z" transform="translate(0.02 0)" />
        <path class="cls-3" d="M53.7,112.6H65.5v-7H54.7Z" transform="translate(0.02 0)" />
        <path d="M43.9,99.1H34.2l-2.6,5.6H42.2Z" transform="translate(0.02 0)" />
        <path class="cls-3" d="M43.9,99.1H34.2l-2.6,5.6H42.2Z" transform="translate(0.02 0)" />
        <path d="M43,105.6l-2.1,7H52.7l1-7Z" transform="translate(0.02 0)" />
        <path class="cls-3" d="M43,105.6l-2.1,7H52.7l1-7Z" transform="translate(0.02 0)" />
        <path d="M59.9,71.6h5.6V70.3H60Z" transform="translate(0.02 0)" />
        <path class="cls-3" d="M59.9,71.6h5.6V70.3H60Z" transform="translate(0.02 0)" />
        <path d="M102.3,88.8H94.2l1.7,3.8h8.7Z" transform="translate(0.02 0)" />
        <path class="cls-3" d="M102.3,88.8H94.2l1.7,3.8h8.7Z" transform="translate(0.02 0)" />
        <path d="M73.7,75.1l.3,1.8h6.4l-.5-1.8Z" transform="translate(0.02 0)" />
        <path class="cls-3" d="M73.7,75.1l.3,1.8h6.4l-.5-1.8Z" transform="translate(0.02 0)" />
        <path d="M81.3,80.1l-.6-2.2H74.1l.3,2.2Z" transform="translate(0.02 0)" />
        <path class="cls-3" d="M81.3,80.1l-.6-2.2H74.1l.3,2.2Z" transform="translate(0.02 0)" />
        <path d="M96.4,76.9h6.2l-1.4-1.8H95.3Z" transform="translate(0.02 0)" />
        <path class="cls-3" d="M96.4,76.9h6.2l-1.4-1.8H95.3Z" transform="translate(0.02 0)" />
        <path d="M107.4,74.2,106,72.7h-5.5l1.1,1.5Z" transform="translate(0.02 0)" />
        <path class="cls-3" d="M107.4,74.2,106,72.7h-5.5l1.1,1.5Z" transform="translate(0.02 0)" />
        <path d="M59.1,76.9h6.4V75.1H59.3Z" transform="translate(0.02 0)" />
        <path class="cls-3" d="M59.1,76.9h6.4V75.1H59.3Z" transform="translate(0.02 0)" />
        <path d="M59.5,74.2h6V72.7H59.7Z" transform="translate(0.02 0)" />
        <path class="cls-3" d="M59.5,74.2h6V72.7H59.7Z" transform="translate(0.02 0)" />
        <path d="M58.6,80.1h6.9V77.9H58.9Z" transform="translate(0.02 0)" />
        <path class="cls-3" d="M58.6,80.1h6.9V77.9H58.9Z" transform="translate(0.02 0)" />
        <path d="M81.4,76.9h6.4L87,75.1H80.9Z" transform="translate(0.02 0)" />
        <path class="cls-3" d="M81.4,76.9h6.4L87,75.1H80.9Z" transform="translate(0.02 0)" />
        <path d="M78.2,105.6l1,7H91l-2.1-7Z" transform="translate(0.02 0)" />
        <path class="cls-3" d="M78.2,105.6l1,7H91l-2.1-7Z" transform="translate(0.02 0)" />
        <path d="M96.4,93.5l2,4.5h9.5l-2.8-4.5Z" transform="translate(0.02 0)" />
        <path class="cls-3" d="M96.4,93.5l2,4.5h9.5l-2.8-4.5Z" transform="translate(0.02 0)" />
        <path d="M88.1,99.1l1.7,5.6h10.5l-2.5-5.6Z" transform="translate(0.02 0)" />
        <path class="cls-3" d="M88.1,99.1l1.7,5.6h10.5l-2.5-5.6Z" transform="translate(0.02 0)" />
        <path d="M105.7,92.5h8.6l-2.8-3.8h-8Z" transform="translate(0.02 0)" />
        <path class="cls-3" d="M105.7,92.5h8.6l-2.8-3.8h-8Z" transform="translate(0.02 0)" />
        <path d="M101,84.7l1.9,3.1h7.9l-2.4-3.1Z" transform="translate(0.02 0)" />
        <path class="cls-3" d="M101,84.7l1.9,3.1h7.9l-2.4-3.1Z" transform="translate(0.02 0)" />
        <path d="M66.5,105.6v7H78.3l-1-7Z" transform="translate(0.02 0)" />
        <path class="cls-3" d="M66.5,105.6v7H78.3l-1-7Z" transform="translate(0.02 0)" />
        <path d="M75.5,93.5H66.6V98h9.6Z" transform="translate(0.02 0)" />
        <path class="cls-3" d="M75.5,93.5H66.6V98h9.6Z" transform="translate(0.02 0)" />
        <path d="M76.3,99.1H66.6v5.6H77.2Z" transform="translate(0.02 0)" />
        <path class="cls-3" d="M76.3,99.1H66.6v5.6H77.2Z" transform="translate(0.02 0)" />
        <path d="M107,81.1l1.9,2.6h7.2l-2.3-2.6Z" transform="translate(0.02 0)" />
        <path class="cls-3" d="M107,81.1l1.9,2.6h7.2l-2.3-2.6Z" transform="translate(0.02 0)" />
        <path d="M78.4,113.6h-12v7.1H72c2.4-.3,4.9-.7,7.3-1.2Z" transform="translate(0.02 0)" />
        <path class="cls-3" d="M78.4,113.6h-12v7.1H72c2.4-.3,4.9-.7,7.3-1.2Z" transform="translate(0.02 0)" />
        <path d="M8.6,69.4l1.8-1.3H6.7l.2,1.3Z" transform="translate(0.02 0)" />
        <path class="cls-3" d="M8.6,69.4l1.8-1.3H6.7l.2,1.3Z" transform="translate(0.02 0)" />
        <path d="M123.6,69.4h1.2l.1-1.3h-3.2Z" transform="translate(0.02 0)" />
        <path class="cls-3" d="M123.6,69.4h1.2l.1-1.3h-3.2Z" transform="translate(0.02 0)" />
        <path d="M74.7,88.8H66.5v3.8h8.8Z" transform="translate(0.02 0)" />
        <path class="cls-3" d="M74.7,88.8H66.5v3.8h8.8Z" transform="translate(0.02 0)" />
        <path d="M65.5,113.6h-12l-.9,5.9c2.3.5,4.7.9,7,1.2h5.8v-7.1Z" transform="translate(0.02 0)" />
        <path class="cls-3" d="M65.5,113.6h-12l-.9,5.9c2.3.5,4.7.9,7,1.2h5.8v-7.1Z" transform="translate(0.02 0)" />
        <path d="M115.8,74.2h5.5l-1.8-1.5h-5.3Z" transform="translate(0.02 0)" />
        <path class="cls-3" d="M115.8,74.2h5.5l-1.8-1.5h-5.3Z" transform="translate(0.02 0)" />
        <path d="M98.8,99.1l2.5,5.6h5.4c1.1-1,2.2-2.1,3.2-3.2l-1.4-2.4Z" transform="translate(0.02 0)" />
        <path class="cls-3" d="M98.8,99.1l2.5,5.6h5.4c1.1-1,2.2-2.1,3.2-3.2l-1.4-2.4Z" transform="translate(0.02 0)" />
        <path d="M109.7,75.1l1.6,1.8h6.1l-1.9-1.8Z" transform="translate(0.02 0)" />
        <path class="cls-3" d="M109.7,75.1l1.6,1.8h6.1l-1.9-1.8Z" transform="translate(0.02 0)" />
        <path d="M78.8,71.6l-.4-1.3H73l.2,1.3Z" transform="translate(0.02 0)" />
        <path class="cls-3" d="M78.8,71.6l-.4-1.3H73l.2,1.3Z" transform="translate(0.02 0)" />
        <path d="M98.6,71.6l-.9-1.3H92.5l.7,1.3Z" transform="translate(0.02 0)" />
        <path class="cls-3" d="M98.6,71.6l-.9-1.3H92.5l.7,1.3Z" transform="translate(0.02 0)" />
        <path d="M105.2,71.6l-1.1-1.3H99l.9,1.3Z" transform="translate(0.02 0)" />
        <path class="cls-3" d="M105.2,71.6l-1.1-1.3H99l.9,1.3Z" transform="translate(0.02 0)" />
        <path d="M92,71.6l-.8-1.3H85.9l.5,1.3Z" transform="translate(0.02 0)" />
        <path class="cls-3" d="M92,71.6l-.8-1.3H85.9l.5,1.3Z" transform="translate(0.02 0)" />
        <path d="M80.6,74.2h5.9l-.7-1.5H80.1Z" transform="translate(0.02 0)" />
        <path class="cls-3" d="M80.6,74.2h5.9l-.7-1.5H80.1Z" transform="translate(0.02 0)" />
        <path d="M111.8,71.6l-1.3-1.3h-5.1l1.1,1.3Z" transform="translate(0.02 0)" />
        <path class="cls-3" d="M111.8,71.6l-1.3-1.3h-5.1l1.1,1.3Z" transform="translate(0.02 0)" />
        <path d="M105.7,81.1H98.8l1.6,2.6h7.2Z" transform="translate(0.02 0)" />
        <path class="cls-3" d="M105.7,81.1H98.8l1.6,2.6h7.2Z" transform="translate(0.02 0)" />
        <path d="M110.9,77.9h-6.3l1.6,2.2h6.6Z" transform="translate(0.02 0)" />
        <path class="cls-3" d="M110.9,77.9h-6.3l1.6,2.2h6.6Z" transform="translate(0.02 0)" />
        <path d="M112.8,72.6h-5.4l1.4,1.5h5.6Z" transform="translate(0.02 0)" />
        <path class="cls-3" d="M112.8,72.6h-5.4l1.4,1.5h5.6Z" transform="translate(0.02 0)" />
        <path d="M72,70.3H66.6v1.3h5.6Z" transform="translate(0.02 0)" />
        <path class="cls-3" d="M72,70.3H66.6v1.3h5.6Z" transform="translate(0.02 0)" />
        <path d="M72.3,72.6H66.5v1.5h6Z" transform="translate(0.02 0)" />
        <path class="cls-3" d="M72.3,72.6H66.5v1.5h6Z" transform="translate(0.02 0)" />
        <path d="M85.4,71.6l-.5-1.3H79.5l.4,1.3Z" transform="translate(0.02 0)" />
        <path class="cls-3" d="M85.4,71.6l-.5-1.3H79.5l.4,1.3Z" transform="translate(0.02 0)" />
        <path d="M73.1,77.9H66.5v2.2h6.9Z" transform="translate(0.02 0)" />
        <path class="cls-3" d="M73.1,77.9H66.5v2.2h6.9Z" transform="translate(0.02 0)" />
        <path d="M73.6,81.1H66.5v2.6H74Z" transform="translate(0.02 0)" />
        <path class="cls-3" d="M73.6,81.1H66.5v2.6H74Z" transform="translate(0.02 0)" />
        <path d="M72.7,75.1H66.6v1.8H73Z" transform="translate(0.02 0)" />
        <path class="cls-3" d="M72.7,75.1H66.6v1.8H73Z" transform="translate(0.02 0)" />
        <path d="M73.6,74.2h6l-.4-1.5H73.4Z" transform="translate(0.02 0)" />
        <path class="cls-3" d="M73.6,74.2h6l-.4-1.5H73.4Z" transform="translate(0.02 0)" />
        <path d="M74.1,84.7H66.5v3.1h8.1Z" transform="translate(0.02 0)" />
        <path class="cls-3" d="M74.1,84.7H66.5v3.1h8.1Z" transform="translate(0.02 0)" />
        <path d="M92.4,84.7l1.4,3.1h8l-1.9-3.1Z" transform="translate(0.02 0)" />
        <path class="cls-3" d="M92.4,84.7l1.4,3.1h8l-1.9-3.1Z" transform="translate(0.02 0)" />
        <path d="M114.2,80.1h6.5l-2.3-2.2h-6.2Z" transform="translate(0.02 0)" />
        <path class="cls-3" d="M114.2,80.1h6.5l-2.3-2.2h-6.2Z" transform="translate(0.02 0)" />
        <path d="M31.6,74.2h5.8l.9-1.5H32.7Z" transform="translate(0.02 0)" />
        <path class="cls-3" d="M31.6,74.2h5.8l.9-1.5H32.7Z" transform="translate(0.02 0)" />
        <path d="M29.5,76.9h6.2l1.1-1.8H30.9Z" transform="translate(0.02 0)" />
        <path class="cls-3" d="M29.5,76.9h6.2l1.1-1.8H30.9Z" transform="translate(0.02 0)" />
        <path d="M24.6,74.2h5.7l1.1-1.5H26Z" transform="translate(0.02 0)" />
        <path class="cls-3" d="M24.6,74.2h5.7l1.1-1.5H26Z" transform="translate(0.02 0)" />
        <path d="M36.9,76.9h6.3l.8-1.8H38Z" transform="translate(0.02 0)" />
        <path class="cls-3" d="M36.9,76.9h6.3l.8-1.8H38Z" transform="translate(0.02 0)" />
        <path d="M49.4,81.1h-7l-1.2,2.6h7.4Z" transform="translate(0.02 0)" />
        <path class="cls-3" d="M49.4,81.1h-7l-1.2,2.6h7.4Z" transform="translate(0.02 0)" />
        <path d="M38.6,74.2h5.9l.7-1.5H39.5Z" transform="translate(0.02 0)" />
        <path class="cls-3" d="M38.6,74.2h5.9l.7-1.5H39.5Z" transform="translate(0.02 0)" />
        <path d="M17.7,74.2h5.6l1.4-1.5H19.3Z" transform="translate(0.02 0)" />
        <path class="cls-3" d="M17.7,74.2h5.6l1.4-1.5H19.3Z" transform="translate(0.02 0)" />
        <path d="M51.2,75.1H45.1l-.8,1.8h6.4Z" transform="translate(0.02 0)" />
        <path class="cls-3" d="M51.2,75.1H45.1l-.8,1.8h6.4Z" transform="translate(0.02 0)" />
        <path d="M50.3,77.9H43.8l-1,2.2h6.9Z" transform="translate(0.02 0)" />
        <path class="cls-3" d="M50.3,77.9H43.8l-1,2.2h6.9Z" transform="translate(0.02 0)" />
        <path d="M53.9,104.7l.9-5.6H45l-1.7,5.6Z" transform="translate(0.02 0)" />
        <path class="cls-3" d="M53.9,104.7l.9-5.6H45l-1.7,5.6Z" transform="translate(0.02 0)" />
        <path d="M28.2,76.9l1.4-1.8H23.7l-1.6,1.8Z" transform="translate(0.02 0)" />
        <path class="cls-3" d="M28.2,76.9l1.4-1.8H23.7l-1.6,1.8Z" transform="translate(0.02 0)" />
        <path d="M27.5,92.5h8.7l1.7-3.8H29.8Z" transform="translate(0.02 0)" />
        <path class="cls-3" d="M27.5,92.5h8.7l1.7-3.8H29.8Z" transform="translate(0.02 0)" />
        <path d="M55.6,93.5H46.7L45.3,98h9.6Z" transform="translate(0.02 0)" />
        <path class="cls-3" d="M55.6,93.5H46.7L45.3,98h9.6Z" transform="translate(0.02 0)" />
        <path d="M44.2,98.1l1.4-4.5H36.8l-2.1,4.5Z" transform="translate(0.02 0)" />
        <path class="cls-3" d="M44.2,98.1l1.4-4.5H36.8l-2.1,4.5Z" transform="translate(0.02 0)" />
        <path d="M19.3,80.1h6.6l1.6-2.2H21.2Z" transform="translate(0.02 0)" />
        <path class="cls-3" d="M19.3,80.1h6.6l1.6-2.2H21.2Z" transform="translate(0.02 0)" />
        <path d="M31.7,83.7l1.5-2.6H26.4l-2,2.6Z" transform="translate(0.02 0)" />
        <path class="cls-3" d="M31.7,83.7l1.5-2.6H26.4l-2,2.6Z" transform="translate(0.02 0)" />
        <path d="M38.3,87.8l1.4-3.1H32.2l-1.9,3.1Z" transform="translate(0.02 0)" />
        <path class="cls-3" d="M38.3,87.8l1.4-3.1H32.2l-1.9,3.1Z" transform="translate(0.02 0)" />
        <path d="M59.1,70.3H53.7l-.3,1.3H59Z" transform="translate(0.02 0)" />
        <path class="cls-3" d="M59.1,70.3H53.7l-.3,1.3H59Z" transform="translate(0.02 0)" />
        <path d="M119.9,86.4l.8-1.8h-2.4Z" transform="translate(0.02 0)" />
        <path class="cls-3" d="M119.9,86.4l.8-1.8h-2.4Z" transform="translate(0.02 0)" />
        <path d="M115.1,81.1l2.3,2.6h3.7l.9-2.4-.2-.2Z" transform="translate(0.02 0)" />
        <path class="cls-3" d="M115.1,81.1l2.3,2.6h3.7l.9-2.4-.2-.2Z" transform="translate(0.02 0)" />
        <path d="M122.1,80.1h.2l.6-2.2h-3.2Z" transform="translate(0.02 0)" />
        <path class="cls-3" d="M122.1,80.1h.2l.6-2.2h-3.2Z" transform="translate(0.02 0)" />
        <path d="M109.6,84.6l2.4,3.1h7.2l.2-.4-2.5-2.7Z" transform="translate(0.02 0)" />
        <path class="cls-3" d="M109.6,84.6l2.4,3.1h7.2l.2-.4-2.5-2.7Z" transform="translate(0.02 0)" />
        <path d="M110.6,100.7l1.3-1.6h-2.3Z" transform="translate(0.02 0)" />
        <path class="cls-3" d="M110.6,100.7l1.3-1.6h-2.3Z" transform="translate(0.02 0)" />
        <path d="M115.6,92.5h1a28.17,28.17,0,0,0,2.1-3.8h-6Z" transform="translate(0.02 0)" />
        <path class="cls-3" d="M115.6,92.5h1a28.17,28.17,0,0,0,2.1-3.8h-6Z" transform="translate(0.02 0)" />
        <path d="M116.9,75.1l1.9,1.8h4.5l.2-1-1-.8Z" transform="translate(0.02 0)" />
        <path class="cls-3" d="M116.9,75.1l1.9,1.8h4.5l.2-1-1-.8Z" transform="translate(0.02 0)" />
        <path d="M106.3,93.5l2.8,4.6h3.7c1-1.3,1.9-2.6,2.8-3.9l-.5-.7Z" transform="translate(0.02 0)" />
        <path class="cls-3" d="M106.3,93.5l2.8,4.6h3.7c1-1.3,1.9-2.6,2.8-3.9l-.5-.7Z" transform="translate(0.02 0)" />
        <path d="M122.9,74.1h1l.3-1.5H121Z" transform="translate(0.02 0)" />
        <path class="cls-3" d="M122.9,74.1h1l.3-1.5H121Z" transform="translate(0.02 0)" />
        <path d="M48.3,84.7H40.7l-1.4,3.1h8Z" transform="translate(0.02 0)" />
        <path class="cls-3" d="M48.3,84.7H40.7l-1.4,3.1h8Z" transform="translate(0.02 0)" />
        <path d="M40.1,83.7l1.2-2.6H34.4l-1.6,2.6Z" transform="translate(0.02 0)" />
        <path class="cls-3" d="M40.1,83.7l1.2-2.6H34.4l-1.6,2.6Z" transform="translate(0.02 0)" />
        <path d="M37.2,92.5h8.7l1.2-3.8H38.9Z" transform="translate(0.02 0)" />
        <path class="cls-3" d="M37.2,92.5h8.7l1.2-3.8H38.9Z" transform="translate(0.02 0)" />
        <path d="M42.7,77.9H36.2L35,80.1h6.8Z" transform="translate(0.02 0)" />
        <path class="cls-3" d="M42.7,77.9H36.2L35,80.1h6.8Z" transform="translate(0.02 0)" />
        <path d="M27.1,80.1h6.7l1.3-2.2H28.7Z" transform="translate(0.02 0)" />
        <path class="cls-3" d="M27.1,80.1h6.7l1.3-2.2H28.7Z" transform="translate(0.02 0)" />
        <path d="M118.4,70.3l1.5,1.3h4.5v-.3l-1.3-.9h-4.7Z" transform="translate(0.02 0)" />
        <path class="cls-3" d="M118.4,70.3l1.5,1.3h4.5v-.3l-1.3-.9h-4.7Z" transform="translate(0.02 0)" />
        <path d="M56.3,88.8H48.1L47,92.6h8.8Z" transform="translate(0.02 0)" />
        <path class="cls-3" d="M56.3,88.8H48.1L47,92.6h8.8Z" transform="translate(0.02 0)" />
        <path d="M58.6,74.2l.2-1.5H53l-.5,1.5Z" transform="translate(0.02 0)" />
        <path class="cls-3" d="M58.6,74.2l.2-1.5H53l-.5,1.5Z" transform="translate(0.02 0)" />
        <path d="M56.9,84.7H49.3l-.9,3.1h8Z" transform="translate(0.02 0)" />
        <path class="cls-3" d="M56.9,84.7H49.3l-.9,3.1h8Z" transform="translate(0.02 0)" />
        <path d="M51.5,74.2l.5-1.5H46.3l-.7,1.5Z" transform="translate(0.02 0)" />
        <path class="cls-3" d="M51.5,74.2l.5-1.5H46.3l-.7,1.5Z" transform="translate(0.02 0)" />
        <path d="M33.2,70.3H28l-1.1,1.3h5.3Z" transform="translate(0.02 0)" />
        <path class="cls-3" d="M33.2,70.3H28l-1.1,1.3h5.3Z" transform="translate(0.02 0)" />
        <path d="M39.7,70.3H34.4l-.9,1.3h5.4Z" transform="translate(0.02 0)" />
        <path class="cls-3" d="M39.7,70.3H34.4l-.9,1.3h5.4Z" transform="translate(0.02 0)" />
        <path d="M20.2,70.3H15.3l-1.5,1.3h5.1Z" transform="translate(0.02 0)" />
        <path class="cls-3" d="M20.2,70.3H15.3l-1.5,1.3h5.1Z" transform="translate(0.02 0)" />
        <path d="M46.2,70.3H40.9l-.7,1.3h5.5Z" transform="translate(0.02 0)" />
        <path class="cls-3" d="M46.2,70.3H40.9l-.7,1.3h5.5Z" transform="translate(0.02 0)" />
        <path d="M26.7,70.3h-5l-1.3,1.3h5.2Z" transform="translate(0.02 0)" />
        <path class="cls-3" d="M26.7,70.3h-5l-1.3,1.3h5.2Z" transform="translate(0.02 0)" />
        <path d="M28.5,88.8h-8l-2.8,3.8h8.6Z" transform="translate(0.02 0)" />
        <path class="cls-3" d="M28.5,88.8h-8l-2.8,3.8h8.6Z" transform="translate(0.02 0)" />
        <path d="M25.1,81.1H18.3L16,83.7h7.2Z" transform="translate(0.02 0)" />
        <path class="cls-3" d="M25.1,81.1H18.3L16,83.7h7.2Z" transform="translate(0.02 0)" />
        <path d="M17.9,72.6H12.6l-1.8,1.5h5.5Z" transform="translate(0.02 0)" />
        <path class="cls-3" d="M17.9,72.6H12.6l-1.8,1.5h5.5Z" transform="translate(0.02 0)" />
        <path d="M22.4,75.1H16.6l-1.9,1.8h6.1Z" transform="translate(0.02 0)" />
        <path class="cls-3" d="M22.4,75.1H16.6l-1.9,1.8h6.1Z" transform="translate(0.02 0)" />
        <path d="M19.9,77.9H13.7l-2.3,2.2h6.5Z" transform="translate(0.02 0)" />
        <path class="cls-3" d="M19.9,77.9H13.7l-2.3,2.2h6.5Z" transform="translate(0.02 0)" />
        <path d="M31.1,84.7H23.7l-2.4,3.1h7.9Z" transform="translate(0.02 0)" />
        <path class="cls-3" d="M31.1,84.7H23.7l-2.4,3.1h7.9Z" transform="translate(0.02 0)" />
        <path d="M52.7,70.3H47.3l-.6,1.3h5.6Z" transform="translate(0.02 0)" />
        <path class="cls-3" d="M52.7,70.3H47.3l-.6,1.3h5.6Z" transform="translate(0.02 0)" />
        <path d="M58.4,75.1H52.2l-.5,1.8h6.4Z" transform="translate(0.02 0)" />
        <path class="cls-3" d="M58.4,75.1H52.2l-.5,1.8h6.4Z" transform="translate(0.02 0)" />
        <path d="M58,77.9H51.4l-.6,2.2h6.9Z" transform="translate(0.02 0)" />
        <path class="cls-3" d="M58,77.9H51.4l-.6,2.2h6.9Z" transform="translate(0.02 0)" />
        <path d="M57.5,81.1h-7l-.8,2.6h7.4Z" transform="translate(0.02 0)" />
        <path class="cls-3" d="M57.5,81.1h-7l-.8,2.6h7.4Z" transform="translate(0.02 0)" />
        <path d="M103,67.7l-.3.3h.6Z" transform="translate(0.02 0)" />
        <path class="cls-3" d="M103,67.7l-.3.3h.6Z" transform="translate(0.02 0)" />
        <path d="M96.9,67.8l-.3.2h.6Z" transform="translate(0.02 0)" />
        <path class="cls-3" d="M96.9,67.8l-.3.2h.6Z" transform="translate(0.02 0)" />
        <path d="M109.1,67.7l-.3.3h.7Z" transform="translate(0.02 0)" />
        <path class="cls-3" d="M109.1,67.7l-.3.3h.7Z" transform="translate(0.02 0)" />
        <path d="M65.5,120.8h1v-.1l-1,.1Z" transform="translate(0.02 0)" />
        <path class="cls-3" d="M65.5,120.8h1v-.1l-1,.1Z" transform="translate(0.02 0)" />
        <path d="M90.9,67.8l-.4.2H91Z" transform="translate(0.02 0)" />
        <path class="cls-3" d="M90.9,67.8l-.4.2H91Z" transform="translate(0.02 0)" />
        <path d="M121.2,67.7l-.3.3h.8Z" transform="translate(0.02 0)" />
        <path class="cls-3" d="M121.2,67.7l-.3.3h.8Z" transform="translate(0.02 0)" />
        <path d="M115.2,67.7l-.3.3h.7Z" transform="translate(0.02 0)" />
        <path class="cls-3" d="M115.2,67.7l-.3.3h.7Z" transform="translate(0.02 0)" />
        <path d="M41.2,67.8l-.1.2h.5Z" transform="translate(0.02 0)" />
        <path class="cls-3" d="M41.2,67.8l-.1.2h.5Z" transform="translate(0.02 0)" />
        <path d="M53.4,67.9h0l.4.1Z" transform="translate(0.02 0)" />
        <path class="cls-3" d="M53.4,67.9h0l.4.1Z" transform="translate(0.02 0)" />
        <path d="M47.3,67.8l-.1.2h.5Z" transform="translate(0.02 0)" />
        <path class="cls-3" d="M47.3,67.8l-.1.2h.5Z" transform="translate(0.02 0)" />
        <path d="M72.6,68h0Z" transform="translate(0.02 0)" />
        <path class="cls-3" d="M72.6,68h0Z" transform="translate(0.02 0)" />
        <path d="M78.7,67.9l-.4.1.4-.1Z" transform="translate(0.02 0)" />
        <path class="cls-3" d="M78.7,67.9l-.4.1.4-.1Z" transform="translate(0.02 0)" />
        <path d="M59.5,68Z" transform="translate(0.02 0)" />
        <path class="cls-3" d="M59.5,68Z" transform="translate(0.02 0)" />
        <path d="M84.8,67.8l-.4.2h.5Z" transform="translate(0.02 0)" />
        <path class="cls-3" d="M84.8,67.8l-.4.2h.5Z" transform="translate(0.02 0)" />
        <path d="M35.2,67.8,35,68h.6Z" transform="translate(0.02 0)" />
        <path class="cls-3" d="M35.2,67.8,35,68h.6Z" transform="translate(0.02 0)" />
        <path d="M10.9,67.7l-.5.3h.8Z" transform="translate(0.02 0)" />
        <path class="cls-3" d="M10.9,67.7l-.5.3h.8Z" transform="translate(0.02 0)" />
        <path d="M23.1,67.7l-.4.3h.7Z" transform="translate(0.02 0)" />
        <path class="cls-3" d="M23.1,67.7l-.4.3h.7Z" transform="translate(0.02 0)" />
        <path d="M17,67.7l-.5.3h.7Z" transform="translate(0.02 0)" />
        <path class="cls-3" d="M17,67.7l-.5.3h.7Z" transform="translate(0.02 0)" />
        <path d="M29.1,67.7l-.3.3h.6Z" transform="translate(0.02 0)" />
        <path class="cls-3" d="M29.1,67.7l-.3.3h.6Z" transform="translate(0.02 0)" />
        <path class="cls-4"
            d="M121.7,68h-.8l-.3.4,1.2.9h-4.7L115.5,68h-.8l-.3.4,1.1.9h-4.8L109.3,68h-.7l-.3.4,1,.9h-4.9L103.2,68h-.6l-.4.3.9,1h-5l-1-1.3h-.6l-.4.3.8,1H91.8L91,68h-.5l-.5.3.6,1.1H85.5L84.9,68h-.5l-.5.2.5,1.1H79.2L78.8,68h-.5l-.5.1.3,1.2H72.8L72.6,68h-.4l-.6.1.2,1.2H66.5V68h-1v1.3H60.2l.1-1.2-.4-.1h-.4l-.2,1.3H54l.3-1.2-.5-.1h-.4L53,69.4H47.8l.5-1.1-.6-.3h-.5l-.6,1.3H41.4l.6-1-.4-.3h-.5l-.8,1.3H35.2l.7-1-.3-.3H35l-1,1.3H29l.9-1-.4-.3h-.6l-1.2,1.3H22.8l1-.9-.4-.4h-.7l-1.4,1.3H16.5l1.1-.9-.3-.4h-.7L15,69.3H10.4l1.2-.9-.4-.4h-.8L8.6,69.3H6.9l.1,1h.2l-.2.2.1,1.1,1.7-1.2h4.8l-1.5,1.3H7.2l.1,1H11L9.2,74.2H7.7l.2,1h0l.2,1.1,1.3-1.1h5.7L13.2,77H8.4l.3,1h3.6L10,80.1H9.3l.5,1.5.5-.5H17l-2.4,2.6H10.5l.4,1h2.7l-1.8,2,.4,1,2.7-3h7.3L20,87.8H12.4l.5,1h6.3l-2.8,3.8H15l.6,1,.6.9.6-.9h8.8l-2.8,4.5h-4l.8,1h2.6l-1.1,1.8.7.7L23.4,99H33l-2.6,5.6H24.7l1.1,1H30l-1.1,2.6.8.6,1.4-3.2H41.8l-2.1,7H35.3l1.7,1h2.5l-.3,1.1.9.4.4-1.6h12l-.9,5.7,1,.2.9-5.9h12v7.1h1v-7.1h12l.9,5.9.9-.2-.8-5.6h12l.4,1.4.9-.4-.3-1h2.2l1.7-1H92.2l-2.1-6.9h10.7l1.4,3,.8-.6-1.1-2.4h3.9l1-1h-5.4l-2.5-5.6h9.6l1.4,2.4.7-.7-.9-1.6H112l.8-1h-3.7l-2.8-4.5h8.8l.5.6,1-1.6h-1l-2.8-3.8h6l.5-1H112l-2.4-3.1h7.3l2.5,2.7.4-1-1.6-1.7h2.4l.4-1h-3.7L115,81.2h6.7l.2.2.4-1.2h-.2L119.8,78H123l.2-1h-4.5l-1.9-1.8h5.6l1,.8.4-1.8h-1L121,72.7h3.2l.2-1h-4.5l-1.5-1.3h4.8l1.3,1,.3-2h-1.3Zm-68,2.3h5.4l-.2,1.3H53.3ZM53,72.6h5.7l-.2,1.5h-6ZM39.4,87.7l1.4-3.1h7.6l-.9,3.1Zm7.7,1-1.2,3.8H37.2l1.7-3.8ZM33.8,80.1H27.1l1.6-2.2h6.4Zm2.5-2.2h6.5l-1,2.2H35Zm-1.9,3.2h6.9l-1.2,2.6H32.8Zm6.8,2.5L42.4,81h7l-.8,2.6Zm1.6-3.5,1-2.2h6.5l-.6,2.2Zm1.5-3.2.8-1.8h6.1l-.5,1.8Zm.2-2.8H38.6l.9-1.5h5.7Zm-.5,1-.8,1.8H36.9L38,75.1Zm-6.6-1H31.6l1.1-1.5h5.6Zm-.6,1-1.1,1.8H29.5l1.4-1.8Zm-6.4-1H24.7l1.4-1.5h5.5Zm-7.1,0H17.7l1.6-1.5h5.4Zm.4,1h5.9l-1.4,1.8H22.1Zm3.8,2.8-1.6,2.2H19.3l1.9-2.2Zm-1.1,3.2h6.8l-1.5,2.6H24.4Zm5.8,3.5h7.5l-1.4,3.1h-8Zm5.6,4.1-1.7,3.8H27.4l2.3-3.8Zm-1,4.8h8.8l-1.4,4.6H34.7ZM45,99.1h9.7l-.8,5.6H43.3Zm.3-1,1.4-4.6h8.9l-.7,4.6Zm1.6-5.6L48,88.7h8.2l-.5,3.8Zm1.5-4.8,1-3.1H57l-.5,3.1Zm1.3-4.1.8-2.6h7l-.4,2.6Zm1-3.5.6-2.2H58l-.3,2.2Zm1-3.2.5-1.8h6.1l-.2,1.8Zm-4.4-6.6h5.3l-.3,1.3H46.7ZM52,72.6l-.5,1.5H45.6l.7-1.5ZM40.9,70.3h5.3l-.6,1.3H40.1Zm-6.5,0h5.3l-.8,1.3H33.5Zm-6.4,0h5.1l-.9,1.3H26.9Zm-6.3,0h5l-1.1,1.3H20.4Zm-6.4,0h4.9l-1.3,1.3H13.8Zm-4.6,3.8,1.8-1.5h5.3l-1.6,1.5Zm5.9,1h5.8l-1.7,1.8h-6Zm-5.2,5,2.3-2.2h6.2l-2,2.2ZM16,83.6,18.3,81h6.8l-2,2.6Zm7.7,1h7.4l-1.9,3.1H21.3Zm-6,7.9,2.8-3.8h8l-2.3,3.8Zm6.4,5.6,2.8-4.6h8.8l-2.1,4.6Zm7.6,6.6,2.6-5.6H44l-1.7,5.6Zm21,7.9H40.9l2.1-7H53.7Zm12.8,0H53.7l1-7H65.5Zm0-7.9H54.8l.9-5.6h9.8Zm0-6.6H55.9l.7-4.6h8.9Zm0-5.6H56.7l.6-3.8h8.2Zm0-4.8H57.4l.4-3.1h7.6v3.1Zm0-4.1H58l.4-2.6h7.1Zm0-3.5H58.6l.3-2.2h6.6Zm0-3.2H59.1l.3-1.8h6.1Zm0-2.8h-6l.2-1.5h5.8Zm.1-2.5H60l.1-1.3h5.5Zm51.2-1.3,1.5,1.3h-5.1l-1.3-1.3ZM80.7,77.9l.6,2.2H74.4l-.3-2.2Zm-6.7-1-.3-1.8h6.2l.5,1.8Zm27.2-1.8,1.4,1.8H96.4l-1.1-1.8Zm-.6-2.5h5.5l1.4,1.5h-5.7ZM84.7,87.7l-.9-3.1h7.6l1.4,3.1Zm8.4,1,1.7,3.8H86l-1-3.8Zm-3.5-7.6,1.2,2.6H83.4l-.8-2.6Zm-7.2-1-.6-2.2h6.5l.9,2.2Zm7-2.2h6.4l1.3,2.2H90.3Zm1.3,3.2h7l1.5,2.6H91.9ZM97,77.9h6.4l1.6,2.2H98.3Zm-2.4-3.8-.9-1.5h5.6l1.1,1.5Zm-.5,1,1.1,1.8H88.9l-.8-1.8Zm-6.5-1-.7-1.5h5.7l.9,1.5Zm-.6,1,.8,1.8H81.4l-.5-1.8Zm-5.4,6,.8,2.6H75l-.4-2.6Zm1.1,3.5.9,3.1h-8l-.5-3.1Zm1.2,4.1L85,92.5H76.2l-.5-3.8Zm1.4,4.8,1.4,4.6H77.1l-.7-4.6ZM87,99.1l1.7,5.6H78.1l-.8-5.6Zm-.6-5.6h8.9l2,4.6H87.8Zm7.8-4.8h8.1l2.3,3.8H95.9Zm-.4-1-1.4-3.1h7.5l1.9,3.1Zm5-6.6h6.9l1.9,2.6h-7.2Zm5.8-3.2h6.3l2,2.2h-6.6Zm-.8-1-1.4-1.8h5.9l1.6,1.8Zm3.6-4.3h5.4l1.6,1.5h-5.6Zm3.1-2.3,1.3,1.2h-5.3l-1.1-1.2Zm-6.5,0,1.1,1.2H99.8l-.9-1.2Zm-6.3,0,.9,1.2H93.2l-.7-1.2Zm-6.5,0,.8,1.2H86.5L86,70.3Zm-5.4,2.3.7,1.5H80.6l-.4-1.5Zm-.9-2.3.5,1.2H79.9l-.4-1.2Zm-5.3,3.8h-6l-.2-1.5h5.8Zm-1.2-3.8.4,1.2H73.2L73,70.3Zm-11.8,0H72l.2,1.2H66.6Zm0,2.3h5.8l.2,1.5h-6Zm0,2.5h6.1l.3,1.8H66.5Zm-.1,2.8h6.6l.3,2.2H66.5Zm0,3.2h7.1l.4,2.6H66.5Zm0,3.5h7.6l.4,3.1H66.4V84.6Zm0,4.1h8.2l.6,3.8H66.5Zm0,4.8h8.9l.6,4.6H66.4V93.5Zm0,5.6h9.7l.8,5.6H66.5Zm0,13.5v-7H77.3l1,7Zm24.6,0H79.3l-1-7H89Zm9.2-7.9H89.7L88,99.1h9.7Zm7.6-6.6H98.4l-2-4.6h8.8Zm6.4-5.6h-8.6l-2.3-3.8h8.1Zm-3.5-4.8h-7.9L101,84.6h7.4Zm5.2-4.1h-7.2L106.9,81h6.8Zm4.7-3.5h-6.5l-2-2.2h6.2Zm-3.3-3.2h-6.1l-1.6-1.8h5.8Zm2.2-4.3,1.8,1.5h-5.5l-1.6-1.5Z"
            transform="translate(0.02 0)" />
        <path class="cls-5"
            d="M9.6,42.1,41,62.5h63.1l17.7-21.1a58.59,58.59,0,0,0-8-15L103,20.7l-4.3,2.7-8.8-7L83.2,31.3,78.1,30s-3,5-3.2,4.9-4.4,0-4.4,0l-7.2,4.5L55,31.8l-7.1-1.3L44.5,23l-6.1-1.2L33.9,15l-8.4,6.1-2-1.4A60,60,0,0,0,9.6,42.1Z"
            transform="translate(0.02 0)" />
        <path class="cls-6"
            d="M125.3,61.5a58.35,58.35,0,0,0-5.2-24.4l-5.5-1.9-5.1,2.1-9.2-7.4-5,4.9-3.9-2.1-8,8.1-3.7-1.7-6,13-9.3,7L46.4,49,35,49.6l-7-9.5L25.2,42l-7.7-7.1-4.6,2.4-1-.9A59.93,59.93,0,0,0,6.3,61.5a51.7,51.7,0,0,0,.4,6.8H124.9A51.7,51.7,0,0,0,125.3,61.5Z"
            transform="translate(0.02 0)" />
        <circle class="cls-4" cx="53.12" cy="9" r="1.1" />
        <circle class="cls-4" cx="38.92" cy="17" r="1.1" />
        <circle class="cls-4" cx="64.82" cy="32.7" r="1.1" />
        <circle class="cls-4" cx="73.82" cy="23.7" r="0.5" />
        <circle class="cls-4" cx="71.12" cy="14.3" r="0.5" />
        <circle class="cls-4" cx="80.52" cy="19.8" r="0.5" />
        <circle class="cls-4" cx="82.82" cy="6.4" r="0.5" />
        <circle class="cls-4" cx="79.92" cy="8.7" r="0.5" />
        <circle class="cls-4" cx="65.72" cy="17.9" r="0.5" />
        <circle class="cls-4" cx="57.72" cy="24.8" r="0.5" />
        <circle class="cls-4" cx="75.82" cy="30.7" r="0.5" />
        <circle class="cls-4" cx="64.32" cy="5.1" r="0.5" />
        <circle class="cls-4" cx="57.32" cy="12.2" r="0.5" />
        <circle class="cls-4" cx="48.12" cy="17" r="0.5" />
        <circle class="cls-4" cx="43.22" cy="10.8" r="0.5" />
        <circle class="cls-4" cx="84.12" cy="14.3" r="1.1" />
        <circle class="cls-4" cx="77.22" cy="22.7" r="1.1" />
        <circle class="cls-4" cx="59.62" cy="14" r="1.1" />
        <path class="cls-1" d="M6.9,69.5H124.8l.2-1.8H6.6Z" transform="translate(0.02 0)" />
    </g>
    <g id="palm">
        <path class="cls-7"
            d="M116.7,6.9c-4.1-1.6-8.7.3-12.1,2.6a18.76,18.76,0,0,0-2.4,1.8h-.1a3.79,3.79,0,0,0-1.5,0,.76.76,0,0,1,.4-.2l1.6-.5c.4-.1.2-.7-.1-.7a2.49,2.49,0,0,0-.8-.1,12.09,12.09,0,0,1,1.8-.5.21.21,0,0,0,.1-.4,3.81,3.81,0,0,0-1.5-.1.37.37,0,0,1,.3-.1c.5-.1,1.1-.2,1.7-.3.3,0,.3-.4,0-.5a1.39,1.39,0,0,0-1.1-.2l.5-.2c.4-.2,1-.2,1.5-.4.1,0,.2-.2,0-.3a.76.76,0,0,0-.4-.2l.6-.5c.4-.2,1-.4,1.2-.8.1-.1.1-.1,0-.2a1.57,1.57,0,0,0-1.2-.1l.8-1c.2-.1,0-.5-.2-.4a3.55,3.55,0,0,0-.9.4,11.22,11.22,0,0,0-2.6,2.2,27.87,27.87,0,0,0-3,3.8,25.45,25.45,0,0,0-2.4,3.9c-.3-1.6-.7-3.3-1.1-4.9,0-.1.1-.2,0-.3a1.8,1.8,0,0,0-.4-.9c-.4-.9-.7-1.8-1.2-2.7a13.73,13.73,0,0,0-1.3-2c-.4-.5-1.1-1.3-1.8-1.3a.37.37,0,0,0-.4.4.76.76,0,0,0,.2.5,3.91,3.91,0,0,0-2.4.2.37.37,0,0,0,.1.7,12.44,12.44,0,0,1,1.6.4,1.69,1.69,0,0,0-1,.3.45.45,0,0,0,0,.5,22.56,22.56,0,0,0,2.2,1.1l.3.1a5,5,0,0,0-1.2.2.32.32,0,0,0-.1.6,12.81,12.81,0,0,1,2,1.1,4.3,4.3,0,0,0-1.6,0,.35.35,0,0,0-.1.5l1.1.8a8.64,8.64,0,0,1,1.4,1.3,6.58,6.58,0,0,0-1.5-.4c-.2,0-.5.3-.3.5a5.55,5.55,0,0,1,.6.8l-.9-.3h-.2L89.1,10c-1.7-.9-3.5-1.8-5.2-2.7a24.7,24.7,0,0,0-5.4-1.9.21.21,0,0,0-.1.4c.3.2.6.3.9.5a3,3,0,0,0-1.6.3c-.1.1,0,.4.1.4l1.6.3-.3.2a.27.27,0,0,0,.2.4l1-.1c-.1.1-.2.2-.3.2a.19.19,0,0,0,.1.3L82.9,8h-.1a5.31,5.31,0,0,0-1.7.8.1.1,0,0,0-.1.1l.1.1h2.4a3.55,3.55,0,0,0-1.6,1.1c-.1.2,0,.4.2.4.7,0,1.3-.2,2-.2H85a3.74,3.74,0,0,0-1.5,1.3c-.1.1,0,.4.2.3a7,7,0,0,1,2.4-.9,4.87,4.87,0,0,1,1.2-.1c.2,0,.5.1.7.1a.31.31,0,0,0,.2.1,9.85,9.85,0,0,0-3.4,1.2.14.14,0,0,0,0,.2h.1c1.2,0,2.5-.2,3.7-.2a11,11,0,0,1,1.8.2,5.47,5.47,0,0,0-3.1.7c-.1.1-.1.1,0,.2h.1c.5.1,1.1,0,1.6.1a9.85,9.85,0,0,1,1.7.2l.6.1h-.9l-.4.3h-.2c-.3-.1-.7.2-.5.5s.6.3,1.1.4a4.53,4.53,0,0,1,1.6.3,10.93,10.93,0,0,1,1.5.8h.1v.1L92.2,16a17,17,0,0,0-7.1-.1,21,21,0,0,0-6.5,2.3,16,16,0,0,0-5,4.7c-.1.2.1.5.3.3a12,12,0,0,1,1.2-1.1,5.39,5.39,0,0,0-.7,1.3c-.2.4.4.8.8.4l1.7-2.2c.5-.6,1.1-1.2,1.6-1.8l.7-.4a16.1,16.1,0,0,0-2.1,3c-.1.2.2.4.4.2.8-.9,1.6-1.8,2.5-2.7l1.4-1.2.6-.4.7-.2-.2.3a11.19,11.19,0,0,0-2.4,3.3c-.1.2.1.5.3.4a12.25,12.25,0,0,0,2.7-2.4l.5-.5a2.15,2.15,0,0,0-.4,1.5.22.22,0,0,0,.2.2h.1a1.6,1.6,0,0,0,.9-.7l.2-.2c-.1.1-.1.2-.2.2a.5.5,0,0,0,.7.7,9.51,9.51,0,0,0,2-1.5c-.1.2-.3.4-.3.6s.1.5.3.4a3.38,3.38,0,0,0,1.2-.6l1.4-.8a2.09,2.09,0,0,0-.4.6c-.1.2.1.6.4.5h.1l-.8.3a21.37,21.37,0,0,0-9.6,8.5,9.38,9.38,0,0,0-1,2.8c-.1.8-.2,2.2.4,2.9a.3.3,0,0,0,.4,0,5.28,5.28,0,0,0,.1-1.3l.3-1.4a6.12,6.12,0,0,1,.5-1.2,7,7,0,0,0,.3,2.9c0,.2.4.1.4,0a14,14,0,0,1,.6-2.8,5.58,5.58,0,0,0,.3,2.2c0,.1.2.1.2,0,.5-1.2.8-2.6,1.2-3.9a14.35,14.35,0,0,0-.4,2.2.21.21,0,0,0,.4.1l1-2v.1c0,.2.2.3.3.1a11,11,0,0,0,1.4-2.1l-.1.3a5,5,0,0,0-.3,1.3c0,.1.1.1.2.1a3,3,0,0,0,.8-.8l1-1.2,1.2-1.9a.35.35,0,0,1-.1.2,7,7,0,0,0-.9,2.4.3.3,0,0,0,.4.2c.5-.5.9-1.3,1.4-1.9.9-1.2,1.8-2.3,2.8-3.4a42.52,42.52,0,0,0-4.8,13.9A92.22,92.22,0,0,0,86,50.5a109.88,109.88,0,0,0,1.6,22.9,1.6,1.6,0,1,0,3.2.2,2,2,0,0,0-.1-.7A181.69,181.69,0,0,1,89,54.8a89.24,89.24,0,0,1,2.3-23.6c.9-3.4,2.2-6.7,3.3-10.1a.35.35,0,0,0,.2-.1l-.2.6a5.37,5.37,0,0,0-.5,2.1c0,.1.2.2.3.2a.76.76,0,0,0,.5-.2l.1,1.9c-.1.4.3.7.6.4a2.92,2.92,0,0,0-.2.9c0,.2.2.4.4.2a10.63,10.63,0,0,0,.9-1.1,14.58,14.58,0,0,1-.7,1.9c-.1.3.2.5.4.2l.6-.8-.8,2.2a.33.33,0,0,0,.5.4,8.34,8.34,0,0,0,1.6-2.1h0a6.37,6.37,0,0,0-.2.7,7.6,7.6,0,0,1-.4,1.1c-.3.7-1,1.1-1.4,1.8-.2.3,0,.8.4.7.2,0,.3-.1.5-.1a5,5,0,0,0-.8,1.2c0,.2.1.4.3.4h.1a1.88,1.88,0,0,0-.2.8.35.35,0,0,0,.5.3,1.38,1.38,0,0,0,.4-.3,7.62,7.62,0,0,0-.6,2c0,.1.1.2.2.1a2.18,2.18,0,0,0,.5-.4h0a11.8,11.8,0,0,0-.4,2c0,.3.5.6.7.3s.2-.5.3-.7v1.4c0,.4.6.6.7.1a49.9,49.9,0,0,0,1-12.2,30.34,30.34,0,0,0-.6-4.2,1.37,1.37,0,0,0,.5.8h.1a4.88,4.88,0,0,0,.3-.7c.1.4.3.8.4,1.2a.3.3,0,0,0,.4,0,12.25,12.25,0,0,0,.2-1.9,15.55,15.55,0,0,0,.8,2.3c.1.1.4.1.4-.1a5.33,5.33,0,0,0-.1-2.8c0-.1-.1-.2-.1-.3h0a2.77,2.77,0,0,1,.3,1.3c.2,1,.2,2,.4,3a.32.32,0,0,0,.6.1l.1-.6h0a21.05,21.05,0,0,0,.2,2.5.42.42,0,0,0,.7.1c.1-.2.3-.4.3-.6a8.55,8.55,0,0,0,0,1.6c0,.3.5.4.7.2a3.1,3.1,0,0,0,.6-1.3V28c0,1-.3,2-.2,3,0,.4.4.4.6.2l.1-.1a6.56,6.56,0,0,0,.1,2c0,.3.4.4.6.1v.3a7.5,7.5,0,0,0,0,1.5c0,.1.2.5.4.5a.9.9,0,0,0,.6-.6,4.1,4.1,0,0,0,.1,1.1c.1.4.6.7.9.2a6.06,6.06,0,0,0,.4-3.3,21.47,21.47,0,0,0-3.5-10.1,13.2,13.2,0,0,0-4.7-4.4h.3c.3,0,.5-.4.3-.6l-.2-.2h.4c.3,0,.4-.4.3-.6a1.79,1.79,0,0,0-.7-.5,12.59,12.59,0,0,0,2.7-.4c.4-.1.5-.6.1-.7l-.9-.3a13.55,13.55,0,0,0,2-.2.32.32,0,0,0,.1-.6,19.68,19.68,0,0,0-3.5-.5,14.72,14.72,0,0,1,2.1,0l2.3.1,1,.1c.3,0,.6-.1.9-.1s.3-.4.1-.5l-.3-.3c-.1,0-.2-.1-.3-.1.1,0,.1-.2,0-.3a2.65,2.65,0,0,0-.6-.5,12.66,12.66,0,0,1,2.8.6.32.32,0,1,0,.2-.6,15.51,15.51,0,0,0-3.6-1.3h-.2l1.1.1,2.2.5,2.1.4c.3.1.4-.4.1-.6-.7-.3-1.4-.8-2.1-1.1a7.62,7.62,0,0,0-2-.6l.2-.1a7.72,7.72,0,0,1,1.5.2l1.5.3a3.65,3.65,0,0,0,1.5.3c.2,0,.3-.3.3-.5h0a2.19,2.19,0,0,0-.3-.5,16,16,0,0,0,2.1.5c.3,0,.6-.3.3-.6A4.81,4.81,0,0,0,113.7,8l2-.3C117,7.4,117,7,116.7,6.9ZM98,15.4l-.3.3.1-.1C97.8,15.5,97.9,15.5,98,15.4Zm2.4-2.5a3.51,3.51,0,0,0-1.6.6,14.8,14.8,0,0,1,1.3-.8,4.18,4.18,0,0,1,1-.4l-.7.6Zm-7.6-.3h0l.2.2ZM84.6,8.9h0Zm8.1,10.5.5-.1-.5.1Z"
            transform="translate(0.02 0)" />
        <path class="cls-7"
            d="M130.7,23.5c-3-2.1-7.2-1.4-10.4-.2a16,16,0,0,0-2.3,1h-.1a2.38,2.38,0,0,0-1.2-.3c.1,0,.3-.1.4-.1l1.4-.1c.3,0,.3-.5,0-.6a1.85,1.85,0,0,0-.7-.2,8.6,8.6,0,0,1,1.6-.1c.1,0,.3-.2.1-.3a2.84,2.84,0,0,0-1.2-.4h1.6c.3,0,.3-.2.2-.4a2,2,0,0,0-.8-.4l.4-.1H121a.19.19,0,0,0,.1-.3c-.1-.1-.2-.2-.3-.2l.6-.3c.4-.1.9-.1,1.2-.4a.1.1,0,0,0,.1-.1h0a1.4,1.4,0,0,0-.9-.3l.6-.3c.2-.1,0-.4-.1-.3l-.8.1a12.64,12.64,0,0,0-2.6,1.3,39.19,39.19,0,0,0-3.2,2.5,17.24,17.24,0,0,0-2.7,2.7l.1-3.5v-.7a.37.37,0,0,0,.1-.3,2.2,2.2,0,0,0-.1-.8,20,20,0,0,0-.4-2.4,10.66,10.66,0,0,0-.7-1.9c-.2-.4-.6-1.3-1.2-1.4-.2,0-.4,0-.4.2v.5a3.19,3.19,0,0,0-1.9-.3c-.3.1-.4.5-.1.6a7.46,7.46,0,0,1,1.2.7,2.77,2.77,0,0,0-.9.1c-.1,0-.2.2-.1.4.4.5,1.1.8,1.6,1.3l.2.2a3.4,3.4,0,0,0-1-.1.28.28,0,0,0-.2.5l1.4,1.3a3.08,3.08,0,0,0-1.3-.3c-.2,0-.2.3-.1.4l.7.8a4.19,4.19,0,0,1,.9,1.4,3.88,3.88,0,0,0-1.1-.6.22.22,0,0,0-.3.3,2.12,2.12,0,0,1,.3.7l-.7-.4-.2-.1L107.5,21c-1.2-1.1-2.5-2.2-3.8-3.2a21.6,21.6,0,0,0-4-2.7c-.2-.1-.3.2-.2.3l.7.5a3.3,3.3,0,0,0-1.4,0c-.2.1-.1.3,0,.4l1.3.5a.35.35,0,0,0-.2.1c-.2,0-.1.3,0,.3l.9.1c-.1,0-.2.1-.3.1s-.1.1-.1.2.1.1.2.1l2.3.3h-.1a2.7,2.7,0,0,0-1.5.3v.1h0c.4.1.9.2,1.4.3l.6.1a2.2,2.2,0,0,0-1.5.6.19.19,0,0,0,0,.3l.1.1,1.7.2h.4a5.07,5.07,0,0,0-1.5.7c-.1.1,0,.4.1.3a7.8,7.8,0,0,1,2.2-.3c.4,0,.7.1,1,.1l.6.2.2.1a9.88,9.88,0,0,0-3,.3.1.1,0,0,0-.1.1l.1.1c1,.2,2.1.3,3.1.5a7.84,7.84,0,0,1,1.4.5,3.87,3.87,0,0,0-2.6,0c-.1,0-.1,0-.1.1s0,.1.1.1c.4.2.8.2,1.3.4s.9.3,1.3.4l.5.2h-.1a1.27,1.27,0,0,0-.6-.1h-.6a.3.3,0,0,0-.5.3c.1.4.4.4.8.5a6.12,6.12,0,0,1,1.2.5,9,9,0,0,1,1,.9l.1.1v.1a8.79,8.79,0,0,0-1-.6,14.2,14.2,0,0,0-5.7-1.5,18.15,18.15,0,0,0-5.7.6,13.16,13.16,0,0,0-5,2.9c-.1.1,0,.5.2.3l1.2-.6a6.47,6.47,0,0,0-.8.9c-.2.3.2.8.5.5l1.8-1.4A17.67,17.67,0,0,0,97.1,26l.6-.1a14.34,14.34,0,0,0-2.3,2c-.1.2.1.4.2.2l2.6-1.7,1.4-.7.5-.2h.6l-.2.2a11.33,11.33,0,0,0-2.7,2.2.27.27,0,0,0,.2.4,9.93,9.93,0,0,0,2.7-1.4l.5-.3a1.74,1.74,0,0,0-.6,1.1.22.22,0,0,0,.2.2,1.49,1.49,0,0,0,.9-.4l.2-.1-.2.1a.46.46,0,0,0,.4.8l2-.8-.4.4c-.1.2,0,.4.1.4a5,5,0,0,0,1.2-.2l1.3-.4c-.2.1-.3.3-.4.4s0,.5.2.5h.1l-.7.1a17.6,17.6,0,0,0-9.5,5,6,6,0,0,0-1.4,2.1c-.2.6-.6,1.8-.2,2.4,0,.1.2.2.3,0a3.81,3.81,0,0,0,.3-1,3.13,3.13,0,0,1,.5-1l.6-.9a5,5,0,0,0-.3,2.4c0,.2.3.2.4,0,.3-.7.7-1.5,1-2.2a11,11,0,0,0-.2,1.8c0,.1.1.1.2,0,.6-.9,1.1-1.9,1.8-2.9L98.2,36c-.1.2.2.3.3.2l1.2-1.4-.1.1c0,.1.1.2.2.1a10,10,0,0,0,1.5-1.4l-.1.2a3.13,3.13,0,0,0-.5,1,.1.1,0,0,0,.1.1,1.23,1.23,0,0,0,.8-.4l1-.8,1.4-1.3c-.1.1-.1.1-.1.2a5.67,5.67,0,0,0-1.2,1.8c0,.1.1.3.3.2a17.38,17.38,0,0,0,1.5-1.3,23.22,23.22,0,0,1,3-2.2,37,37,0,0,0-6.7,10.4,90.06,90.06,0,0,0-3.9,11,94,94,0,0,0-2,9.2c-.5,3.3-.8,6.5-1.2,9.8a1.36,1.36,0,0,0,2.7.3,130.84,130.84,0,0,1,2.2-15.1,73.5,73.5,0,0,1,6.5-18.8c1.4-2.6,3.2-5,4.7-7.6h.2l-.2.4a4.81,4.81,0,0,0-.8,1.6c0,.2.1.2.3.2a.6.6,0,0,0,.4-.1l-.8,1.2a.33.33,0,0,0,.4.5c-.1.2-.2.5-.3.7s.1.3.2.2a6.07,6.07,0,0,0,1-.7c-.3.5-.6.9-.9,1.4-.1.2.1.5.3.3l.6-.6-1.1,1.7a.31.31,0,0,0,.4.4,5.52,5.52,0,0,0,1.7-1.4h0l-.3.5c-.2.3-.3.5-.5.8-.4.5-1,.7-1.5,1.2a.35.35,0,0,0,.2.6h.4a3,3,0,0,0-.8.8.27.27,0,0,0,.2.4h.1c-.1.2-.3.4-.3.6s0,.4.3.4.3-.1.4-.1a11,11,0,0,0-.9,1.4c0,.1,0,.2.1.2a1.42,1.42,0,0,0,.6-.2h0a10.93,10.93,0,0,0-.8,1.5c-.1.3.3.6.5.4a1.76,1.76,0,0,0,.4-.5l-.2,1.1a.32.32,0,1,0,.6.2,41.66,41.66,0,0,0,3.2-9.8,21.86,21.86,0,0,0,.3-3.6,1.88,1.88,0,0,0,.2.8h.1a1,1,0,0,0,.4-.5c0,.4.1.7.1,1.1a.1.1,0,1,0,.2,0l.6-1.5a6.8,6.8,0,0,0,.2,2c0,.1.3.1.3,0a3.54,3.54,0,0,0,.4-2.3v-.2a4,4,0,0,1,0,1.1c0,.8-.2,1.7-.2,2.6a.3.3,0,0,0,.5.2l.2-.5V36a6.93,6.93,0,0,0-.3,2c0,.2.3.3.5.2s.3-.3.4-.4a6.11,6.11,0,0,0-.3,1.3c0,.3.3.4.6.3a3.11,3.11,0,0,0,.7-.9v.1c-.2.8-.6,1.6-.8,2.4a.28.28,0,0,0,.5.2h.1a8.58,8.58,0,0,0-.3,1.7.28.28,0,0,0,.5.2v.3a2.34,2.34,0,0,0-.2,1.2c0,.1,0,.4.2.4a.6.6,0,0,0,.6-.3l-.1.9c0,.3.4.7.7.3a5.46,5.46,0,0,0,1-2.6,20.66,20.66,0,0,0-.8-8.9,10.52,10.52,0,0,0-3-4.5l.3.1c.2,0,.5-.3.3-.5l-.1-.1h.3c.3,0,.5-.2.3-.5a2.09,2.09,0,0,0-.4-.6,16.41,16.41,0,0,0,2.3.2.33.33,0,0,0,.2-.6,1.61,1.61,0,0,0-.7-.4,9.85,9.85,0,0,0,1.7.2.3.3,0,0,0,.2-.5,15.33,15.33,0,0,0-2.7-1.1,4.71,4.71,0,0,1,1.6.4l1.9.6.8.2c.3.1.5,0,.8.1s.4-.3.2-.4l-.2-.3a.31.31,0,0,0-.2-.1c.1,0,.1-.1.1-.2v-.1a1,1,0,0,0-.4-.5,21.4,21.4,0,0,1,2.2,1,.25.25,0,1,0,.3-.4,12.71,12.71,0,0,0-2.7-1.8h-.1l.8.3c.6.3,1.2.5,1.7.8l1.6.7c.3.1.4-.2.2-.4-.5-.4-1-.9-1.5-1.3a6,6,0,0,0-1.5-.9h.2l1.3.5c.4.2.7.4,1.1.6a2.57,2.57,0,0,0,1.2.5c.2,0,.3-.1.3-.2v-.1a.76.76,0,0,0-.2-.5,8.86,8.86,0,0,0,1.7.8c.2.1.5-.2.4-.4a3.34,3.34,0,0,0-1.1-1.3l1.7.1C130.8,23.9,130.9,23.5,130.7,23.5Zm-17,3.2-.3.2.1-.1A.35.35,0,0,1,113.7,26.7Zm2.5-1.6a3.89,3.89,0,0,0-1.5.2l1.2-.4a2.77,2.77,0,0,1,.9-.1l-.6.3ZM110,23.3h0l.1.2Zm-6-4.6h0Zm4.5,10.2h0Z"
            transform="translate(0.02 0)" />
    </g>
    <g id="palm_accent" data-name="palm accent">
        <path class="cls-8"
            d="M91.7,26.9l-.1.2-.1.3v.2a7.94,7.94,0,0,0-.6,2.2,7.72,7.72,0,0,0-.2,1.5L90.5,33l-.3,1-.1.9-.1.9-.1.9-.1,1.8v2.2l-.1.4c-.2,1.2-.4,2.4-.7,3.6l-.3.9-.3.8h-.2l-.1-.9a23.59,23.59,0,0,1,.1-6.5l.2-.9.2-.9.2-.9.2-.9.2-.9.2-.9.2-.8.4-1.7.1-.4.1-.3.2-.7.4-1.2c.1-.3.3-.6.4-.9l.1-.2.1-.1.1-.2.1-.1Zm-10,2v-.1l.2-.3.1-.3.2-.3.2-.3.2-.4A12,12,0,0,1,85,24.6l.5-.4.2-.2.2-.2,1-.8.5-.4.5-.3.5-.3.5-.3,1-.4.8-.3.7-.2.4-.1h.1l.1.1-.1.1V21c-.2.2-.4.5-.6.7l-.1.1-.3.3-.9.7-.4.3a2.19,2.19,0,0,1-.5.3l-.5.3-.6.4-.5.3-.5.3-.2.1-.4.2-.5.3-1,.7-.9.7-.7.6-.3.4-.3.3-.2.2-.2.2-.3.5-.1.1Zm.7-11.2.3-.2.2-.1.2-.1.3-.1.3-.1L84,17l.4-.1h.4l.4-.1.9-.1,1-.1H89c.2,0,.3.1.4.1h.2l.2.1.4.1a.1.1,0,0,1,.1.1l.2.1.3.2.2.2.2.1.1.2c.1.1.2.3.3.4v.1H89l-.3-.1c-.1,0-.3-.1-.4-.1l-.3-.2a3.09,3.09,0,0,0-.8-.2l-.9-.1H83l-.4.1ZM92,3.7l.4.4.4.5.5.7.1.2.1.2.5.6.6,1,.4.6.1.3.1.3.6,1.2a10.09,10.09,0,0,0,.7,1.5l.1.3.1.3.1.3.1.3v.2l.1.6a4.05,4.05,0,0,1,0,1.1,3.4,3.4,0,0,1-.1,1,1.45,1.45,0,0,1-.2.7l-.1.2v.2l-.1.1h-.2v-.1l-.1-.4v-.6l-.3-.8-.3-1-.2-.5v-.5l-.4-.2v-.6l-.1-.3v-.3l-.1-.3-.1-.6L94.1,9l-.2-.6-.2-.6-.2-.5L93.4,7l-.1-.2L93,6.2,92.9,6l-.1-.2L92.4,5l-.3-.6-.2-.5Zm-6.2,6h0c.1-.1.1-.1.1,0h.4a.35.35,0,0,1,.2.1h.2l.7.3.4.2.4.2.4.2.2.1.2.1.4.3.4.2.5.3.2.1.2.2.4.3.5.3.4.3.4.3a2.41,2.41,0,0,1,.6.8l.3.3.1.2.1.2c.1.2.2.5.3.7l.2.5a1.09,1.09,0,0,1,.1.5l-.1.1c-.2-.1-.3-.1-.4-.2l-.5-.3-.3-.2-.3-.2-.3-.2-.3-.3a4.35,4.35,0,0,1-.7-.6l-.3-.4L91,14l-.3-.4v-.1h-.1l-.2-.2-.2-.2-.2-.2-.4-.3-.4-.3-.3-.3-.2-.2-.2-.1-.5-.5-.3-.3-.3-.2-.6-.4-.1-.1h0l-.2-.1a.37.37,0,0,0-.3-.1h-.1Z"
            transform="translate(0.02 0)" />
        <path class="cls-8"
            d="M99.6,11.2v.5l-.1.3-.1.3-.1.7v.6a.22.22,0,0,1-.2.2l-.2.2a.31.31,0,0,1-.2.1l-.2.1h-.4l-.1-.1c0-.1-.1-.2-.1-.3h0v-.6a.37.37,0,0,1,.1-.3c.1-.1.1-.2.2-.3l.3-.3.3-.3c.1-.1.2-.2.2-.3l.1-.1.1-.1.1-.1.1-.1.2-.1.1-.1h.1l.1-.1ZM98.5,36.7V32l-.1-.7-.1-.7-.1-.7-.2-1-.1-.7-.1-.7-.3-1.4V21.9c0-.2.1-.5.1-.7h.2l.3.6.3.7.4,1,.2.5.1.6.1.3v.3l.1.7.1.7v7a8.75,8.75,0,0,1-.2,1.6c-.1.3-.1.5-.2.8v.3l-.1.2v.1Z"
            transform="translate(0.02 0)" />
        <path class="cls-8"
            d="M96.8,26.6v-.2l-.1-.2v-.4l-.1-.3-.2-.5-.2-.9c-.1-.2-.1-.3-.2-.4a.6.6,0,0,1-.1-.4v-.4c0-.1.1-.3.1-.4s.1-.2.1-.3.1-.2.1-.3l.1-.2v-.1h.3c.1,0,.1.1.2.1s.2.1.2.2h0V22l.1.1.1.1.1.2a.6.6,0,0,1,.1.4v3l-.1.3a.35.35,0,0,1-.1.2l-.1.2h-.3Zm-10.6-1,.2-.3.1-.1.1-.2.1-.2.2-.2.2-.2.2-.2.1-.1.1-.1.2-.2.6-.5.6-.5.6-.5.2-.2.3-.2.3-.2.2-.1.3-.1.3-.1h.2l.2-.1h.4c.1,0,.3-.1.4-.1l.1.1v.4l-.1.2-.1.2-.1.2-.1.2-.2.2H92l-.1.1-.1.1c-.1.1-.2.1-.3.2l-.3.2-.4.1-.8.4-.7.3-.6.3-.3.2-.4.2-.3.1c-.1,0-.1.1-.2.1l-.2.1-.3.2-.2.1-.1.1-.3.2Zm24.3,17,.1-.4v-1l.1-.4V39.6l.1-.9V34.6a3.59,3.59,0,0,1,.2-1.1l.1-.3.1-.3v-.2c.1-.2.1-.3.2-.5h.2a.76.76,0,0,1,.2.4l.1.2.1.2.1.3.1.4.1.4.1.4V35a7.57,7.57,0,0,1-.1,1.5l-.2,1-.3,1a5.39,5.39,0,0,1-.3,1l-.1.4-.1.2v.2l-.2.4-.1.4-.1.3-.2.3.3.3-.1.2-.2.4Zm8.7.8V40.2c-.1-.4-.1-.8-.2-1.1a5.64,5.64,0,0,0-.4-1.2l-.2-.6-.1-.3-.1-.2-.3-.6-.3-.5-.4-.5-.3-.5-.2-.2-.1-.2-.3-.4-.6-.9-.3-.4-.2-.3L115,32l-.2-.2-.2-.4-.1-.1.1-.1h.1l.5.2.3.1.4.2.2.1.2.1.4.2.4.3.4.4a9,9,0,0,1,.9,1l.3.6.3.6.3.7.2.6h0v.2l.1.3.2.7a6.75,6.75,0,0,1,.2,1.4,5.65,5.65,0,0,1,0,1.3v1.6l-.1.4c0,.1-.1.2-.1.4l-.1.3a.35.35,0,0,1-.1.2v.3Zm1.1-18.9-.3.2h-.2l-.2.1-.2.1-.2.1-.3.1-.2.2-.3.1-.3.2-.6.4-.6.4-.6.5-.3.2-.3.2c-.2.1-.4.3-.6.3s-.4.1-.6.2a1.27,1.27,0,0,1-.6.1l-.4.1h-.4l-.1-.1c.1-.1.1-.3.2-.4a.76.76,0,0,0,.2-.4c.1-.2.2-.3.3-.5l.2-.2.2-.2a2.09,2.09,0,0,1,.6-.4c.1-.1.2-.1.3-.2l.3-.1.8-.3.7-.3.8-.2.3-.1h.3l.3-.1h.3l.3-.1h1.1v.1Zm-18.7,6.9.2-.2.3-.2.3-.2.2-.1.2-.1.5-.3.5-.3.6-.3.6-.3a1.42,1.42,0,0,1,.6-.2,1.27,1.27,0,0,1,.6-.1h.9c.1,0,.3.1.4.1a.35.35,0,0,1,.2.1h.1v.2h-.1c0,.1-.1.1-.1.2l-.3.3-.3.3c-.1.1-.3.2-.4.3a1.69,1.69,0,0,1-.5.2,1.27,1.27,0,0,1-.6.1c-.2,0-.4.1-.6.1l-.6.1-.6.1-1.1.2h-1Z"
            transform="translate(0.02 0)" />
        <path class="cls-8"
            d="M103.8,31.5a.76.76,0,0,0,.2-.4l.1-.1.1-.2.1-.2.1-.1c0-.1.1-.1.1-.2s.1-.1.1-.2.1-.1.2,0h.2c.1,0,.1.1.2.1l.1.1h.2l.1.1v1.1a.1.1,0,0,1-.1.1h-1.6Zm6.6,5.7V34.1a1.27,1.27,0,0,0-.1-.6,4.33,4.33,0,0,0-.1-.5v-.4c0-.1.1-.3.1-.4l.1-.4c0-.1.1-.2.1-.3l.1-.2v-.1h.1l.1.1c.1,0,.1.1.2.1l.1.1.1.1v.2l.1.2.1.2.1.2v1.1l-.1.6-.1.6-.1.6-.1.2v.2l-.1.2-.1.2-.1.2-.1.2-.1.1v.1l-.1.2ZM96.2,59l.1-.2.1-.2.1-.3a22.27,22.27,0,0,0,1.2-5.1l.1-.8v-.2h0v-.1l.1-.4.2-.9.2-.9.4-1.8a17.23,17.23,0,0,1,.7-2.1l.1-.4c.5-1,1-1.9,1.6-2.9l.2-.2a7.55,7.55,0,0,1,1.1-1.4h.1v.2l-.1.6-.1.4-.1.5-.3,1.2-.2.7-.2.7-.2.8-.2.7-.3.8-.3.8-.2.4a.6.6,0,0,0-.1.4l-.3.8-.3.8-.1.4-.1.4-.4.9-.3.8L98.2,55l-.5,1.4-.5,1.1-.2.4-.2.4-.1.3-.1.2-.1.2Zm1.3-40.4h0a.31.31,0,0,1,.2-.1h1.2c.2,0,.5.1.7.1s.5.1.8.2h.1l.2.1.4.2a3,3,0,0,0,.7.5l.7.5h.2l.1.2a.1.1,0,0,1,.1.1,1.61,1.61,0,0,1,.4.7.6.6,0,0,1,.1.4l.1.3v2.1h-.2l-.1-.1a.1.1,0,0,1-.1-.1l-.3-.3-.2-.2-.2-.2-.4-.4c-.2-.2-.3-.4-.4-.5l-.1-.1-.1-.1h0v-.1h0a2.09,2.09,0,0,0-.4-.6l-.5-.5-.2-.2-.1-.1h0a2.18,2.18,0,0,1-.5-.4,1.69,1.69,0,0,0-.5-.2c-.2-.1-.3-.1-.5-.2h-.8v-1Z"
            transform="translate(0.02 0)" />
        <path class="cls-8"
            d="M98.4,18.2h0c0-.1.1-.1.1,0H99a9.37,9.37,0,0,1,3.2,1.1,7.46,7.46,0,0,1,1.2.7l.1.1h0l.2.1.2.1.9.6.5.3.4.4a2.41,2.41,0,0,1,.6.8l.2.4.1.1V23l.1.2c.1.3.2.5.3.8a1.27,1.27,0,0,1,.1.6v.5h-.2l-.1-.1-.2-.2-.4-.4-.6-.4-.1-.1h-.1v-.1l-.3-.3c-.2-.2-.5-.4-.7-.6l-.3-.3-.3-.4a5,5,0,0,0-.7-.8l-.2-.1-.2-.2-.2-.2-.2-.1-1.5-1.2-.4-.2-.3-.2-.2-.2-.2-.1-.3-.1-.3-.1c-.1-.1-.3-.1-.4-.2h0Z"
            transform="translate(0.02 0)" />
    </g>
    <g id="car">
        <path class="cls-1"
            d="M24.9,106.7a19,19,0,0,1-11.3-3.6A19.25,19.25,0,0,1,9,76.2L8.9,76a4.28,4.28,0,0,1-2.2.6,5.8,5.8,0,0,1-2.9-.8,5.22,5.22,0,0,1-2.7-5c.1-2.3,1.5-4.9,4-7.1a30.4,30.4,0,0,1,10.7-6.1,9.83,9.83,0,0,1,.7-3.4c.5-.9,1.5-1.5,3.9-2.2,4.1-1.1,8.2-2.2,12.4-3l1.6-.4.7,1.5a16.76,16.76,0,0,0,3,4A11.79,11.79,0,0,0,46.6,58h.1c3.8,0,7.2-2.3,9.4-4.3a30.54,30.54,0,0,0,4-4.5l.6-1,1.1-.1a73.84,73.84,0,0,1,10.5.5l1-.1-.6-4.2-3.9-1a41.35,41.35,0,0,1-5.2-2,9.86,9.86,0,0,1-2.4-.3c-2.1-.4-3.3-1.1-3.9-2.1a4.32,4.32,0,0,1-.4-3.2,8,8,0,0,1,3.3-4c3-2.1,8-4,14.8-5.5,7.1-1.5,12.3-2.3,15.7-2.3A10.48,10.48,0,0,1,96,25a4.8,4.8,0,0,1,1.9,3.2,3.94,3.94,0,0,1-1.4,3.4,20.49,20.49,0,0,1-3.3,2.3,42.09,42.09,0,0,1-4.3,2L87.2,39a33.54,33.54,0,0,1-2.1,3.6l.8,4.6,1-.1,1.7,4.5c4.2,1.1,7,2.1,8.2,2.5a23.92,23.92,0,0,1,6.6-1.4l1.9-.1.3,1.8c0,.2.5,3.2.7,6a26.46,26.46,0,0,1,7.5,2.4,9.26,9.26,0,0,1,4.1,3.6,4.27,4.27,0,0,1,.4,3.6,3.2,3.2,0,0,1-2.9,1.7l.4,3.3,2.6.5,1.7.3v9.7l-1.1.2v1.4a20,20,0,0,1-4.4,12.4,19.46,19.46,0,0,1-27.3,2.6,19,19,0,0,1-6.4-10.2H68.2c-1.8,1.1-3.9,1.5-6.9,1.5a12.71,12.71,0,0,1-6.9-1.5H43.7a19.33,19.33,0,0,1-18.8,14.8Z"
            transform="translate(0.02 0)" />
        <path class="cls-1"
            d="M90.7,25c4.6,0,5.8,1.4,6.1,3.4C97.3,31.7,88,35,88,35l-1.8,3.6a21.56,21.56,0,0,1-2.3,3.8l1.1,6,.3-.1h.8l1.6,4.2a73.52,73.52,0,0,1,9,2.8,22.88,22.88,0,0,1,6.6-1.5l1-.1.2,1c0,.2.6,3.8.7,6.7l.4.1a26.91,26.91,0,0,1,7.7,2.4,8.2,8.2,0,0,1,3.6,3.2,2.92,2.92,0,0,1,.3,2.7,2.17,2.17,0,0,1-2.1,1.1,2,2,0,0,1-.8-.1h-.1l.7,5.4,3.4.5.9.2v7.9l-.8.2-.4.1a16.2,16.2,0,0,1,.1,2.2A18.28,18.28,0,0,1,81.9,91h-14c-1.7,1.1-3.6,1.5-6.6,1.5A12,12,0,0,1,54.6,91H42.8A18.29,18.29,0,1,1,10.3,76.3l-1-1.9a3.88,3.88,0,0,1-2.6,1.1,5,5,0,0,1-2.4-.7,3.82,3.82,0,0,1-2.1-4c.1-2,1.4-4.3,3.6-6.4a29.07,29.07,0,0,1,10.3-5.9l.8-.2a7,7,0,0,1,.5-3.7c.3-.5.9-1,3.2-1.7q6.15-1.65,12.3-3l.8-.1.4.7a21.29,21.29,0,0,0,3.2,4.3A12.91,12.91,0,0,0,46.5,59h.1c4.2,0,7.8-2.5,10.1-4.6a22.64,22.64,0,0,0,4.2-4.8l.3-.4.5-.1,2.1-.1a81.49,81.49,0,0,1,8.4.5v-.1l2.2-.2-.9-6L69,42a34,34,0,0,1-5.2-2S59,39.8,58,38.1c-.6-1-.8-3.2,2.6-5.7,2.5-1.8,6.9-3.6,14.5-5.3C82.6,25.7,87.5,25,90.7,25m-16,.2a64,64,0,0,0-9.4,2.7,24,24,0,0,0-5.8,3c-1.9,1.4-3.2,2.9-3.6,4.5a5.44,5.44,0,0,0,.4,4c.8,1.3,2.3,2.1,4.6,2.6a20,20,0,0,0,2.4.4,38.43,38.43,0,0,0,5.2,2l3.2.8.4,2.3a75.56,75.56,0,0,0-8.2-.5l-2.3.1-.5.1H60l-.5.9-.3.5a22.66,22.66,0,0,1-3.9,4.3c-2,1.8-5.1,4-8.6,4h-.1a10.9,10.9,0,0,1-7.7-3.6A20.55,20.55,0,0,1,36,49.5l-.4-.7-.7-1.5-1.6.4-.8.1c-4.2.9-8.4,1.9-12.5,3-2.3.8-3.7,1.4-4.4,2.7a6.32,6.32,0,0,0-.8,3.2A32.48,32.48,0,0,0,4.4,62.8a13.23,13.23,0,0,0-3,3.8A10,10,0,0,0,0,70.8a5.92,5.92,0,0,0,3.3,5.9,7.52,7.52,0,0,0,3.4.9h.2A20.43,20.43,0,1,0,44.4,93.2h9.7a13.08,13.08,0,0,0,4.8,1.5l2.4.1a18,18,0,0,0,4.3-.4,10.21,10.21,0,0,0,2.9-1.1H80.1a20.57,20.57,0,0,0,2.1,4.8,20.33,20.33,0,0,0,4.5,5.2,20.74,20.74,0,0,0,13,4.7,20.42,20.42,0,0,0,20.4-20.4v-.5l1.1-.2V75.1l-1.7-.3-.9-.2-1.8-.3-.2-1.5c.2-.1.4-.1.5-.2a3.76,3.76,0,0,0,2.1-2,4.78,4.78,0,0,0-.4-4.5,10.69,10.69,0,0,0-4.5-4.1,28.62,28.62,0,0,0-7-2.4,34.24,34.24,0,0,0-.7-5.2l-.1-1-.3-1.9-1.9.1h-1A34.65,34.65,0,0,0,96.7,53c-1.3-.5-3.8-1.3-7.4-2.3L88,47.4,87.7,46l-.8.1-.6-3.2a22.68,22.68,0,0,0,1.9-3.4l1.4-2.7A30,30,0,0,0,93.7,35a19,19,0,0,0,3.5-2.4,11,11,0,0,0,1.4-1.8,4.62,4.62,0,0,0,.4-2.6,5.61,5.61,0,0,0-2.4-3.9A10.76,10.76,0,0,0,90.7,23C87.1,22.9,81.9,23.7,74.7,25.2Z"
            transform="translate(0.02 0)" />
        <path class="cls-9"
            d="M6.3,74.4l-3-2.9a15.81,15.81,0,0,1,4.6-7.4c3.8-3.6,9.5-4.7,9.5-4.7l1.1-4.9,14.7-4S37,59.4,47,59.6s14.8-9.8,14.8-9.8l14.8.7,8.6-.7,1.3,3.8,9.8,3.3,6.9-2.1.7,7.3,8.6,2.6,4.1,3.3-.7,1.8-2.8.1.7,7.1,4.5.8-.2,6.1-2.6,1-2.1,5.2-45.3.2L61,91.5l-5.8-1.1L35,90.3l-17.5-.5c-.1,0-8.8-16.3-8.8-16.3Z"
            transform="translate(0.02 0)" />
        <path class="cls-10" d="M118.2,84l-4.8.6-.1-3.9h4.5Z" transform="translate(0.02 0)" />
        <path class="cls-10"
            d="M47.2,60.6c-6,.4-9.9-4.6-9.9-4.6s-3,.4-4.7.8l-5.1,1.3a45.53,45.53,0,0,1,5.5,1c3.4.8,7.7,4.1,12.7,8.8s8.6,9,16.1,9.8S76.5,70,76.5,70a96.48,96.48,0,0,1-11.4,2.4c-4.9.6-6-2.7-6.6-4.2s2.3-4.9,3.4-10.8.2-7,.2-7S53.2,60.2,47.2,60.6Z"
            transform="translate(0.02 0)" />
        <path class="cls-10"
            d="M39.3,70.3A35.43,35.43,0,0,1,46,79.8c2.1,4.5,5.5,10.8,14.4,11.4s13.4-8,15.7-10.4,11.5-8.1,9.1-8.2-7.3,3.3-10.4,6.3-8,8-15.3,7.7-11-10-16.3-16.4A12.83,12.83,0,0,0,30.3,66S37.7,68.9,39.3,70.3ZM4.7,67c-2.3,2.7-1.9,5.4.2,6.7s5-1,6.8-3.3,8.6-4.6,8.6-4.6-8.3,2-10.2.2c-1.6-1.6,2.7-4.6,2.7-4.6S6.9,64.4,4.7,67Zm86.5-5.4,1.3-2s3.6-.3,6.7-.2a16.47,16.47,0,0,1,4.5.6l.1,2.1ZM114.3,66c2.8,1.8,1.5,3.9,1.5,3.9L99.7,67.5a26.32,26.32,0,0,1,5.6-.4c2.3.2,5.7.1,5.9-.7s-1.2-2-1.2-2S111.5,64.2,114.3,66Z"
            transform="translate(0.02 0)" />
        <path class="cls-10"
            d="M56.6,77.1c3.3,1.5,8.5.7,8.5.7s8.1-4.3,5.2-1.5-10,6-15.3,3.3-4.2-5.4-4.2-5.4S53.3,75.6,56.6,77.1Z"
            transform="translate(0.02 0)" />
        <path class="cls-11"
            d="M113.1,89.7,69,89.5a144.63,144.63,0,0,1,11.9-13,30.92,30.92,0,0,1,16.6-8.3c6.9-1.3,15.3,1.5,15.3,1.5l.8,7.5ZM17.6,90,8.7,73.2a29.73,29.73,0,0,0,3.7-3.7c1.2-1.6,5.5-4.2,15.9-3.4s15.4,9.7,17.7,14,7.3,9.6,7.3,9.6Zm35-31.1a10,10,0,0,1-6.1,3.9,12.35,12.35,0,0,1-8-1.1,101.62,101.62,0,0,1,8.2,7.4c4.5,4.5,7.1,7.1,13.2,8.5s10.5-3.2,10.5-3.2a47.06,47.06,0,0,1-9.8-.2c-4-.7-4.8-3.2-4.9-5s2.9-5.4,4.5-9.6a19.11,19.11,0,0,0,1.4-7.3Z"
            transform="translate(0.02 0)" />
        <path class="cls-12"
            d="M78.2,55.1A104.11,104.11,0,0,1,92.4,59l-2.2,3.2-5.1,2.1L75,62.8a115.78,115.78,0,0,0-13.2-.9s.8-3.5,1.1-5.2a34.59,34.59,0,0,0,.4-3.6A118.33,118.33,0,0,1,78.2,55.1Zm20.1,1.5a40.72,40.72,0,0,0-4.2,1.9s3.8-.1,5.9,0,3.5.3,3.5.3l-.5-3.3C102.9,55.5,99.9,56.1,98.3,56.6ZM95,62.2a16.31,16.31,0,0,0-7.5,2,2.63,2.63,0,0,0-1.1,3.5c.7,1.3,3.6,1.4,5.3,1.4s5.5-1.7,9-1.7,5.7-1.3,5.8-2.6-2-2.1-2-2.1A67.64,67.64,0,0,0,95,62.2Zm-66.9-4c3.9.2,7.5,1.6,8.9,3.4s-1.3,2.3-2.4,2.4a61.11,61.11,0,0,1-6.7-.8A52.51,52.51,0,0,0,21,63c-2.4-.1-4.4-.5-4.8-1.8s2.5-2.1,2.5-2.1A48.35,48.35,0,0,1,28.1,58.2ZM34.8,54l-4.2.7c-3.2.5-7.6,1.1-8.3.7a1.64,1.64,0,0,1-.8-1.1l11.4-2.7"
            transform="translate(0.02 0)" />
        <path class="cls-13"
            d="M64.7,54.6a.93.93,0,0,0-.3,1.3l1.5,2,.8,1,.8.8a1.48,1.48,0,0,0,1.3.2c.5-.1.8-.7.9-1.1a3.91,3.91,0,0,0-.1-2.4l-.9,1.1h.5l.1.1c.2.1.3.1.5.2l1.1.8A4.18,4.18,0,0,0,73.5,60a1.28,1.28,0,0,0,1-.4c.2-.2.2-.5.3-.8L75,58l.1-.4.1-.2c0-.1-.7.4-.7.4s.1,0,.2.1l.2.1a1,1,0,0,1,.5.4l1,.7c.8.5,1.5,1,2.3,1.4a1,1,0,0,0,1-.4c0-.1,0-.1.1-.2h.1c0-.1.2-.2.1-.1a.35.35,0,0,0,.2-.1h.1a1.67,1.67,0,0,1,1.2.1,24.6,24.6,0,0,1,2.9.7.92.92,0,0,0,1.1-.7.8.8,0,0,0-.6-1.1,15.53,15.53,0,0,0-3.6-.8,2.7,2.7,0,0,0-3.1,1.3l1-.4c-.1-.1-.2-.1-.4-.2a14.8,14.8,0,0,0-1.3-.8l-1.6-1.1c-.7-.4-1.7-1-2.3-.1a5.64,5.64,0,0,0-.4,1.2l-.1.5-.1.2v0l.3-.3c.1,0,.2-.1.3-.1h-.1c-.1-.1-.2-.1-.3-.2l-.3-.1-.1-.1-.1-.1-1.1-.9a3.65,3.65,0,0,0-3-1.1c-.5,0-1.1.5-.8,1.1a2.25,2.25,0,0,1,.1,1.4c0,.1,0,.1-.1.2v.1a.62.62,0,0,1,.7-.2h0a1.47,1.47,0,0,1-.5-.6c-.8-.9-1.5-1.8-2.2-2.7A.73.73,0,0,0,64.7,54.6Zm25,9.7h0a.92.92,0,0,0,.7,1.1l2.9.8a1.15,1.15,0,0,0,1-.1,1.23,1.23,0,0,0,.5-1l-.4-1.5-.7,1.1a4.62,4.62,0,0,1,2.3-.2,20,20,0,0,0,2.4.4c.6-.1,1.2-.4,1.1-1.1v-.2c-.1-.2-.1-.1-.2.3-.3.3-.4.4-.2.4H99l.6.1a19.67,19.67,0,0,1,2.4.3.92.92,0,0,0,1.1-.7.91.91,0,0,0-.6-1.1,28.86,28.86,0,0,0-2.9-.4,2.25,2.25,0,0,0-1.4.1c-.3.1-.4.4-.5.7v.4l.1.2.1-.5.1.1.3-.4c.2-.1.3,0,.1-.1s-.5-.1-.8-.1l-1.3-.2a7,7,0,0,0-2.9.3,1,1,0,0,0-.7,1.1l.2.7.1.3.1.2v-.2l.2-.4-.1.1.4-.2c.3,0,.4,0,.2-.1l-.2-.1-.4-.1-.8-.2-1.5-.4A1.07,1.07,0,0,0,89.7,64.3ZM21.4,59.2a.8.8,0,0,0,.6,1.1,20.82,20.82,0,0,1,3.2,1.2,1,1,0,0,0,1.4-.8v-.5l.1-.2c-.1-.2,0,0-.1.1l-.4.3h.5a.9.9,0,0,1,.5.1,4.87,4.87,0,0,1,1.1.4A13.61,13.61,0,0,0,30.8,62a.89.89,0,0,0,.8-1.5c.4.5.1.7-.2.9l.1-.1h.1a.6.6,0,0,1,.4.1c.4.1.8.2,1.1.3.6.2,1.3.7,2,1h0a.84.84,0,0,0,1.2-.3,1,1,0,0,0-.4-1.3,9.68,9.68,0,0,0-3.3-1.4,2.32,2.32,0,0,0-2,.1c-.1.1-.2.1-.3.2a1.27,1.27,0,0,0,0,1.8l.8-1.5C30,60,29,59.2,27.7,58.9a3.75,3.75,0,0,0-2.1,0,1,1,0,0,0-.8,1.1l-.1,1,1.3-.8c-1.2-.5-2.4-1-3.6-1.4C22,58.4,21.5,58.7,21.4,59.2Z"
            transform="translate(0.02 0)" />
        <path class="cls-14"
            d="M59.6,35.8c.9,1.8,4,2,9.8-.4s6.6-3.1,11-3.5l7.6-.6s-7.1,2-11.4,3.4c-.6.9-2.1,3-3.6,3.2a5.49,5.49,0,0,1-3.5-.8,18.15,18.15,0,0,0-3,1.1c-.7.4-1.6,1.3-2.7,1.9a25.13,25.13,0,0,0,5.2,2l4.5,1.2,1,6.9L85.1,49,84,42.4a21.56,21.56,0,0,0,2.3-3.8L88.1,35s9.3-3.2,8.8-6.6-3.5-5.1-21.6-1.1c-7.6,1.7-12,3.5-14.5,5.3C60,33.6,59.1,34.9,59.6,35.8Z"
            transform="translate(0.02 0)" />
        <path class="cls-15"
            d="M63.9,40.2a28.87,28.87,0,0,0,2.7-1.9c1.1-.7,5-1.7,7.5-2.7S88,31.3,88,31.3l-7.6.7c-4.3.4-5.1,1.2-11,3.5s-8.9,2.1-9.8.4c-.5-1,.3-2.3,1.1-3.3-3.5,2.5-3.2,4.7-2.6,5.7C59.1,40,63.8,40.2,63.9,40.2ZM74.7,50.4l-1-6.9a7.74,7.74,0,0,1,1.6-.7,8.94,8.94,0,0,1,2.2-.3l1.3,8Z"
            transform="translate(0.02 0)" />
        <path class="cls-15"
            d="M64.9,38.6l3.5-1.5a5.8,5.8,0,0,0,1.2.8,9.81,9.81,0,0,0,4.3.7c1.9-.2,2.7-1.2,4-2.4a7.71,7.71,0,0,0,1.7-2.7l2.9-.8a26,26,0,0,1-2.4,4.5c-1.2,1.6-2.7,2.4-3,3.2a1.71,1.71,0,0,0-.2,1.3l-1.8.3a2.81,2.81,0,0,0-1.6.8l-4.9-1.2a22,22,0,0,1-4.3-1.7Z"
            transform="translate(0.02 0)" />
        <path class="cls-16"
            d="M84.6,49.4l-1.1-6.8a7.91,7.91,0,0,0-2.7-.4,7.13,7.13,0,0,0-2.2.2l1.2,7.2Zm1.7-16.3a1.3,1.3,0,0,0-1.7.6l-2.1,3.5a20.05,20.05,0,0,1-3.7,3.9,12.19,12.19,0,0,1,2.7,0,7.23,7.23,0,0,1,2,.5L87.1,35A1.44,1.44,0,0,0,86.3,33.1ZM93,30.6c-2,.7-4.3.3-6.6.2a75.27,75.27,0,0,0-12.9,1.6c-3.5.8-8.4,3-8.9,2s2.7-3,6.3-4.3a55.26,55.26,0,0,1,14.7-3.7c6.8-.7,9.9.5,9.9,1.8C95.5,29.7,95,30,93,30.6Z"
            transform="translate(0.02 0)" />
        <path class="cls-13"
            d="M80.6,43a1,1,0,0,0-.3,1.3,16.59,16.59,0,0,1,1.2,3.1l.9-1.1h-.2A.86.86,0,0,0,81,47.5a5.64,5.64,0,0,1,.4,1.2,1,1,0,0,0,1.1.7c.5-.1.7-.7.7-1.1a4.42,4.42,0,0,0-.6-1.6l-1.2,1.2a2,2,0,0,0,1.1.3h.2a.8.8,0,0,0,.6-1.1,17.83,17.83,0,0,0-1.4-3.6C81.6,42.8,81,42.7,80.6,43Zm3.3-16.1a.9.9,0,0,0-.9.9c-.1.5.4.9.9.9h.4c-.2,0,.1.1.1.1a.37.37,0,0,1,.3.1l.2.1,1.1.6,1.3.5a1.23,1.23,0,0,0,1.6-.8c0-.1,0-.2.1-.2,0-.2,0-.1-.1,0H89a.1.1,0,0,0,.1-.1H89a3.18,3.18,0,0,1,1.4-.2,5,5,0,0,1,1.2.2,6.94,6.94,0,0,1,1.3.5,1,1,0,0,0,1.3-.4.87.87,0,0,0-.4-1.2,11.76,11.76,0,0,0-3-1,4.21,4.21,0,0,0-2.9.7,1.79,1.79,0,0,0-.5.7c0,.1,0,.2-.1.2-.1.4.1.2.7-.3l-.1-.1-.7-.1-.6-.3a6.49,6.49,0,0,0-2.7-.8Z"
            transform="translate(0.02 0)" />
        <path class="cls-17" d="M11.6,77.6,9.3,73.5" transform="translate(0.02 0)" />
        <path class="cls-18"
            d="M47.8,83c-3.5-6.4-5.7-11.8-14.4-15.3s-15.3-1.3-20,1.7-4.9,6.3-8.7,4.4-.8-9.7,11.8-14.2,21.7,1.5,26.2,5.1,9,13,18.4,13.2,10.8-5,20-11.1,15.3-5.9,24.4-4.3,11.6,5.1,10.9,6.9-11.1-2.6-19.2-1.6S79.5,77,73.8,83.4s-6.2,8.6-14.7,8C59.2,91.4,53.3,91.2,47.8,83Z"
            transform="translate(0.02 0)" />
        <path class="cls-17"
            d="M18,59.1s-.4-2.6.4-3.9S33.1,51,33.1,51s4.5,9,13.4,9.1,15.3-9.8,15.3-9.8a77.85,77.85,0,0,1,17.8,1.5,91.14,91.14,0,0,1,17,4.6m-6.7,5.9s2.7-4.2,6.7-5.7a27.08,27.08,0,0,1,6.9-1.7,47.12,47.12,0,0,1,.7,7.5m8.7,22.4A50.72,50.72,0,0,0,118,84V77.9s-2.8-.5-5.5-.7"
            transform="translate(0.02 0)" />
        <path class="cls-17" d="M113.9,77l-.9-7M35.6,90h19m13.3,0H85" transform="translate(0.02 0)" />
        <path class="cls-18" d="M72.5,50.7l7.8-.8c2.7-.4,5.2-.5,5.2-.5l1.6,4.2" transform="translate(0.02 0)" />
        <circle class="cls-19" cx="24.92" cy="87.3" r="18.3" />
        <circle class="cls-19" cx="99.72" cy="87.3" r="18.3" />
        <path class="cls-20"
            d="M14,87.3h0A10.9,10.9,0,0,0,24.8,98.2M11.3,93a14.75,14.75,0,0,0,8,7.9m20-16.7A14.55,14.55,0,0,0,27.9,72.9"
            transform="translate(0.02 0)" />
        <path class="cls-21"
            d="M16,87.5a6.88,6.88,0,0,0,.2,1.3,4.82,4.82,0,0,1,6.5.5,4.72,4.72,0,0,1,.5,6.5c.4.1.8.1,1.3.2a5.86,5.86,0,0,0-1-7.4A6,6,0,0,0,16,87.5Z"
            transform="translate(0.02 0)" />
        <path class="cls-22" d="M23.2,95.7a4.72,4.72,0,0,0-.5-6.5,4.82,4.82,0,0,0-6.5-.5A9,9,0,0,0,23.2,95.7Z"
            transform="translate(0.02 0)" />
        <path class="cls-21"
            d="M29.2,79.1l-1.5-.6.1.3A4.68,4.68,0,0,1,24,84.3a4.74,4.74,0,0,1-5.8-3.2c-.3.4-.6.9-.9,1.4a6.15,6.15,0,0,0,7,3A6.21,6.21,0,0,0,29.2,79.1Z"
            transform="translate(0.02 0)" />
        <path class="cls-22"
            d="M18.7,80.7l-.5.5A4.74,4.74,0,0,0,24,84.4a4.86,4.86,0,0,0,3.8-5.5l-.1-.3A8.76,8.76,0,0,0,18.7,80.7Z"
            transform="translate(0.02 0)" />
        <path class="cls-21"
            d="M33.4,84.3a6.12,6.12,0,0,0-.5-1.2,5.92,5.92,0,0,0-5.8,4.5,6,6,0,0,0,2.6,6.9,7.63,7.63,0,0,0,1.1-.8,4.75,4.75,0,0,1-2.7-5.8A4.68,4.68,0,0,1,33.4,84.3Z"
            transform="translate(0.02 0)" />
        <path class="cls-22" d="M30.8,93.7l.5-.5a8.81,8.81,0,0,0,2.1-9,5,5,0,0,0-2.6,9.5Z"
            transform="translate(0.02 0)" />
        <circle class="cls-23" cx="24.82" cy="87.4" r="11.9" />
        <circle class="cls-19" cx="100.02" cy="87.3" r="16.9" />
        <path class="cls-20"
            d="M89.1,87.3h0A10.9,10.9,0,0,0,99.9,98.2M86.4,93a14.75,14.75,0,0,0,8,7.9m20-16.7A14.55,14.55,0,0,0,103,72.9"
            transform="translate(0.02 0)" />
        <path class="cls-21"
            d="M105.9,80.7c-.3-.3-.7-.5-1-.8a4.94,4.94,0,0,1-9.8,0,3.92,3.92,0,0,0-1,.8,5.9,5.9,0,0,0,6,4.5A5.75,5.75,0,0,0,105.9,80.7Z"
            transform="translate(0.02 0)" />
        <path class="cls-22" d="M95,79.9a4.94,4.94,0,0,0,9.8,0A8.75,8.75,0,0,0,95,79.9Z"
            transform="translate(0.02 0)" />
        <path class="cls-21"
            d="M102.5,95.8a4,4,0,0,0,1.5-.6l-.3-.1a4.81,4.81,0,0,1-1.3-6.6,4.76,4.76,0,0,1,6.3-2,4.53,4.53,0,0,0-.3-1.6,6.38,6.38,0,0,0-5.9,10.9Z"
            transform="translate(0.02 0)" />
        <path class="cls-22"
            d="M108.8,87.3v-.7a4.72,4.72,0,0,0-6.3,1.9,4.81,4.81,0,0,0,1.3,6.6l.3.2A9.17,9.17,0,0,0,108.8,87.3Z"
            transform="translate(0.02 0)" />
        <path class="cls-21"
            d="M95.9,95.2a6.12,6.12,0,0,0,1.2.5,6.13,6.13,0,0,0,1-7.3,5.84,5.84,0,0,0-6.8-3,5.07,5.07,0,0,0-.2,1.3,4.68,4.68,0,0,1,6,2.3A4.73,4.73,0,0,1,95.9,95.2Z"
            transform="translate(0.02 0)" />
        <path class="cls-22" d="M91.1,86.6v.7a9,9,0,0,0,4.8,7.9,4.86,4.86,0,0,0,1.2-6.3A4.81,4.81,0,0,0,91.1,86.6Z"
            transform="translate(0.02 0)" />
        <circle class="cls-23" cx="99.92" cy="87.4" r="11.9" />
    </g>
    <g id="text"><text class="cls-24" transform="matrix(1, -0.16, 0, 1, 15.88, 90.72)">DICH</text><text class="cls-25"
            transform="matrix(1, -0.16, 0, 1, 14.14, 90.07)">DICH</text><text class="cls-27"
            transform="matrix(0.99, -0.17, 0, 1, 17.3, 121.29)">WV</text><text class="cls-28"
            transform="matrix(0.99, -0.17, 0, 1, 14.53, 119.31)">WV</text></g>
</svg>