<svg id="deichwave-logo" data-name="Ebene 1" xmlns="http://www.w3.org/2000/svg" width="128px" height="128px"
    viewBox="0 0 2589.2 2551.1">
    <defs>
        <style>
            .cls-1 {
                fill: #45206a
            }

            .cls-3,
            .cls-30 {
                isolation: isolate
            }

            .cls-3 {
                opacity: .4
            }

            .cls-4 {
                fill: #78e3f4
            }

            .cls-7 {
                fill: #28add1
            }

            .cls-8 {
                fill: #4ec8e5
            }

            .cls-10 {
                fill: #9b1954
            }

            .cls-13 {
                fill: #fff
            }

            .cls-15 {
                fill: #737373
            }

            .cls-17,
            .cls-18,
            .cls-20,
            .cls-23 {
                fill: none;
                stroke-miterlimit: 10
            }

            .cls-17,
            .cls-18 {
                stroke: #421731
            }

            .cls-17,
            .cls-20 {
                stroke-linecap: round
            }

            .cls-17,
            .cls-18,
            .cls-20 {
                stroke-width: 36px
            }

            .cls-19 {
                fill: #383d3c
            }

            .cls-20 {
                stroke: #7e8483
            }

            .cls-21 {
                fill: #7e8483
            }

            .cls-22 {
                fill: #1f2624
            }

            .cls-23 {
                stroke: #fff;
                stroke-width: 24px
            }

            .cls-30 {
                font-weight: 700
            }

            .cls-25 {
                letter-spacing: -.04em
            }

            .cls-26 {
                letter-spacing: -.08em
            }

            .cls-27 {
                letter-spacing: -.04em
            }

            .cls-30 {
                fill: #f8e969;
                font-size: 759.24px;
                font-family: CenturyGothic-Bold, Century Gothic;
                letter-spacing: -.02em
            }
        </style>
    </defs>
    <g id="bg_outline" data-name="bg outline">
        <path class="cls-1"
            d="M1417 2638c-165 0-325-32-475-96a1223 1223 0 0 1-388-261 1223 1223 0 0 1-262-388 1213 1213 0 0 1 0-951 1223 1223 0 0 1 262-388 1223 1223 0 0 1 388-262c151-64 311-96 475-96a1226 1226 0 0 1 279 32 1209 1209 0 0 1 179 57 24 24 0 0 1-5-15 25 25 0 0 1 0-6 26 26 0 0 1-2-47h1a81 81 0 0 1 34-9 26 26 0 0 1 5-8 27 27 0 0 1 20-9h1c21 1 37 19 48 31l1 3a232 232 0 0 1 30 44 417 417 0 0 1 23 53 52 52 0 0 1 10 24 36 36 0 0 1 0 9l3 13v1l23 14 11-17 4-6c18-25 36-50 58-73a294 294 0 0 1 56-48 77 77 0 0 1 14-6 53 53 0 0 0 6-3 22 22 0 0 1 10-2 23 23 0 0 1 22 16 22 22 0 0 1 1 7l3 2a21 21 0 0 1 4 29c-7 9-16 14-25 18a21 21 0 0 1 1 6 23 23 0 0 1-12 19 47 47 0 0 1-7 3 24 24 0 0 1 1 9l-1 1c46-27 107-54 169-54a193 193 0 0 1 69 12 22 22 0 0 1 18 20 23 23 0 0 1-17 24l2 2h1a26 26 0 0 1 2 28 27 27 0 0 1-24 14 18 18 0 0 1-2 0 137 137 0 0 1-19-3l-1 1a26 26 0 0 1-14 12 26 26 0 0 1 2 16 23 23 0 0 1-23 18 27 27 0 0 1-6-1l-6-1v1a25 25 0 0 1-24 19h-2c13 8 21 23 27 34l1 2a199 199 0 0 1 16 43 354 354 0 0 1 8 47 47 47 0 0 1 3 23 32 32 0 0 1-1 7v35l23-21 5-4a560 560 0 0 1 99-70l19-7a68 68 0 0 1 12-2 43 43 0 0 0 6-1 21 21 0 0 1 5-1 22 22 0 0 1 21 18 22 22 0 0 1 1 8v1l1 1a20 20 0 0 1-3 28c-7 6-16 8-23 10a23 23 0 0 1-1 3 22 22 0 0 1-15 16 44 44 0 0 1-4 1 5 5 0 0 1-1 1c34-10 66-15 95-15 41 0 76 10 105 29a21 21 0 0 1 12 22 23 23 0 0 1-17 19 24 24 0 0 1-2 23 25 25 0 0 1-21 11 23 23 0 0 1-8-1 130 130 0 0 1-14-6 25 25 0 0 1-11 6 26 26 0 0 1-2 10 22 22 0 0 1-21 15 22 22 0 0 1-10-2l-1-1h-1a24 24 0 0 1-21 11 26 26 0 0 1-12-3l-1-1-1 1a22 22 0 0 1-21 15 26 26 0 0 1-4 0l-3-1a50 50 0 0 1-15-2l-10-3a24 24 0 0 1-21 12h-1a26 26 0 0 1-23 16l-4 1-17-1a24 24 0 0 1-3 6 25 25 0 0 1-10 9 233 233 0 0 1 48 81 374 374 0 0 1 17 65 1213 1213 0 0 1 3 959 1223 1223 0 0 1-261 388 1223 1223 0 0 1-388 262c-151 63-311 95-476 95Zm819-2127 38 36a22 22 0 0 1 0-13 21 21 0 0 1 3-7 81 81 0 0 1-9-9 23 23 0 0 1-5-20 13 13 0 0 1 1-3 27 27 0 0 1-6-8 23 23 0 0 1-9 4h-3v1a27 27 0 0 1-10 19Z"
            transform="translate(-178 -173)" />
        <path class="cls-1"
            d="M1928 209c14 1 28 18 37 27a209 209 0 0 1 27 41 387 387 0 0 1 22 54 34 34 0 0 1 9 17 17 17 0 0 1-1 8l5 17 2 8 43 26 21-30c18-27 37-54 60-78a288 288 0 0 1 53-45l18-8a4 4 0 0 1 2-1c4 0 7 6 3 9l-12 11a42 42 0 0 1 11-1 21 21 0 0 1 13 3 3 3 0 0 1 0 4c-5 8-17 12-25 16-5 3-9 8-13 12a36 36 0 0 1 9 3c3 2 2 6-1 7-9 5-21 6-30 9l-11 5h1a45 45 0 0 1 21 5c5 3 5 10-1 11-11 3-23 3-34 7l-6 2a63 63 0 0 1 8 0 72 72 0 0 1 22 3c4 2 2 7-2 8-12 3-25 6-37 11a97 97 0 0 1 17 2c8 2 11 12 3 15l-33 11a71 71 0 0 0-9 5 66 66 0 0 1 18-3 40 40 0 0 1 13 2 3 3 0 0 1 2 1 5 5 0 0 1 1-1 474 474 0 0 1 49-36c51-34 116-64 179-64a175 175 0 0 1 65 12c6 0 5 8 0 9l-40 6c13 6 25 14 33 24 5 6 0 13-7 13-15-1-30-5-44-9a23 23 0 0 1 7 10c1 5-1 9-6 10a19 19 0 0 1-5 0c-8 0-18-4-25-6a204 204 0 0 0-30-8l-32-4-5 2a255 255 0 0 1 41 13c16 6 29 15 44 23 5 3 4 13-2 13a10 10 0 0 1-2-1c-14-3-28-4-42-8a458 458 0 0 0-45-10l-21-3a13 13 0 0 1 3 1c26 6 50 14 74 26 7 4 4 13-3 13a8 8 0 0 1-3 0 424 424 0 0 0-56-12 44 44 0 0 1 12 10 4 4 0 0 1-1 6 59 59 0 0 1 7 3l6 5c5 2 5 11-2 11-5 1-10 3-16 3a15 15 0 0 1-3 0l-20-1-47-4-26-1a102 102 0 0 0-15 1c24 2 47 4 71 11 6 3 4 12-2 13a227 227 0 0 1-41 5 93 93 0 0 1 19 6c8 3 5 13-2 15a194 194 0 0 1-21 4 1206 1206 0 0 1 105 102l21 12a132 132 0 0 0-18-27l-16-17c-2-3 0-7 3-8a36 36 0 0 1 5 0 49 49 0 0 1 22 6c-9-10-18-19-29-27-5-3-1-9 4-9h1a112 112 0 0 1 19 1l-4-4c-10-9-23-15-31-26-3-2-2-7 2-8a32 32 0 0 1 12-2 57 57 0 0 1 6 0l-24-14c-6-3-6-11 1-12a48 48 0 0 1 11-2 66 66 0 0 1 29 7 22 22 0 0 1-2-9 6 6 0 0 1 6-6 10 10 0 0 1 3 0c11 3 19 20 24 30a177 177 0 0 1 14 39 327 327 0 0 1 8 48 29 29 0 0 1 3 16 14 14 0 0 1-2 6l1 15-2 69a543 543 0 0 1 55-53c20-18 41-37 64-52a239 239 0 0 1 52-26c6-2 12-1 17-3a3 3 0 0 1 1 0c4 0 5 6 2 8-5 1-8 4-12 6h1c7 0 14 2 18 7a2 2 0 0 1-1 3c-6 5-16 6-24 8l-13 7a28 28 0 0 1 7 5c2 2 0 5-2 5a35 35 0 0 1-10 1h-17l-10 2a37 37 0 0 1 18 9c3 3 2 9-3 9h-1l-24-2h-5l-5 1a60 60 0 0 1 24 8c3 2 0 7-3 7-11 0-22 0-33 2a83 83 0 0 1 14 4c6 3 6 12-1 13-10 1-20 1-29 3a72 72 0 0 0-8 2h3c8 0 16 1 22 5a2 2 0 0 1 1 1 4 4 0 0 1 2 0 408 408 0 0 1 47-20c34-13 74-22 113-22 34 0 68 7 96 27 6 2 3 8-1 8h-1l-33-3c9 7 17 16 22 26 2 5-2 10-6 10a7 7 0 0 1-3-1c-11-3-22-10-33-16a19 19 0 0 1 3 10c1 4-2 7-6 7-9 0-17-7-24-12a164 164 0 0 0-23-12l-25-9-4 1a220 220 0 0 1 31 18l30 28c4 3 2 10-2 10a5 5 0 0 1-3-1c-10-5-22-9-32-15a385 385 0 0 0-35-17l-17-7a10 10 0 0 1 2 2c20 9 39 21 55 35 5 5 2 11-3 11a7 7 0 0 1-4-1 349 349 0 0 0-44-21 37 37 0 0 1 8 11c1 2 0 4-2 4a48 48 0 0 1 5 4l5 6c3 2 2 9-3 9a4 4 0 0 1-1 0c-5-1-10 0-16-2l-17-5c-12-4-24-9-37-12-11-4-22-8-34-9 19 7 38 13 56 24 5 3 1 10-4 10a196 196 0 0 1-34-4 75 75 0 0 1 14 8c6 5 2 12-5 12h-3c-15 0-29-2-43-4a36 36 0 0 1 8 11c2 6-1 10-7 10a40 40 0 0 1-7-1l2 4c2 4-1 10-6 10a5 5 0 0 1-1 0l-6-1c28 24 49 55 61 90a360 360 0 0 1 16 65 1203 1203 0 1 1-577-603 61 61 0 0 1 11 2c-13-9-27-17-41-23-6-2-4-10 2-12a131 131 0 0 1 24-4 61 61 0 0 0-6-3c-14-8-31-12-44-21-3-3-3-8 0-11a42 42 0 0 1 21-7l-32-9c-8-2-9-11-2-15a64 64 0 0 1 29-7 85 85 0 0 1 18 2 26 26 0 0 1-5-11c0-5 4-8 9-8m184 226a49 49 0 0 1 5-1l14-13-21 9-3 1 5 4m294 250c8-2 16-4 24-4a38 38 0 0 1 6 1l13-8a170 170 0 0 0-19 3l-24 8m-478-512a44 44 0 0 0-34 15l-2 3a95 95 0 0 0-32 10 44 44 0 0 0-23 45 43 43 0 0 0 1 5 1239 1239 0 1 0 718 678 397 397 0 0 0-17-67 253 253 0 0 0-38-71h7a44 44 0 0 0 34-18 42 42 0 0 0 16-8 64 64 0 0 0 19 3h2a42 42 0 0 0 6 1 40 40 0 0 0 25-9 34 34 0 0 0 4-3 38 38 0 0 0 6 0 41 41 0 0 0 25-9 44 44 0 0 0 7 1 40 40 0 0 0 38-27l1-1 4 2a42 42 0 0 0 13 2 43 43 0 0 0 37-20 42 42 0 0 0 7-22 40 40 0 0 0 15-27 39 39 0 0 0-21-39c-32-22-70-32-114-32a287 287 0 0 0-29 1 38 38 0 0 0-3-34 46 46 0 0 0 0-7 40 40 0 0 0-39-32 38 38 0 0 0-10 1l-3 1a89 89 0 0 0-16 3h-1a255 255 0 0 0-60 30c-22 14-41 31-60 48a65 65 0 0 0-4-28 359 359 0 0 0-8-48 216 216 0 0 0-17-47h-1l-1-2a164 164 0 0 0-11-19 44 44 0 0 0 6-7 41 41 0 0 0 28-10 42 42 0 0 0 13-21 43 43 0 0 0 1-12l2-1a125 125 0 0 0 14 1 45 45 0 0 0 40-25 44 44 0 0 0 3-31 41 41 0 0 0 11-31 40 40 0 0 0-31-36 212 212 0 0 0-74-13 298 298 0 0 0-109 22 39 39 0 0 0-8-47l-1-3a40 40 0 0 0-57-24l-4 2a91 91 0 0 0-16 7h-1v1a263 263 0 0 0-60 50c-22 24-41 50-59 76l-4 6-2 2-1-1-1-4a58 58 0 0 0-1-10 70 70 0 0 0-12-30 443 443 0 0 0-22-52 244 244 0 0 0-32-48h-1v-1l-1-1c-12-14-32-37-60-38a5 5 0 0 1-2 0Z"
            transform="translate(-178 -173)" />
    </g>
    <g id="bg">
        <circle cx="1239.3" cy="1244.6" r="1203.1" style="fill:#2a0f46" />
        <circle cx="1239.3" cy="1244.6" r="1203.1" />
        <path d="M231 1622v-1Zm172 443a1 1 0 0 1 0-1m-69-116h3l-1-2Z" transform="translate(-178 -173)" />
        <path class="cls-3" d="M1430 2615h-20v-1h-118a1221 1221 0 0 0 251 0h-113Z" transform="translate(-178 -173)" />
        <path d="M403 2064a1 1 0 0 1 0 1v-1Z" transform="translate(-178 -173)" />
        <path class="cls-3" d="M403 2064a1 1 0 0 1 0 1v-1Z" transform="translate(-178 -173)" />
        <path d="M605 2064H429l-14 19q25 38 53 74h81Z" transform="translate(-178 -173)" />
        <path class="cls-3" d="M605 2064H429l-14 19q25 38 53 74h81Z" transform="translate(-178 -173)" />
        <path d="m484 2177 31 36 22-36Z" transform="translate(-178 -173)" />
        <path class="cls-3" d="m484 2177 31 36 22-36Z" transform="translate(-178 -173)" />
        <path d="M309 1885c5 14 12 28 18 41l37-41Z" transform="translate(-178 -173)" />
        <path class="cls-3" d="M309 1885c5 14 12 28 18 41l37-41Z" transform="translate(-178 -173)" />
        <path d="M393 1692H278l-27 23 4 14h99Z" transform="translate(-178 -173)" />
        <path class="cls-3" d="M393 1692H278l-27 23 4 14h99Z" transform="translate(-178 -173)" />
        <path d="M333 1749h-72l13 44h13Z" transform="translate(-178 -173)" />
        <path class="cls-3" d="M333 1749h-72l13 44h13Z" transform="translate(-178 -173)" />
        <path d="M539 1885H391l-55 61 1 2h154Z" transform="translate(-178 -173)" />
        <path class="cls-3" d="M539 1885H391l-55 61 1 2h154Z" transform="translate(-178 -173)" />
        <path d="M476 1968H348q20 39 42 77h28Z" transform="translate(-178 -173)" />
        <path class="cls-3" d="M476 1968H348q20 39 42 77h28Z" transform="translate(-178 -173)" />
        <path d="M756 2177H561l-32 52q29 31 60 61h115Z" transform="translate(-178 -173)" />
        <path class="cls-3" d="M756 2177H561l-32 52q29 31 60 61h115Z" transform="translate(-178 -173)" />
        <path d="m1961 2491 38-20h-44Z" transform="translate(-178 -173)" />
        <path class="cls-3" d="m1961 2491 38-20h-44Z" transform="translate(-178 -173)" />
        <path d="m1907 2310 42 141h85a1200 1200 0 0 0 117-80l-28-61Z" transform="translate(-178 -173)" />
        <path class="cls-3" d="m1907 2310 42 141h85a1200 1200 0 0 0 117-80l-28-61Z" transform="translate(-178 -173)" />
        <path d="M2167 2358c20-15 38-31 57-48h-79Z" transform="translate(-178 -173)" />
        <path class="cls-3" d="M2167 2358c20-15 38-31 57-48h-79Z" transform="translate(-178 -173)" />
        <path d="M246 1692v1l1-1Z" transform="translate(-178 -173)" />
        <path class="cls-3" d="M246 1692v1l1-1Z" transform="translate(-178 -173)" />
        <path d="m1692 2471 17 114a1197 1197 0 0 0 234-85l-9-29Z" transform="translate(-178 -173)" />
        <path class="cls-3" d="m1692 2471 17 114a1197 1197 0 0 0 234-85l-9-29Z" transform="translate(-178 -173)" />
        <path d="m611 2310 61 52 23-52Z" transform="translate(-178 -173)" />
        <path class="cls-3" d="m611 2310 61 52 23-52Z" transform="translate(-178 -173)" />
        <path d="m906 2471-10 31a1198 1198 0 0 0 234 84l18-115Z" transform="translate(-178 -173)" />
        <path class="cls-3" d="m906 2471-10 31a1198 1198 0 0 0 234 84l18-115Z" transform="translate(-178 -173)" />
        <path d="M934 2310H717l-29 64a1216 1216 0 0 0 113 77h90Z" transform="translate(-178 -173)" />
        <path class="cls-3" d="M934 2310H717l-29 64a1216 1216 0 0 0 113 77h90Z" transform="translate(-178 -173)" />
        <path d="m836 2471 42 22 7-22Z" transform="translate(-178 -173)" />
        <path class="cls-3" d="m836 2471 42 22 7-22Z" transform="translate(-178 -173)" />
        <path d="M430 1813H295l-11 10 16 42h82Z" transform="translate(-178 -173)" />
        <path class="cls-3" d="M430 1813H295l-11 10 16 42h82Z" transform="translate(-178 -173)" />
        <path d="M1000 1403h106l4-27H996l11 3-7 24z" />
        <path class="cls-3" d="M1000 1403h106l4-27H996l11 3-7 24z" />
        <path d="m1615 1403-10-22 9-5h-113l8 27h106z" />
        <path class="cls-3" d="m1615 1403-10-22 9-5h-113l8 27h106z" />
        <path d="m1741 1403-13-21 10-6h-113l12 27h104z" />
        <path class="cls-3" d="m1741 1403-13-21 10-6h-113l12 27h104z" />
        <path d="m1488 1403-7-24 10-3h-114l4 27h107z" />
        <path class="cls-3" d="m1488 1403-7-24 10-3h-114l4 27h107z" />
        <path d="M1127 1403h107v-26h20v26h107l-4-25 12-2h-250l11 2-3 25z" />
        <path class="cls-3" d="M1127 1403h107v-26h20v26h107l-4-25 12-2h-250l11 2-3 25z" />
        <path d="m1868 1403-16-20 9-7h-112l16 27h103z" />
        <path class="cls-3" d="m1868 1403-16-20 9-7h-112l16 27h103z" />
        <path d="m2373 1403-25-18 6-9h-108l32 27h95z" />
        <path class="cls-3" d="m2373 1403-25-18 6-9h-108l32 27h95z" />
        <path d="m2247 1403-23-19 7-8h-110l29 27h97z" />
        <path class="cls-3" d="m2247 1403-23-19 7-8h-110l29 27h97z" />
        <path d="m2121 1403-21-19 7-8h-110l24 27h100z" />
        <path class="cls-3" d="m2121 1403-21-19 7-8h-110l24 27h100z" />
        <path d="m1994 1403-18-20 8-7h-111l20 27h101z" />
        <path class="cls-3" d="m1994 1403-18-20 8-7h-111l20 27h101z" />
        <path d="M367 1403h99l25-27H380l7 8-20 19z" />
        <path class="cls-3" d="M367 1403h99l25-27H380l7 8-20 19z" />
        <path d="M115 1403h94l33-27H134l6 9-25 18z" />
        <path class="cls-3" d="M115 1403h94l33-27H134l6 9-25 18z" />
        <path d="m227 1596 1 3 4-3Z" transform="translate(-178 -173)" />
        <path class="cls-3" d="m227 1596 1 3 4-3Z" transform="translate(-178 -173)" />
        <path d="M363 1596h-98l-34 25 1 1h100Z" transform="translate(-178 -173)" />
        <path class="cls-3" d="M363 1596h-98l-34 25 1 1h100Z" transform="translate(-178 -173)" />
        <path d="M873 1403h106l8-27H873l10 5-10 22z" />
        <path class="cls-3" d="M873 1403h106l8-27H873l10 5-10 22z" />
        <path d="M241 1403h97l28-27H257l7 8-23 19z" />
        <path class="cls-3" d="M241 1403h97l28-27H257l7 8-23 19z" />
        <path d="M746 1403h105l12-27H750l9 6-13 21z" />
        <path class="cls-3" d="M746 1403h105l12-27H750l9 6-13 21z" />
        <path d="M308 1642h-73l6 30h30Z" transform="translate(-178 -173)" />
        <path class="cls-3" d="M308 1642h-73l6 30h30Z" transform="translate(-178 -173)" />
        <path d="M620 1403h103l16-27H627l8 7-15 20z" />
        <path class="cls-3" d="M620 1403h103l16-27H627l8 7-15 20z" />
        <path d="M493 1403h102l20-27H504l7 7-18 20z" />
        <path class="cls-3" d="M493 1403h102l20-27H504l7 7-18 20z" />
        <path d="m1980 1520 28 36h124l-33-36h-119z" />
        <path class="cls-3" d="m1980 1520 28 36h124l-33-36h-119z" />
        <path d="m1872 1620-27-44h-130l19 44h138z" />
        <path class="cls-3" d="m1872 1620-27-44h-130l19 44h138z" />
        <path d="M1706 1556h127l-22-36h-122l17 36z" />
        <path class="cls-3" d="M1706 1556h127l-22-36h-122l17 36z" />
        <path d="M1884 1640h-141l24 53h148l-31-53z" />
        <path class="cls-3" d="M1884 1640h-141l24 53h148l-31-53z" />
        <path d="m1804 1469 19 31h117l-23-31h-113z" />
        <path class="cls-3" d="m1804 1469 19 31h117l-23-31h-113z" />
        <path d="M1998 1576h-129l26 44h136l-33-44z" />
        <path class="cls-3" d="M1998 1576h-129l26 44h136l-33-44z" />
        <path d="m1602 1713 18 63h162l-28-63h-152z" />
        <path class="cls-3" d="m1602 1713 18 63h162l-28-63h-152z" />
        <path d="m1561 1576 13 44h138l-19-44h-132z" />
        <path class="cls-3" d="m1561 1576 13 44h138l-19-44h-132z" />
        <path d="m1745 1693-24-53h-141l16 53h149z" />
        <path class="cls-3" d="m1745 1693-24-53h-141l16 53h149z" />
        <path d="m1826 1872-35-76h-165l23 76h177z" />
        <path class="cls-3" d="m1826 1872-35-76h-165l23 76h177z" />
        <path d="m1702 2117-34-113h-197l16 113h215z" />
        <path class="cls-3" d="m1702 2117-34-113h-197l16 113h215z" />
        <path d="m1666 1469 14 31h119l-18-31h-115z" />
        <path class="cls-3" d="m1666 1469 14 31h119l-18-31h-115z" />
        <path d="M1835 1892h-180l28 92h193l-41-92z" />
        <path class="cls-3" d="M1835 1892h-180l28 92h193l-41-92z" />
        <path d="m1628 1872-22-76h-166l11 76h177z" />
        <path class="cls-3" d="m1628 1872-22-76h-166l11 76h177z" />
        <path d="m1662 1984-28-92h-180l14 92h194z" />
        <path class="cls-3" d="m1662 1984-28-92h-180l14 92h194z" />
        <path d="m1600 1776-19-63h-154l10 63h163z" />
        <path class="cls-3" d="m1600 1776-19-63h-154l10 63h163z" />
        <path d="M629 1892H451l-56 92h192l42-92z" />
        <path class="cls-3" d="M629 1892H451l-56 92h192l42-92z" />
        <path d="m1575 1693-16-53h-143l8 53h151z" />
        <path class="cls-3" d="m1575 1693-16-53h-143l8 53h151z" />
        <path d="m2302 1449-31-26h-100l27 26h104z" />
        <path class="cls-3" d="m2302 1449-31-26h-100l27 26h104z" />
        <path d="M1038 1984h195v-92h-181l-14 92z" />
        <path class="cls-3" d="M1038 1984h195v-92h-181l-14 92z" />
        <path d="M1055 1872h178v-76h-166l-12 76z" />
        <path class="cls-3" d="M1055 1872h178v-76h-166l-12 76z" />
        <path d="M1018 2117h214l1-113h-198l-17 113z" />
        <path class="cls-3" d="M1018 2117h214l1-113h-198l-17 113z" />
        <path d="M1082 1693h151v-53h-143l-8 53z" />
        <path class="cls-3" d="M1082 1693h151v-53h-143l-8 53z" />
        <path d="M1070 1776h163v-63h-154l-9 63z" />
        <path class="cls-3" d="M1070 1776h163v-63h-154l-9 63z" />
        <path d="M993 2278h239v-141h-218l-21 141z" />
        <path class="cls-3" d="M993 2278h239v-141h-218l-21 141z" />
        <path d="M796 2004H600l-52 113h214l34-113z" />
        <path class="cls-3" d="M796 2004H600l-52 113h214l34-113z" />
        <path d="m777 2137-43 141h239l21-141H777z" />
        <path class="cls-3" d="m777 2137-43 141h239l21-141H777z" />
        <path d="M1120 1449h114v-26h-111l-3 26z" />
        <path class="cls-3" d="M1120 1449h114v-26h-111l-3 26z" />
        <path d="M1977 1796h-164l35 76h175l-46-76z" />
        <path class="cls-3" d="M1977 1796h-164l35 76h175l-46-76z" />
        <path d="m1398 1520 6 36h130l-11-36h-125z" />
        <path class="cls-3" d="m1398 1520 6 36h130l-11-36h-125z" />
        <path d="m1553 1620-13-44h-133l6 44h140z" />
        <path class="cls-3" d="m1553 1620-13-44h-133l6 44h140z" />
        <path d="M1857 1556h126l-28-36h-120l22 36z" />
        <path class="cls-3" d="M1857 1556h126l-28-36h-120l22 36z" />
        <path d="m2081 1500-28-31h-111l23 31h116z" />
        <path class="cls-3" d="m2081 1500-28-31h-111l23 31h116z" />
        <path d="M1103 1556h130l1-36h-125l-6 36z" />
        <path class="cls-3" d="M1103 1556h130l1-36h-125l-6 36z" />
        <path d="M1112 1500h122v-31h-117l-5 31z" />
        <path class="cls-3" d="M1112 1500h122v-31h-117l-5 31z" />
        <path d="M1093 1620h140v-44h-133l-7 44z" />
        <path class="cls-3" d="M1093 1620h140v-44h-133l-7 44z" />
        <path d="M1555 1556h129l-17-36h-123l11 36z" />
        <path class="cls-3" d="M1555 1556h129l-17-36h-123l11 36z" />
        <path d="m1490 2137 21 141h239l-42-141h-218z" />
        <path class="cls-3" d="m1490 2137 21 141h239l-42-141h-218z" />
        <path d="m1857 1892 41 92h193l-56-92h-178z" />
        <path class="cls-3" d="m1857 1892 41 92h193l-56-92h-178z" />
        <path d="m1689 2004 34 113h213l-51-113h-196z" />
        <path class="cls-3" d="m1689 2004 34 113h213l-51-113h-196z" />
        <path d="M2046 1872h174l-57-76h-162l45 76z" />
        <path class="cls-3" d="M2046 1872h174l-57-76h-162l45 76z" />
        <path d="m1951 1713 38 63h159l-48-63h-149z" />
        <path class="cls-3" d="m1951 1713 38 63h159l-48-63h-149z" />
        <path d="M1252 2137v141h239l-21-141h-218z" />
        <path class="cls-3" d="M1252 2137v141h239l-21-141h-218z" />
        <path d="M1434 1892h-181v92h194l-13-92z" />
        <path class="cls-3" d="M1434 1892h-181v92h194l-13-92z" />
        <path d="M1450 2004h-197l-1 113h215l-17-113z" />
        <path class="cls-3" d="M1450 2004h-197l-1 113h215l-17-113z" />
        <path d="m2071 1640 39 53h145l-47-53h-137z" />
        <path class="cls-3" d="m2071 1640 39 53h145l-47-53h-137z" />
        <path d="M1672 2471h-242v143h113a1202 1202 0 0 0 147-25Z" transform="translate(-178 -173)" />
        <path class="cls-3" d="M1672 2471h-242v143h113a1202 1202 0 0 0 147-25Z" transform="translate(-178 -173)" />
        <path d="m259 1576 37-27h-75l4 27Z" transform="translate(-178 -173)" />
        <path class="cls-3" d="m259 1576 37-27h-75l4 27Z" transform="translate(-178 -173)" />
        <path d="M2585 1576h25l3-27h-65Z" transform="translate(-178 -173)" />
        <path class="cls-3" d="M2585 1576h25l3-27h-65Z" transform="translate(-178 -173)" />
        <path d="M1419 1796h-166v76h178l-12-76z" />
        <path class="cls-3" d="M1419 1796h-166v76h178l-12-76z" />
        <path d="M1410 2471h-242l-18 119a1203 1203 0 0 0 142 24h118Z" transform="translate(-178 -173)" />
        <path class="cls-3" d="M1410 2471h-242l-18 119a1203 1203 0 0 0 142 24h118Z" transform="translate(-178 -173)" />
        <path d="M2251 1500h112l-37-31h-107l32 31z" />
        <path class="cls-3" d="M2251 1500h112l-37-31h-107l32 31z" />
        <path d="m2085 2177 51 113h109q34-31 64-65l-29-48Z" transform="translate(-178 -173)" />
        <path class="cls-3" d="m2085 2177 51 113h109q34-31 64-65l-29-48Z" transform="translate(-178 -173)" />
        <path d="m2126 1520 33 36h123l-39-36h-117z" />
        <path class="cls-3" d="m2126 1520 33 36h123l-39-36h-117z" />
        <path d="m1502 1449-8-26h-110l4 26h114z" />
        <path class="cls-3" d="m1502 1449-8-26h-110l4 26h114z" />
        <path d="m1902 1449-19-26h-106l15 26h110z" />
        <path class="cls-3" d="m1902 1449-19-26h-106l15 26h110z" />
        <path d="m2035 1449-23-26h-104l19 26h108z" />
        <path class="cls-3" d="m2035 1449-23-26h-104l19 26h108z" />
        <path d="m1769 1449-16-26h-107l11 26h112z" />
        <path class="cls-3" d="m1769 1449-16-26h-107l11 26h112z" />
        <path d="M1538 1500h120l-14-31h-116l10 31z" />
        <path class="cls-3" d="M1538 1500h120l-14-31h-116l10 31z" />
        <path d="m2169 1449-27-26h-103l23 26h107z" />
        <path class="cls-3" d="m2169 1449-27-26h-103l23 26h107z" />
        <path d="M2046 1640h-139l32 53h146l-39-53z" />
        <path class="cls-3" d="M2046 1640h-139l32 53h146l-39-53z" />
        <path d="M2150 1576h-127l33 44h134l-40-44z" />
        <path class="cls-3" d="M2150 1576h-127l33 44h134l-40-44z" />
        <path d="M2190 1469h-110l28 31h114l-32-31z" />
        <path class="cls-3" d="M2190 1469h-110l28 31h114l-32-31z" />
        <path d="M1364 1423h-110v26h114l-4-26z" />
        <path class="cls-3" d="M1364 1423h-110v26h114l-4-26z" />
        <path d="M1371 1469h-117v31h121l-4-31z" />
        <path class="cls-3" d="M1371 1469h-117v31h121l-4-31z" />
        <path d="m1635 1449-11-26h-109l8 26h112z" />
        <path class="cls-3" d="m1635 1449-11-26h-109l8 26h112z" />
        <path d="M1387 1576h-134v44h140l-6-44z" />
        <path class="cls-3" d="M1387 1576h-134v44h140l-6-44z" />
        <path d="M1396 1640h-143v53h151l-8-53z" />
        <path class="cls-3" d="M1396 1640h-143v53h151l-8-53z" />
        <path d="M1378 1520h-124l-1 36h131l-6-36z" />
        <path class="cls-3" d="M1378 1520h-124l-1 36h131l-6-36z" />
        <path d="M1396 1500h121l-9-31h-117l5 31z" />
        <path class="cls-3" d="M1396 1500h121l-9-31h-117l5 31z" />
        <path d="M1407 1713h-154v63h163l-9-63z" />
        <path class="cls-3" d="M1407 1713h-154v63h163l-9-63z" />
        <path d="m1776 1713 28 63h161l-38-63h-151z" />
        <path class="cls-3" d="m1776 1713 28 63h161l-38-63h-151z" />
        <path d="M2217 1620h132l-46-44h-126l40 44z" />
        <path class="cls-3" d="M2217 1620h132l-46-44h-126l40 44z" />
        <path d="M547 1500h118l18-31H570l-23 31z" />
        <path class="cls-3" d="M547 1500h118l18-31H570l-23 31z" />
        <path d="M504 1556h126l22-36H532l-28 36z" />
        <path class="cls-3" d="M504 1556h126l22-36H532l-28 36z" />
        <path d="M406 1500h116l23-31H434l-28 31z" />
        <path class="cls-3" d="M406 1500h116l23-31H434l-28 31z" />
        <path d="M654 1556h127l17-36H676l-22 36z" />
        <path class="cls-3" d="M654 1556h127l17-36H676l-22 36z" />
        <path d="M907 1640H765l-24 53h150l16-53z" />
        <path class="cls-3" d="M907 1640H765l-24 53h150l16-53z" />
        <path d="M688 1500h119l14-31H706l-18 31z" />
        <path class="cls-3" d="M688 1500h119l14-31H706l-18 31z" />
        <path d="M265 1500h114l28-31H298l-33 31z" />
        <path class="cls-3" d="M265 1500h114l28-31H298l-33 31z" />
        <path d="M943 1520H820l-17 36h129l11-36z" />
        <path class="cls-3" d="M943 1520H820l-17 36h129l11-36z" />
        <path d="M926 1576H794l-20 44h139l13-44z" />
        <path class="cls-3" d="M926 1576H794l-20 44h139l13-44z" />
        <path d="m997 2117 18-113H817l-34 113h214z" />
        <path class="cls-3" d="m997 2117 18-113H817l-34 113h214z" />
        <path d="m479 1556 28-36H388l-33 36h124z" />
        <path class="cls-3" d="m479 1556 28-36H388l-33 36h124z" />
        <path d="M463 1872h175l35-76H509l-46 76z" />
        <path class="cls-3" d="M463 1872h175l35-76H509l-46 76z" />
        <path d="M1032 1892H851l-28 92h195l14-92z" />
        <path class="cls-3" d="M1032 1892H851l-28 92h195l14-92z" />
        <path d="m802 1984 28-92H651l-42 92h193z" />
        <path class="cls-3" d="m802 1984 28-92H651l-42 92h193z" />
        <path d="M297 1620h134l33-44H337l-40 44z" />
        <path class="cls-3" d="M297 1620h134l33-44H337l-40 44z" />
        <path d="m548 1693 31-53H441l-40 53h147z" />
        <path class="cls-3" d="m548 1693 31-53H441l-40 53h147z" />
        <path d="m682 1776 28-63H559l-38 63h161z" />
        <path class="cls-3" d="m682 1776 28-63H559l-38 63h161z" />
        <path d="M1103 1423H993l-7 26h113l4-26z" />
        <path class="cls-3" d="M1103 1423H993l-7 26h113l4-26z" />
        <path d="m2510 1921 16-36h-48Z" transform="translate(-178 -173)" />
        <path class="cls-3" d="m2510 1921 16-36h-48Z" transform="translate(-178 -173)" />
        <path d="m2413 1813 47 52h74l19-48-5-4Z" transform="translate(-178 -173)" />
        <path class="cls-3" d="m2413 1813 47 52h74l19-48-5-4Z" transform="translate(-178 -173)" />
        <path d="M2556 1793h5l13-44h-64Z" transform="translate(-178 -173)" />
        <path class="cls-3" d="M2556 1793h5l13-44h-64Z" transform="translate(-178 -173)" />
        <path d="m2303 1885 48 63h146l4-8-50-55Z" transform="translate(-178 -173)" />
        <path class="cls-3" d="m2303 1885 48 63h146l4-8-50-55Z" transform="translate(-178 -173)" />
        <path d="m2323 2209 27-32h-46Z" transform="translate(-178 -173)" />
        <path class="cls-3" d="m2323 2209 27-32h-46Z" transform="translate(-178 -173)" />
        <path d="M2423 2044h21q23-37 43-76h-121Z" transform="translate(-178 -173)" />
        <path class="cls-3" d="M2423 2044h21q23-37 43-76h-121Z" transform="translate(-178 -173)" />
        <path d="m2450 1692 39 37h91l5-20-20-17Z" transform="translate(-178 -173)" />
        <path class="cls-3" d="m2450 1692 39 37h91l5-20-20-17Z" transform="translate(-178 -173)" />
        <path d="m2236 2064 56 93h74c20-26 39-52 57-79l-10-14Z" transform="translate(-178 -173)" />
        <path class="cls-3" d="m2236 2064 56 93h74c20-26 39-52 57-79l-10-14Z" transform="translate(-178 -173)" />
        <path d="M2572 1672h21l7-30h-65Z" transform="translate(-178 -173)" />
        <path class="cls-3" d="M2572 1672h21l7-30h-65Z" transform="translate(-178 -173)" />
        <path d="M885 1713H732l-28 63h162l19-63z" />
        <path class="cls-3" d="M885 1713H732l-28 63h162l19-63z" />
        <path d="m719 1693 24-53H603l-32 53h148z" />
        <path class="cls-3" d="m719 1693 24-53H603l-32 53h148z" />
        <path d="M660 1872h176l24-76H695l-35 76z" />
        <path class="cls-3" d="M660 1872h176l24-76H695l-35 76z" />
        <path d="M772 1576H641l-26 44h137l20-44z" />
        <path class="cls-3" d="M772 1576H641l-26 44h137l20-44z" />
        <path d="M456 1620h136l26-44H489l-33 44z" />
        <path class="cls-3" d="M456 1620h136l26-44H489l-33 44z" />
        <path d="m2480 1596 31 26h92l1-7-26-19Z" transform="translate(-178 -173)" />
        <path class="cls-3" d="m2480 1596 31 26h92l1-7-26-19Z" transform="translate(-178 -173)" />
        <path d="M1046 1796H880l-23 76h178l11-76z" />
        <path class="cls-3" d="M1046 1796H880l-23 76h178l11-76z" />
        <path d="m1092 1500 4-31H980l-10 31h122z" />
        <path class="cls-3" d="m1092 1500 4-31H980l-10 31h122z" />
        <path d="M1059 1713H906l-19 63h162l10-63z" />
        <path class="cls-3" d="M1059 1713H906l-19 63h162l10-63z" />
        <path d="m949 1500 10-31H843l-14 31h120z" />
        <path class="cls-3" d="m949 1500 10-31H843l-14 31h120z" />
        <path d="M579 1423H475l-23 26h108l19-26z" />
        <path class="cls-3" d="M579 1423H475l-23 26h108l19-26z" />
        <path d="M711 1423H604l-19 26h110l16-26z" />
        <path class="cls-3" d="M711 1423H604l-19 26h110l16-26z" />
        <path d="M317 1423H217l-31 26h104l27-26z" />
        <path class="cls-3" d="M317 1423H217l-31 26h104l27-26z" />
        <path d="M842 1423H734l-15 26h111l12-26z" />
        <path class="cls-3" d="M842 1423H734l-15 26h111l12-26z" />
        <path d="M448 1423H346l-27 26h106l23-26z" />
        <path class="cls-3" d="M448 1423H346l-27 26h106l23-26z" />
        <path d="M485 1796H323l-57 76h173l46-76z" />
        <path class="cls-3" d="M485 1796H323l-57 76h173l46-76z" />
        <path d="M416 1640H279l-48 53h145l40-53z" />
        <path class="cls-3" d="M416 1640H279l-48 53h145l40-53z" />
        <path d="M269 1469H162l-37 31h111l33-31z" />
        <path class="cls-3" d="M269 1469H162l-37 31h111l33-31z" />
        <path d="M361 1520H244l-39 36h123l33-36z" />
        <path class="cls-3" d="M361 1520H244l-39 36h123l33-36z" />
        <path d="M310 1576H184l-46 44h132l40-44z" />
        <path class="cls-3" d="M310 1576H184l-46 44h132l40-44z" />
        <path d="M536 1713H386l-48 63h159l39-63z" />
        <path class="cls-3" d="M536 1713H386l-48 63h159l39-63z" />
        <path d="M973 1423H864l-12 26h113l8-26z" />
        <path class="cls-3" d="M973 1423H864l-12 26h113l8-26z" />
        <path d="M1089 1520H964l-11 36h130l6-36z" />
        <path class="cls-3" d="M1089 1520H964l-11 36h130l6-36z" />
        <path d="M1080 1576H947l-13 44h139l7-44z" />
        <path class="cls-3" d="M1080 1576H947l-13 44h139l7-44z" />
        <path d="M1070 1640H928l-16 53h150l8-53z" />
        <path class="cls-3" d="M1070 1640H928l-16 53h150l8-53z" />
        <path d="m1991 1370-7 6h13l-6-6z" />
        <path class="cls-3" d="m1991 1370-7 6h13l-6-6z" />
        <path d="m1868 1371-7 5h12l-5-5z" />
        <path class="cls-3" d="m1868 1371-7 5h12l-5-5z" />
        <path d="m2114 1369-7 7h14l-7-7z" />
        <path class="cls-3" d="m2114 1369-7 7h14l-7-7z" />
        <path d="M1232 2443h20v-2h-20v2z" />
        <path class="cls-3" d="M1232 2443h20v-2h-20v2z" />
        <path d="m1746 1371-8 5h11l-3-5z" />
        <path class="cls-3" d="m1746 1371-8 5h11l-3-5z" />
        <path d="m2360 1369-6 7h16l-10-7z" />
        <path class="cls-3" d="m2360 1369-6 7h16l-10-7z" />
        <path d="m2237 1369-6 7h15l-9-7z" />
        <path class="cls-3" d="m2237 1369-6 7h15l-9-7z" />
        <path d="m742 1371-3 5h11l-8-5z" />
        <path class="cls-3" d="m742 1371-3 5h11l-8-5z" />
        <path d="m988 1374-1 2h9l-8-2z" />
        <path class="cls-3" d="m988 1374-1 2h9l-8-2z" />
        <path d="m865 1372-2 4h10l-8-4z" />
        <path class="cls-3" d="m865 1372-2 4h10l-8-4z" />
        <path d="m1377 1375-8 1h8v-1z" />
        <path class="cls-3" d="m1377 1375-8 1h8v-1z" />
        <path d="m1500 1374-9 2h10l-1-2z" />
        <path class="cls-3" d="m1500 1374-9 2h10l-1-2z" />
        <path d="m1111 1375-1 1h9l-8-1z" />
        <path class="cls-3" d="m1111 1375-1 1h9l-8-1z" />
        <path d="m1623 1372-9 4h11l-2-4z" />
        <path class="cls-3" d="m1623 1372-9 4h11l-2-4z" />
        <path d="m619 1371-4 5h12l-8-5z" />
        <path class="cls-3" d="m619 1371-4 5h12l-8-5z" />
        <path d="m128 1369-10 7h16l-6-7z" />
        <path class="cls-3" d="m128 1369-10 7h16l-6-7z" />
        <path d="m374 1369-8 7h14l-6-7z" />
        <path class="cls-3" d="m374 1369-8 7h14l-6-7z" />
        <path d="m251 1369-9 7h15l-6-7z" />
        <path class="cls-3" d="m251 1369-9 7h15l-6-7z" />
        <path d="m497 1370-6 6h13l-7-6z" />
        <path class="cls-3" d="m497 1370-6 6h13l-7-6z" />
        <path class="cls-4"
            d="M2548 1549h-16l-6 8 25 19h-95l-32-27h-16l-6 8 23 19h-97l-29-27h-14l-7 8 20 19h-99l-24-27h-13l-8 7 18 20h-101l-21-27h-12l-8 6 16 21h-103l-17-27h-11l-9 5 13 22h-104l-13-27h-10l-10 4 11 23h-106l-8-27h-10l-10 3 7 24h-107l-4-27h-8l-12 2 4 25h-107v-27h-20v27h-107l3-25-11-2h-8l-5 27h-106l7-24-11-3h-9l-8 27h-106l10-22-10-5h-10l-12 27H924l13-21-9-6h-11l-16 27H798l15-21-8-6h-12l-21 27H671l18-20-7-7h-13l-25 27h-99l20-19-7-8h-14l-28 27h-97l23-19-7-8h-15l-33 27h-94l25-19-6-8h-16l-37 27h-34l2 20h5l-4 3 3 22 34-25h98l-31 26H232l3 20h73l-37 30h-30l5 20h1l-1 1 5 22 27-23h115l-39 37h-99l6 20h72l-46 44h-13l10 30 11-10h135l-48 52h-82l9 20h55l-37 41 9 20 55-60h148l-48 63H338l10 20h128l-57 76h-29l13 20 12 18 13-18h177l-56 92h-81l16 20h53l-22 37 14 15 32-52h195l-52 113H589l22 20h84l-23 52 16 13 29-65h217l-43 141h-90l34 20h50l-7 23 19 9 9-32h242l-18 115 20 5 18-120h242v143h20v-143h242l18 119 19-5-17-114h242l9 29 18-9-6-20h44l35-20h-85l-42-140h216l28 61 16-13-22-48h79l21-20h-109l-51-114h195l29 48 14-15-19-33h46l16-20h-74l-56-92h177l10 13 21-33h-21l-57-76h121l10-20h-146l-48-63h148l50 55 9-20-32-35h48l8-20h-74l-47-53h135l4 5 8-25h-4l-47-44h65l5-20h-91l-38-36h114l21 16 8-36h-21l-37-31h64l4-20h-92l-31-26h98l26 20 6-40h-26Zm-1377 47h110l-4 26h-113Zm-13 46h116l-4 30h-122Zm-276 306 28-63h153l-19 63Zm156 20-24 77H838l34-77Zm-268-175H634l33-44h129Zm49-44h131l-20 44H793Zm-38 64h140l-24 52H749Zm138 52 24-52h142l-16 52Zm33-72 20-44h132l-13 44Zm29-64 17-37h123l-11 37Zm4-57H866l18-30h115Zm-9 20-17 37H832l22-37Zm-133-20H725l23-30h113Zm-13 20-22 37H682l28-37Zm-130-20H584l28-30h111Zm-143 0H443l33-30h109Zm9 20h119l-28 37H533Zm76 57-33 44H475l39-44Zm-23 64h138l-31 52H579Zm118 72h151l-28 63H699Zm113 83-34 77H641l46-77Zm-21 96h179l-28 93H787Zm166 113h197l-17 113H961Zm6-20 28-93h181l-15 93Zm34-113 23-76h166l-11 76Zm29-96 20-63h153l-10 63Zm26-83 16-52h142l-8 52Zm22-72 13-44h133l-7 44Zm19-64 11-37h124l-5 37Zm-89-133h108l-7 26h-113Zm95 46-10 30h-120l14-30Zm-225-46h108l-12 26H897Zm-130 0h107l-16 26H763Zm-129 0h104l-19 26H630Zm-129 0h102l-23 26H497Zm-129 0h100l-27 26H364Zm-92 76 37-30h107l-33 30Zm119 20h117l-34 37H383Zm-106 101 46-44h126l-40 44Zm93 72 47-52h138l-40 52Zm155 20h150l-39 63H516Zm-120 159 57-76h162l-46 76Zm129 113 56-93h178l-42 93Zm153 133 52-113h196l-34 113Zm425 161H912l43-141h217Zm259 0h-239l21-141h218Zm0-161h-215l18-113h198Zm1-133h-195l14-93h181Zm0-113h-178l12-76h166Zm0-96h-163l9-63h154Zm0-83h-151l8-52h143Zm0-72h-140l7-44h133Zm0-64h-130l6-37h124Zm0-57h-121l4-30h118Zm1-50h-114l3-26h111Zm1037-26 31 26h-104l-27-26Zm-731 153 13 44h-140l-6-44Zm-136-20-6-37h125l11 37Zm551-37 28 37h-126l-23-37Zm-13-50h111l28 30h-116Zm-322 306-19-63h153l28 63Zm171 20 35 77h-177l-23-77Zm-70-155 24 52h-149l-16-52Zm-147-20-13-44h132l19 44Zm141-44h130l27 44h-138Zm28 64h141l31 52h-148Zm126-64h129l33 44h-136Zm-47-77-18-30h113l23 30Zm-11 20 22 37h-127l-17-37Zm-131-20-14-30h115l18 30Zm-13 20 17 37h-129l-11-37Zm-108 121 16 52h-151l-8-52Zm22 72 18 63h-162l-10-63Zm24 83 23 76h-177l-11-76Zm29 96 28 93h-194l-14-93Zm34 113 34 113h-215l-16-113Zm-13-113h180l41 93h-193Zm158-96h164l46 76h-175Zm-9-20-28-63h151l38 63Zm103-135h139l39 52h-146Zm116-64h127l40 44h-134Zm-15-20-28-37h119l33 37Zm72-88h110l32 31h-114Zm62-45 27 25h-107l-23-25Zm-130 0 23 25h-108l-19-25Zm-129 0 19 25h-110l-15-25Zm-130 0 16 25h-112l-11-25Zm-109 45 14 31h-120l-9-31Zm-20-45 11 25h-112l-8-25Zm-107 76h-122l-4-31h117Zm-23-76 8 25h-114l-4-25Zm-240 0h110l4 25h-114Zm0 45h117l4 31h-121Zm0 51h124l6 37h-131Zm-1 57h134l6 44h-140Zm0 64h143l8 52h-151Zm0 72h154l9 63h-163Zm0 83h166l12 76h-178Zm0 96h181l13 93h-194Zm0 113h197l17 113h-215Zm-1 274v-141h218l21 141Zm498 0h-239l-21-141h218Zm186-161h-213l-34-113h196Zm155-133h-193l-41-93h178Zm129-113h-174l-46-76h163Zm-72-96h-159l-38-63h149Zm107-83h-145l-39-52h137Zm94-72h-132l-40-44h126Zm-67-64h-123l-33-37h117Zm44-87 37 30h-112l-32-30Z"
            transform="translate(-178 -173)" />
        <path
            d="m280 1024 635 413h1276l359-426a1202 1202 0 0 0-161-303l-218-116-86 54-177-142-136 301-104-27s-60 102-65 100-90 0-90 0l-145 91-167-153-143-27-72-150-124-24-90-138-169 123-41-29a1203 1203 0 0 0-282 453Z"
            transform="translate(-178 -173)" style="fill:#420329" />
        <path
            d="M2620 1417c0-176-37-343-105-493l-111-39-104 42-186-149-102 100-78-43-162 163-74-34-122 263-189 141-362-203-230 13-142-192-58 36-155-144-93 49-20-19c-72 155-113 327-113 509a1217 1217 0 0 0 8 137h2391a1217 1217 0 0 0 7-137Z"
            transform="translate(-178 -173)" style="fill:#600540" />
        <circle class="cls-4" cx="981.9" cy="181.7" r="21.3" />
        <circle class="cls-4" cx="695.3" cy="344.4" r="21.3" />
        <circle class="cls-4" cx="1218.1" cy="662" r="21.3" />
        <circle class="cls-4" cx="1400.7" cy="480.4" r="10.6" />
        <circle class="cls-4" cx="1346.7" cy="289.7" r="10.6" />
        <circle class="cls-4" cx="1535.3" cy="401" r="10.6" />
        <circle class="cls-4" cx="1582" cy="129.3" r="10.6" />
        <circle class="cls-4" cx="1524.7" cy="176.6" r="10.6" />
        <circle class="cls-4" cx="1237" cy="362" r="10.6" />
        <circle class="cls-4" cx="1075" cy="501.7" r="10.6" />
        <circle class="cls-4" cx="1440.7" cy="621.9" r="10.6" />
        <circle class="cls-4" cx="1207.4" cy="102.6" r="10.6" />
        <circle class="cls-4" cx="1067.3" cy="246" r="10.6" />
        <circle class="cls-4" cx="879.7" cy="344.4" r="10.6" />
        <circle class="cls-4" cx="781" cy="218.6" r="10.6" />
        <circle class="cls-4" cx="1609.7" cy="289.7" r="21.3" />
        <circle class="cls-4" cx="1468.7" cy="459.2" r="21.3" />
        <circle class="cls-4" cx="1112.7" cy="282.7" r="21.3" />
        <path class="cls-1" d="M225 1579h2385l4-36H220l5 36Z" transform="translate(-178 -173)" />
    </g>
    <g id="palm">
        <path class="cls-7"
            d="M2447 313c-83-32-176 7-245 53a501 501 0 0 0-48 36 4 4 0 0 0-2 1 3 3 0 0 0-1-1c-10-3-20-2-30 1a71 71 0 0 1 8-5l33-11c8-3 5-14-3-15a97 97 0 0 0-17-2c12-5 25-8 37-11 4-1 6-7 2-8-11-3-20-4-30-3a48 48 0 0 1 6-3c11-3 23-4 34-6 6-1 6-8 1-11a45 45 0 0 0-22-5l11-5c9-4 21-4 30-9 3-1 4-5 1-7a30 30 0 0 0-9-4l13-11c8-5 20-9 25-16a3 3 0 0 0 0-4c-6-4-15-4-24-2l12-11c4-3 0-11-5-8-6 3-12 4-18 8a257 257 0 0 0-53 45c-23 23-42 51-60 77a635 635 0 0 0-49 78 1565 1565 0 0 0-22-99 19 19 0 0 0 1-7c-1-7-4-12-9-18a387 387 0 0 0-22-53 215 215 0 0 0-27-41c-9-10-23-27-37-27-5-1-9 3-8 8a26 26 0 0 0 5 11c-17-4-34-2-48 5-7 3-6 13 2 15 11 2 21 5 32 9a41 41 0 0 0-21 7c-3 3-3 8 0 10 14 10 30 14 44 22l6 3a131 131 0 0 0-24 4c-6 1-8 10-2 12 15 6 28 14 41 22-11-3-23-3-32 1-5 2-5 8-2 10l23 16a124 124 0 0 1 29 26c-10-5-19-6-30-8-5-1-10 6-6 10a105 105 0 0 1 12 16l-19-7-5-1-37-23c-35-19-70-37-106-54-34-17-71-31-109-39-5-1-6 6-2 8 6 3 13 5 19 9-11-1-22 1-32 7-3 3-1 8 3 9l33 6-6 4c-3 3-1 8 4 8l21-2a61 61 0 0 0-6 5c-3 2-1 6 3 6l56-6-3 1c-12 4-25 8-35 16a2 2 0 0 0 1 4c12 1 23 0 35-1l15-1c-12 4-25 12-32 22-2 4 0 8 4 8 14-1 27-4 41-4h13c-12 6-23 14-30 26-2 3 1 9 5 6 16-8 31-16 49-19a114 114 0 0 1 25-2 123 123 0 0 0 15 2 52 52 0 0 0 5 3c-24 4-48 13-69 24a3 3 0 0 0 2 5c25 0 50-4 75-4a163 163 0 0 1 36 4c-21 0-47 2-62 15a3 3 0 0 0 1 5c11 2 22 1 32 2a185 185 0 0 1 34 4l12 3h-3a90 90 0 0 0-16 0l-10 2c-1 0-6 0-5 1-6-3-15 4-11 11 5 9 13 7 23 8a121 121 0 0 1 32 6 114 114 0 0 1 30 16l2 1 1 3-27-8c-46-12-97-11-143-3a397 397 0 0 0-131 47c-41 24-74 57-102 96-3 4 3 11 7 7a335 335 0 0 1 25-23 199 199 0 0 0-14 26c-5 9 9 17 16 9l34-44c10-13 23-24 33-37l15-8c-17 18-31 38-42 61-2 4 5 8 8 4 16-18 33-37 51-54l29-25 12-8 14-4-5 6c-18 20-39 41-49 66-2 4 2 10 7 8 21-12 38-31 55-48l11-11c-6 10-10 21-8 30a4 4 0 0 0 6 3c8-3 14-9 19-15l5-5a68 68 0 0 0-4 5c-7 11 5 21 15 15 15-9 28-19 41-30a66 66 0 0 0-7 13c-1 4 2 10 7 9 9-2 17-7 25-12l29-17a47 47 0 0 0-8 13c-2 5 2 13 9 11h2l-17 6a428 428 0 0 0-194 171 171 171 0 0 0-20 57c-2 17-5 45 8 58 2 3 7 3 9-1 3-8 2-17 2-26l6-28a151 151 0 0 1 11-25 170 170 0 0 0 6 59c1 5 8 3 9-1a512 512 0 0 1 12-57c-1 15 1 30 6 44 0 2 4 2 5 0 10-25 16-52 25-78-4 15-7 29-9 44-1 5 6 6 8 2l20-40a36 36 0 0 1-1 3c-1 4 4 6 6 3 11-13 21-27 29-42l-3 7c-3 8-7 17-7 27 0 2 2 3 4 2 7-4 12-10 17-16l20-25 25-38a25 25 0 0 0-2 5c-8 15-17 32-19 49-1 3 4 7 8 4 11-11 19-26 28-39a655 655 0 0 1 57-68 913 913 0 0 0-98 281 1946 1946 0 0 0-28 280 2169 2169 0 0 0 33 463 33 33 0 1 0 64-9c-17-121-31-243-34-366a1785 1785 0 0 1 46-478c19-69 45-135 67-204a27 27 0 0 0 5-2l-4 12c-4 14-12 28-10 43 1 3 4 5 7 4a24 24 0 0 0 10-5l-12 32c-3 8 6 14 13 9a153 153 0 0 0-4 19c-1 4 4 8 8 5 6-6 12-14 18-23a293 293 0 0 1-14 38c-3 6 5 10 9 5l12-16-17 45c-3 6 5 13 11 8 13-12 24-26 32-42v1c-3 4-3 9-5 15-2 7-5 15-9 22-7 14-20 23-28 36-4 6 0 16 9 14a59 59 0 0 0 10-3c-7 8-12 15-16 24-1 4 2 9 7 8l3-1c-3 5-5 11-5 17 0 5 5 9 10 7a37 37 0 0 0 9-6c-5 14-12 26-13 40 0 2 2 5 5 3a48 48 0 0 0 11-9v1a336 336 0 0 0-9 40c-1 7 10 12 14 6a119 119 0 0 0 7-14l1 28c0 9 13 12 14 2a1024 1024 0 0 0 20-247 522 522 0 0 0-12-84c3 6 5 13 10 17a2 2 0 0 0 3 0c3-4 5-9 6-15a124 124 0 0 0 9 25c2 3 7 3 8-1 2-13 4-26 4-39 6 16 9 32 17 46 2 3 8 2 9-2 7-18 3-38-2-56a52 52 0 0 0-2-6l1 1a161 161 0 0 1 7 26c4 20 5 41 8 61 1 7 11 9 13 2l3-12a13 13 0 0 0 0 1c2 16 0 35 4 50 2 6 10 6 14 2a49 49 0 0 0 7-13c-1 11-2 22 0 33 1 7 10 9 14 4 6-8 10-17 12-26v3c1 21-6 41-4 61 0 8 9 9 13 4l2-2c-1 14-2 28 2 41 1 6 9 8 12 2l1 7c0 9-2 21 1 30 1 3 5 10 8 10 6-2 11-6 13-12 0 8 0 15 2 22 2 8 13 14 19 5 10-19 10-45 9-66a454 454 0 0 0-70-204c-24-37-56-68-95-88h6c7 0 10-9 6-13l-4-4a47 47 0 0 0 9-1c6-1 9-8 6-13a42 42 0 0 0-14-11c19-2 37-3 55-8 8-2 10-12 2-15a95 95 0 0 0-18-6 227 227 0 0 0 40-5c6-1 9-11 2-13-23-7-47-9-71-11 14-3 28-1 42 0l46 3 21 2c7 0 13-2 19-3 6 0 7-9 2-11l-7-6a59 59 0 0 0-7-2c2-1 3-4 1-6a46 46 0 0 0-12-11 421 421 0 0 1 57 12c8 3 13-8 5-12-23-13-48-21-73-26a14 14 0 0 0-4-1l22 2 45 10 42 9c7 2 9-9 3-13-14-7-28-16-43-22a269 269 0 0 0-41-13l5-2c10 0 21 2 31 4a176 176 0 0 1 30 7c9 3 21 9 30 6a8 8 0 0 0 6-10 22 22 0 0 0-6-10c14 4 28 9 43 10 7 1 12-7 7-13-8-11-20-19-33-25l40-6c5 0 6-8 0-9Zm-379 172-7 7 2-3a28 28 0 0 1 5-4Zm49-51c-11 1-22 7-33 12 9-5 17-12 26-16 6-4 14-6 21-9l-13 13Zm-155-7a11 11 0 0 1 0-2l4 6-4-4Zm-165-74-5 1 3-2 2 1Zm163 213 11-2-9 2a950 950 0 0 0-2 0Z"
            transform="translate(-178 -173)" />
        <path class="cls-7"
            d="M2729 648c-61-43-145-29-210-5a416 416 0 0 0-47 20 3 3 0 0 0-2 0 3 3 0 0 0-1-1c-7-5-16-6-25-6a45 45 0 0 1 8-2l29-2c7-1 7-10 1-13a83 83 0 0 0-14-5c11-2 22-2 33-2 3 0 6-4 3-6a59 59 0 0 0-24-8l5-1c10-1 20 1 29 1 6 1 7-5 4-9a38 38 0 0 0-17-8l9-2c9-1 19 1 27-1 2-1 4-4 2-6a28 28 0 0 0-7-5l13-6c8-2 18-3 24-9a2 2 0 0 0 1-3c-5-5-12-6-19-6l12-7c5-2 1-9-3-7l-17 3a232 232 0 0 0-52 26c-23 15-44 34-64 51a522 522 0 0 0-55 54l2-70-1-15a14 14 0 0 0 2-6 29 29 0 0 0-3-16 329 329 0 0 0-8-48 179 179 0 0 0-14-39c-5-9-13-26-25-29-4-1-8 0-8 5a22 22 0 0 0 1 10c-12-6-27-9-39-6-7 2-8 10-2 13 9 4 17 8 24 14a35 35 0 0 0-18 2c-3 1-4 5-2 8 9 10 22 17 32 26a52 52 0 0 1 4 4 107 107 0 0 0-20-2c-6 0-9 7-4 10l29 26c-9-4-18-7-27-6-4 1-5 6-3 8l15 17a108 108 0 0 1 18 28c-7-6-14-9-22-13-4-2-9 3-7 7a94 94 0 0 1 7 15l-14-9-4-2-26-26c-25-23-50-44-76-65-25-21-52-40-81-54-4-2-7 4-4 6l15 11c-9-2-19-3-28 0-4 2-3 6 0 8l26 11a40 40 0 0 0-5 3c-4 1-3 6 1 7l18 2a37 37 0 0 0-6 3 3 3 0 0 0 1 6l47 6-3 1c-10 0-21 1-31 6a2 2 0 0 0 0 3c9 3 19 4 29 6l12 2c-11 1-23 5-31 12a4 4 0 0 0 2 7l34 4 11 3c-11 3-21 8-30 15-2 3-1 8 3 7 15-4 29-7 44-6a92 92 0 0 1 21 3l12 5 4 3c-21-1-42 1-61 6a2 2 0 0 0 0 5c20 4 42 6 62 11a139 139 0 0 1 28 11c-17-5-38-8-53 0a2 2 0 0 0 0 4c8 4 17 5 26 8a164 164 0 0 1 26 9l10 5h-3a75 75 0 0 0-13-3 81 81 0 0 0-9-1h-4c-5-4-13 1-11 7 2 8 9 9 17 11a106 106 0 0 1 25 11 96 96 0 0 1 21 19l2 2v2c-6-5-13-8-21-12-35-19-76-28-116-31a333 333 0 0 0-116 13c-38 12-72 32-102 58-3 3 0 10 4 7l25-13a164 164 0 0 0-17 18c-5 7 4 16 11 10l37-29c11-8 24-15 35-24l13-3c-17 12-33 25-46 41-3 4 2 8 5 5l53-34 29-14 11-5h12l-5 4c-19 13-40 26-54 44-2 3 1 9 5 8 20-6 37-17 55-28l10-7c-6 7-12 15-12 23a4 4 0 0 0 4 4c7-1 14-5 19-9l5-3-4 3c-8 8 0 19 9 16l40-17a54 54 0 0 0-8 9c-3 4-1 9 3 9 8 0 16-3 24-5l26-8a41 41 0 0 0-9 9c-3 4-1 11 5 11a11 11 0 0 0 2 0l-15 2a356 356 0 0 0-192 101 144 144 0 0 0-28 43c-5 13-13 36-5 49 1 3 5 4 7 1 4-6 5-14 7-21a116 116 0 0 1 11-21 136 136 0 0 1 13-19 141 141 0 0 0-7 49c0 5 7 5 8 1a421 421 0 0 1 21-44c-3 12-5 24-4 37 0 2 3 2 4 1 13-19 23-39 36-58l-16 33c-2 4 4 7 6 4l25-29-2 3c-1 2 3 5 5 3a242 242 0 0 0 31-28l-3 4c-4 6-9 13-11 21a3 3 0 0 0 3 2c6-1 12-5 17-9l21-17 28-26a28 28 0 0 0-3 4c-9 10-20 22-25 36-1 3 2 7 6 5 11-7 21-18 31-26a551 551 0 0 1 60-44 777 777 0 0 0-136 210 1629 1629 0 0 0-78 223 1811 1811 0 0 0-41 187c-10 66-17 132-24 198a27 27 0 0 0 55 5c10-102 22-205 44-306a1514 1514 0 0 1 132-381c29-53 64-102 95-153a20 20 0 0 0 4-1l-5 9c-6 10-15 20-17 32 0 4 3 5 6 5a19 19 0 0 0 8-2l-16 24c-4 6 3 13 9 10a115 115 0 0 0-7 15c-2 3 2 7 5 5 7-4 14-9 20-15a269 269 0 0 1-19 28c-3 5 2 10 6 7l13-12-23 34c-3 4 2 11 8 9 13-7 24-17 34-28a6 6 0 0 0 0 1l-7 11a114 114 0 0 1-11 16c-9 10-21 15-30 24-5 4-3 13 4 13a51 51 0 0 0 8 0c-6 4-12 10-17 16-2 3 0 8 4 8a23 23 0 0 1 3 0c-3 4-6 8-7 13-1 4 1 8 6 8a30 30 0 0 0 9-3c-7 10-15 18-19 29 0 2 1 5 3 4a40 40 0 0 0 12-5v1a272 272 0 0 0-16 30c-2 6 6 12 10 8a111 111 0 0 0 9-10l-5 23c-2 8 8 12 12 5a853 853 0 0 0 64-198 447 447 0 0 0 7-72c1 6 2 12 5 17a2 2 0 0 0 2 0c4-3 6-7 8-11a107 107 0 0 0 3 22 3 3 0 0 0 6 0l12-30c1 14 1 27 5 41 1 3 6 3 7 0 9-13 10-30 9-46a28 28 0 0 0 0-5 136 136 0 0 1 1 23c0 17-4 35-5 52-1 5 7 9 10 4l5-10v2c-2 13-8 28-7 41 0 5 7 7 11 4a38 38 0 0 0 8-9c-3 9-6 18-7 27 0 6 7 9 12 6 6-5 10-12 14-19v3c-4 17-13 32-16 49-1 6 6 9 10 5l2-1c-3 11-7 23-7 34 1 6 6 8 10 4l-1 6c-2 7-6 17-4 25 0 2 1 9 4 9 6 0 10-2 13-7l-3 19c0 6 8 14 14 7 13-13 17-35 21-52a382 382 0 0 0-17-180c-12-35-33-67-61-91l6 2c5 1 10-6 7-11l-2-3a41 41 0 0 0 7 1c6 0 10-5 7-10a35 35 0 0 0-8-12c15 2 31 5 46 5 7-1 11-8 5-12a82 82 0 0 0-14-9 195 195 0 0 0 34 4c5 0 9-7 4-10-18-10-36-17-55-23 11 1 23 5 33 8l38 12 16 5c6 2 11 1 16 2 6 1 8-6 4-9l-4-6a54 54 0 0 0-5-3 3 3 0 0 0 2-5 37 37 0 0 0-8-11 378 378 0 0 1 44 21c6 4 12-4 7-9-17-15-35-26-55-36a9 9 0 0 0-3-1l17 6a385 385 0 0 1 35 17l33 15c6 3 9-5 5-9-11-9-20-19-31-27a225 225 0 0 0-31-19l4-1 26 10a149 149 0 0 1 22 12c7 4 16 11 24 11a6 6 0 0 0 7-7 18 18 0 0 0-4-10c11 7 22 13 34 17 5 2 11-4 8-9-4-11-12-19-22-27l34 3c4 2 7-5 2-6Zm-344 65-7 5 2-3a30 30 0 0 1 5-2Zm51-32c-10-1-20 1-30 4l24-8c6-2 13-3 19-3l-13 8Zm-126-36 1-1 2 5Zm-120-93h-4a20 20 0 0 1 2-1 17 17 0 0 1 2 1Zm91 206 9 1h-8a989 989 0 0 0-1-1Z"
            transform="translate(-178 -173)" />
    </g>
    <g id="palm_accent" data-name="palm accent">
        <path class="cls-8"
            d="m1940 718-2 4-2 6-1 3-1 3a201 201 0 0 0-12 44 433 433 0 0 0-5 31l-4 34-3 18-2 18-2 19-2 19-3 37-1 19-1 18-1 9-2 8a630 630 0 0 1-15 73l-7 19-6 17h-4l-3-18a457 457 0 0 1 3-131l4-18 4-19 4-19 4-19 4-18 4-19 4-17 9-34 2-8 2-7 5-15 9-25a192 192 0 0 1 9-18l2-4 2-3 3-5 2-3Zm-201 39 1-3 4-7 3-6 4-7 4-7 5-8a268 268 0 0 1 48-53l10-9 5-4 5-4 20-17 10-8 10-7 10-6 10-6 20-8 16-7 14-4 9-2 3-1 2 3-2 3-5 8a131 131 0 0 1-12 14l-3 3-7 7-16 14-9 7c-3 3-7 4-10 6l-11 6-11 6-11 6-11 6-5 3-6 4-10 7-20 14-18 14-15 13-6 7-6 6-5 5-4 5-5 7-2 2Zm13-225 7-5 4-2 5-2 6-3 6-2 7-3 8-3 4-1 4-1 9-2 18-3 20-2 20-1h9l10 1a77 77 0 0 1 9 3l4 1 4 2 8 3a40 40 0 0 1 3 2l4 2 6 4 5 5 4 3 3 4a65 65 0 0 1 6 8l-1 3a76 76 0 0 1-10 1h-23l-7-1-7-1h-8l-7-2a76 76 0 0 1-8-2l-8-2a120 120 0 0 0-17-4l-18-2-17-1h-16l-8 1h-7l-6 1-6 1h-5l-5 1-8 2Zm194-284 8 9 9 11 11 15 3 4 3 4 7 10 13 21 7 11 3 6 3 6 12 24a698 698 0 0 0 14 31l3 7 2 6 2 6 2 6v3l1 3 2 13a167 167 0 0 1 1 22 125 125 0 0 1-2 20 94 94 0 0 1-4 15l-2 5-1 4-2 3h-4l-1-3-3-9-1-3-1-4-1-3-1-4-6-16-6-20-4-11-1-2-1-3-1-6-2-6-1-6-1-6-2-6-1-7-2-6-3-13-8-24-5-12-4-12-5-11-2-6-2-5-5-10-2-5-2-4-8-17-7-12-5-11Zm-125 121h1l1-1a6 6 0 0 1 1 0 19 19 0 0 1 9 0 35 35 0 0 1 5 2h2l1 1 3 1 14 6 8 4 9 4 9 4 4 3 5 2 9 6 9 5 10 6 4 3 5 4 9 6 10 6 9 6 8 7a112 112 0 0 1 13 16l6 7 2 4 3 4a117 117 0 0 1 7 14l4 11a87 87 0 0 1 3 11l-3 2a88 88 0 0 1-9-4l-11-6-6-4-6-5-7-4-7-6a164 164 0 0 1-15-12l-7-8-7-8-7-8-1-2-2-1-4-4-4-4-4-4-8-7-8-7-7-6-4-4-4-3-7-6-7-6-7-5-12-9-3-2-1-1a10 10 0 0 1-1-1l-4-2a14 14 0 0 0-6-2h-2Z"
            transform="translate(-178 -173)" />
        <path class="cls-8"
            d="m2101 399-1 3-1 5a23 23 0 0 1-1 2l-1 3-2 6-2 7-3 14a37 37 0 0 0-1 7 21 21 0 0 1-1 7 16 16 0 0 1-4 5 39 39 0 0 1-5 5 43 43 0 0 1-5 3l-5 2-2 1a7 7 0 0 1-2 1h-2l-3-1-1-1a10 10 0 0 1-1-1l-2-2a29 29 0 0 1-2-6l-1-1a10 10 0 0 1 0-2 34 34 0 0 1-1-3l-1-4a24 24 0 0 1 0-4 20 20 0 0 1 2-7 23 23 0 0 1 5-7l6-6 6-6a78 78 0 0 1 5-6l3-3 3-2 3-2 2-2 5-3 2-2 2-1 3-2Zm-22 516 1-3v-4l1-6 1-15-1-20-1-12-1-12-1-7-1-7-1-6v-7l-2-14-2-15-2-14-2-15-2-14-3-15-6-28-1-13-1-13-1-24-1-11 1-10v-16a116 116 0 0 1 2-14l4-1 7 13 7 14 8 20 4 11 3 12 2 7 1 6 2 14 2 14v30l1 16v66l-1 7v13l-1 13a350 350 0 0 1-4 32 139 139 0 0 1-4 16l-1 6-2 4-1 3Z"
            transform="translate(-178 -173)" />
        <path class="cls-8"
            d="m2043 712-1-5-2-5v-3l-1-4-2-7-2-9-5-18a58 58 0 0 0-4-9 34 34 0 0 1-3-9 27 27 0 0 1 0-8 52 52 0 0 1 2-8 66 66 0 0 1 2-7 53 53 0 0 1 3-6l2-4 1-2 4-1 2 1a38 38 0 0 1 4 3 44 44 0 0 1 5 4 16 16 0 0 1 1 1 18 18 0 0 0 1 2l3 3a32 32 0 0 1 2 3l3 4a28 28 0 0 1 2 9 35 35 0 0 1 0 11l-1 10-1 10-2 10-1 5-1 5-1 4a36 36 0 0 1-1 4l-2 6a94 94 0 0 1-2 5l-2 5Zm-214-22 4-6 3-3 3-4 3-4 4-4 4-5 5-4 3-3 3-2 5-5 12-10 13-10 12-10 5-5 6-5 6-4 5-3 6-2 6-3 5-1 5-2 5-1 4-1a66 66 0 0 1 8-2l2 2a46 46 0 0 1-1 9l-2 4-2 5-3 5-3 5-4 5-5 6a32 32 0 0 1-3 2l-2 3a53 53 0 0 1-7 4l-6 4-8 3-14 6-15 7-13 6-7 4-6 3-6 2c-2 0-3 2-5 3l-5 3-4 3-4 2-3 2-6 4Zm492 344 2-9 1-5 1-5 1-7 1-7 2-8 1-8 1-4 1-5 1-9 2-19 1-20a187 187 0 0 0 0-20v-28l1-4 1-5a174 174 0 0 1 4-23l2-6 2-6 1-5a69 69 0 0 1 4-10h4a70 70 0 0 1 5 9l3 5 2 5 2 7 2 8 2 8 2 9v9a107 107 0 0 1-3 30l-5 21-6 20c-1 7-4 13-6 20l-3 9-2 4-1 4-4 8-3 8-3 7-4 6-2 5-3 4-4 9Zm175 17 1-4 1-9 1-6v-32l-1-5-1-11a217 217 0 0 0-5-23 223 223 0 0 0-8-24l-5-12-3-6-3-5a113 113 0 0 0-7-12l-7-10-8-10-7-10-4-4-3-5-7-9-12-18-6-8-5-7-4-7-4-5-5-9-2-3 2-3 3 1 10 4 6 2 8 4 4 2 4 3 9 5 9 7 9 8a141 141 0 0 1 18 20l7 12 7 12 6 14 5 13v1h1v1l1 2 1 3 2 7 4 14a232 232 0 0 1 5 28 212 212 0 0 1 1 26l-1 12v5l-1 6-1 10-2 9c0 3-2 5-3 8l-2 6a47 47 0 0 1-2 5l-1 4-1 3Zm23-382-6 4a39 39 0 0 0-4 1l-4 3-4 2-5 3-6 3-5 4-6 3-6 4-13 9-13 9-12 10-6 5-6 4a70 70 0 0 1-13 7 126 126 0 0 1-12 4 98 98 0 0 1-12 3l-9 2a63 63 0 0 1-9 0l-2-3a50 50 0 0 1 4-8 68 68 0 0 1 5-8 88 88 0 0 1 7-10l4-5 5-4a72 72 0 0 1 12-9 77 77 0 0 1 7-4l7-3 16-6 15-7 16-5 7-2 4-1 3-1 7-2 6-1 6-2h6l4-1 4-1h8Zm-378 140 5-4 6-4 7-4 5-3 5-3 11-6 11-6 12-6 12-7a61 61 0 0 1 12-5 51 51 0 0 1 12-3h11l5 1h5a73 73 0 0 1 8 2 38 38 0 0 1 5 2 19 19 0 0 1 2 1l1 4a15 15 0 0 1-2 1c0 2-2 3-3 5l-6 6a83 83 0 0 1-7 6 100 100 0 0 1-9 6 51 51 0 0 1-11 4 71 71 0 0 1-13 2 114 114 0 0 0-13 2l-13 3-13 2-22 4-9 1-7 1-6 1Z"
            transform="translate(-178 -173)" />
        <path class="cls-8"
            d="M2185 811a82 82 0 0 1 5-8l2-3 2-4 3-4 3-3a25 25 0 0 0 2-4 9 9 0 0 1 3-4 6 6 0 0 1 4-1 18 18 0 0 1 5 1 25 25 0 0 1 4 2l2 2 2 1 2 1 1 1 1 1 2 3v8a29 29 0 0 1-1 7 18 18 0 0 1-1 4 6 6 0 0 1-3 3 8 8 0 0 1-5 0 28 28 0 0 0-5 0 72 72 0 0 1-9 1h-8a77 77 0 0 1-9-1Zm133 115v-41l-1-12-1-11a75 75 0 0 0-2-12 65 65 0 0 1-2-11 45 45 0 0 1 0-5 40 40 0 0 1 1-5 88 88 0 0 1 2-9l3-9a72 72 0 0 1 3-6l3-5 1-2 3-1 2 2a49 49 0 0 1 4 3l2 3 3 3 1 2 1 2 3 4 2 5 2 5 1 3v3a55 55 0 0 1 1 6 44 44 0 0 1-1 6l-1 7-3 12-3 13-3 12-2 5-1 3-1 3-2 4-2 5-2 4-2 4-2 3a30 30 0 0 1-1 3l-3 5Zm-287 440 2-4 2-5 3-6a483 483 0 0 0 25-103l3-17 1-5v-1l1-1v-2l2-9 4-18 5-18 9-36a447 447 0 0 1 14-42l3-8a522 522 0 0 1 32-58l4-4a228 228 0 0 1 23-29l3 1v5l-3 12-2 9-2 10-7 24-4 14-5 14-5 16-5 15-7 16-7 16-4 8c-2 2-2 6-3 9l-7 17-6 17-3 8-3 9-5 17-6 16-10 32-11 28-10 23-4 9-5 8-3 7-3 4-2 4Zm26-816 2-1a18 18 0 0 1 2-1l4-1a52 52 0 0 1 9-1 83 83 0 0 1 12 0 88 88 0 0 1 14 3 103 103 0 0 1 16 5h1l1 1 2 1 4 2 8 4a169 169 0 0 1 14 11l14 11 2 1v1h1v1a17 17 0 0 0 2 1l1 1 3 4a39 39 0 0 1 3 3 65 65 0 0 1 8 14 73 73 0 0 1 3 8l2 7 1 6 1 4v3a50 50 0 0 1-1 10l-1 4-1 2a19 19 0 0 1-1 3h-3l-2-1-2-2a29 29 0 0 1-3-3l-6-6-4-4-4-4-8-8a100 100 0 0 1-9-11l-2-3-2-3-1-1a16 16 0 0 1-1-2v-1l-1-1-1-1a102 102 0 0 0-8-13l-10-11-5-5-3-3-1-1h-1v-1h-1a94 94 0 0 0-11-8 81 81 0 0 0-11-5 75 75 0 0 0-10-4l-4-1-4-1a47 47 0 0 0-6 0h-2Z"
            transform="translate(-178 -173)" />
        <path class="cls-8"
            d="M2077 542v-1a6 6 0 0 1 3 0h8a177 177 0 0 1 64 22 274 274 0 0 1 24 14l3 2 1 1h1v1l5 3 5 3 18 13 10 7a98 98 0 0 1 8 8 111 111 0 0 1 13 16l5 8 2 2 1 2 2 4a94 94 0 0 1 6 16 57 57 0 0 1 3 13 51 51 0 0 1 0 9v3l-4 1-2-2-5-5-9-8-12-9-3-2-2-1-1-2-7-6a172 172 0 0 1-14-13l-7-7-7-9a196 196 0 0 0-14-16l-4-3-4-4-4-4-4-3a457 457 0 0 0-31-25l-8-5-7-5-3-2-4-2-6-3-6-3a59 59 0 0 0-8-4 2 2 0 0 1-1 0 3 3 0 0 1-1 0 3 3 0 0 0-1-1 5 5 0 0 0-1 0Z"
            transform="translate(-178 -173)" />
    </g>
    <g id="car">
        <path class="cls-1"
            d="M1864 2043a325 325 0 0 1-316-246h-180a206 206 0 0 1-116 26c-51 0-86-7-116-26H923a327 327 0 0 1-108 171 325 325 0 0 1-532-251v-23l-19-4v-162l29-5 44-8 7-55c-30-2-42-17-48-29-8-19-6-40 6-61 12-23 36-44 69-61 33-18 76-32 126-41 3-47 11-98 11-101l5-31 32 1c2 0 49 3 111 24 20-7 67-24 138-42l28-76 16 1 14-77a434 434 0 0 1-35-60l-27-53c-13-5-43-17-73-33-23-13-42-26-55-38-19-19-27-38-24-57 3-15 9-37 32-53 20-13 48-19 89-19 58 0 144 13 264 38 115 25 199 56 249 92 29 21 48 44 55 67 5 19 3 38-6 53-10 17-31 29-66 36a318 318 0 0 1-41 5c-12 5-48 22-88 34l-65 17-10 70 17 2a1323 1323 0 0 1 177-8l18 1 10 16s26 39 67 76c36 33 93 72 157 72h2c52-1 100-23 143-66a308 308 0 0 0 51-67l12-25 27 6a3556 3556 0 0 1 208 51c40 12 56 22 65 37 9 17 11 38 12 57 74 26 136 62 179 103 41 38 65 81 67 120 2 36-15 67-45 82-18 9-34 13-49 13a76 76 0 0 1-37-10l-2 4a325 325 0 0 1-267 513Z"
            transform="translate(-178 -173)" />
        <path class="cls-1"
            d="M759 672c54 0 136 11 260 38 127 28 201 59 243 89 58 42 54 79 44 96-17 29-96 32-97 32s-41 21-88 34l-76 20-15 100 37 4v1c63-7 111-9 141-9l36 1 9 1 5 7c1 1 27 41 71 80 38 35 99 77 169 77h2c57-1 109-25 155-71 36-36 54-72 54-72l6-12 14 2a3534 3534 0 0 1 206 51c39 12 49 19 54 28 10 18 10 45 9 62l13 4c71 25 131 59 173 99 37 35 59 73 61 107 2 30-11 53-35 65-16 8-29 12-41 12-17 0-31-8-43-18l-17 32a306 306 0 0 1 62 185 307 307 0 0 1-608 62h-199a192 192 0 0 1-112 26c-51 0-83-8-111-26H909a307 307 0 0 1-608-62 308 308 0 0 1 2-37l-7-2-14-3v-132l15-3 57-9 11-90a16 16 0 0 1-2 0 128 128 0 0 1-14 1c-13 0-30-3-36-18-6-14-4-30 5-45 10-20 32-39 61-54 34-18 78-32 130-41l6-1c1-49 11-110 11-113l3-16 16 1c2 0 48 2 111 25 15-6 67-25 151-47l27-71h14l5 1 18-100s-20-26-38-64l-30-60s-156-54-147-110c5-33 25-57 103-57m0-36c-44 0-76 7-99 22a90 90 0 0 0-40 65c-2 14 0 29 7 43 6 10 13 20 23 30 14 13 34 27 59 41a608 608 0 0 0 69 31l23 46a445 445 0 0 0 32 57l-10 54-13-1-9 25-21 55c-60 16-102 30-124 38-61-20-105-22-110-23h-16l-32-2-5 32-2 16c-1 2-8 45-11 88-46 10-86 23-118 40-36 19-62 43-76 69a87 87 0 0 0-6 76c7 16 19 27 35 34a94 94 0 0 0 9 3l-3 25-31 5-15 3-29 5v192l19 4v8a343 343 0 0 0 561 265 345 345 0 0 0 76-87 339 339 0 0 0 35-80h194a188 188 0 0 0 48 19c21 5 45 7 73 7l40-1c6 0 38-3 81-25h162a339 339 0 0 0 35 81 343 343 0 0 0 595-342h4c18 0 37-5 57-15 37-19 58-56 55-99-1-23-9-46-22-69-12-22-29-43-50-63-44-41-104-76-175-103q-2-31-14-53c-12-22-35-33-74-46a3637 3637 0 0 0-210-51l-14-2-27-6-12 25-6 12c-1 1-17 32-48 63-39 39-83 60-130 60h-2c-58 0-111-36-144-67a434 434 0 0 1-65-73l-5-8-9-15-18-1-9-1-39-1c-29 0-76 2-137 8l6-39 54-14c38-11 73-26 87-33a338 338 0 0 0 41-6c40-8 65-22 78-44 11-19 14-43 7-67-8-27-29-53-61-76-25-18-58-35-98-50-43-16-97-32-158-45-121-26-208-39-268-39Z"
            transform="translate(-178 -173)" />
        <path
            d="M2134 1484s-145 274-147 274l-294 9-338 2-97 18-120-23-760-4-35-87-44-16-4-103 76-13 11-119-47-1-11-30 69-55 144-43 11-123 115 35 165-55 21-63 144 12 249-11s80 169 249 165 232-153 232-153l247 67 19 82s95 18 159 79 78 125 78 125l-50 48Z"
            transform="translate(-178 -173)" style="fill:#d81962" />
        <path class="cls-10" d="M126 1434h76l-2 65-81-10 7-55z" />
        <path class="cls-10"
            d="M1238 1098s-15 17 4 117 66 157 57 182-28 80-110 70-191-41-191-41 118 145 245 131 186-86 271-165 157-135 214-148 93-17 93-17l-86-22c-29-7-79-14-79-14s-66 84-167 78c-100-7-251-171-251-171Z"
            transform="translate(-178 -173)" />
        <path class="cls-10"
            d="M1772 1359s-127-38-216 70-152 270-274 276-204-79-256-129-133-106-174-105 113 97 152 137 114 183 264 174 206-116 242-191 85-137 112-160 150-72 150-72Zm295-77s73 50 46 77c-32 31-172-3-172-3s114 39 144 78 78 78 114 56 42-68 4-113-136-95-136-95Zm-1526 13 1-36s23-8 75-10 112 3 112 3l21 33Zm-106 36s-24 22-20 34 60 14 99 11 94 7 94 7l-271 41s-22-35 25-65 73-28 73-28Z"
            transform="translate(-178 -173)" />
        <path class="cls-10" d="M1428 1498s18 45-70 90-207-8-256-56 87 25 87 25 88 15 143-11 96-48 96-48Z"
            transform="translate(-178 -173)" />
        <path
            d="m377 1546 13-126s141-46 256-25 194 62 279 140 199 219 199 219l-741 3Zm1010 211s84-89 122-161 123-221 297-235 247 31 267 57 62 62 62 62l-149 282Zm-137-628s-4 52 23 123 78 131 75 161-15 71-83 84-165 4-165 4 74 76 176 54 145-66 221-142 138-125 138-125-64 34-134 18-102-66-102-66Z"
            transform="translate(-178 -173)" style="fill:#70244e" />
        <path
            d="M1217 1143s1 32 6 61 19 87 19 87-138 2-221 15l-169 25-85-35-37-54s104-39 238-66 249-33 249-33Zm-663 40-9 56s22-3 58-5 99 0 99 0-45-24-71-32-77-19-77-19Zm-29 120s-36 13-33 35 39 44 98 44 122 27 151 28 78-1 89-23 3-48-18-59-61-30-126-33-161 8-161 8Zm1441-60s48 13 42 35-39 30-80 31-73-2-114 3-94 15-113 13-64-10-41-40 84-54 149-57 157 15 157 15Zm-236-126 191 45s-1 12-13 19-86-2-139-11l-71-12"
            transform="translate(-178 -173)" style="fill:#f476af" />
        <path class="cls-13"
            d="M1176 1173q-18 24-37 46c-3 4-5 8-9 10 2-1 1-1 0 0 4-2 8-1 11 3v-1a21 21 0 0 1-1-3c-2-8-1-15 2-23 4-10-5-19-14-19-19-2-36 8-50 19l-18 15-1 1-2 2-5 2a46 46 0 0 1-5 3h-1a10 10 0 0 1 5 1l5 5v1-2l-1-5-2-9c-2-7-3-14-7-20-10-14-27-5-39 2l-27 18a267 267 0 0 1-21 14 53 53 0 0 1-6 3l17 7c-9-20-32-25-52-22-20 2-40 8-60 14-8 2-13 10-10 18 2 8 10 13 18 11a370 370 0 0 1 49-12c6-2 14-3 20-1h2a25 25 0 0 1 4 2c-2-1 1 1 1 2h1a13 13 0 0 1 1 3c3 5 11 9 17 7 14-6 26-14 39-23l17-12a102 102 0 0 1 9-6l4-2a13 13 0 0 0 3-1c-1 1-12-7-12-6l1 4 1 7 3 12c1 5 2 9 5 13a20 20 0 0 0 16 7c17 0 31-14 43-24l18-13c4-3 5-3 9-4l2-1h2a35 35 0 0 1 7 0l-15-19a68 68 0 0 0-1 41c2 8 6 17 15 19 8 3 16 0 22-4l13-14 13-16 26-34c5-7 1-17-5-21-8-5-16-1-20 5Zm-419 148-26 7-13 4-6 1-4 1c-3 1-2 1 3 1l6 4-1-1 4 7v3l1-3 1-5 3-12c2-7-3-16-11-18-16-4-33-8-49-5l-22 4a97 97 0 0 1-13 2c-4 1-2 0 1 1l5 6-1-1 2 8 1-4a17 17 0 0 0 0-6 20 20 0 0 0-9-11c-7-4-16-3-23-2-17 1-33 3-49 6-8 1-12 11-10 18 2 8 10 12 18 11 14-3 27-4 41-5l10-1h-1c3 1 2-1-3-6-2-7-3-9-4-5v4c-1 11 9 17 19 18 14 0 27-5 41-7 12-3 26 1 39 4l-11-19-6 26a18 18 0 0 0 9 16c5 3 11 3 17 2l49-14a15 15 0 0 0 11-19c-3-7-11-12-19-10Zm1147-86a482 482 0 0 0-60 23l22 13-1-16c0-9-5-16-13-18-11-4-24-3-35 0-21 6-38 19-57 24l14 25a21 21 0 0 0-5-33c-10-6-23-4-34-1-20 4-38 14-55 24-7 4-10 14-6 21a15 15 0 0 0 21 5c11-6 23-13 33-17a107 107 0 0 1 19-5 59 59 0 0 1 7-1h1l1 1c-5-4-10-7-3-15-10 11 0 28 14 25s29-11 42-18a86 86 0 0 1 18-6 28 28 0 0 1 8-1 45 45 0 0 1 6 0h1l-6-5c-1-2 0-6-1-2l1 4v9c1 12 12 18 23 13a434 434 0 0 1 53-20c8-3 13-11 10-19-2-8-10-13-18-10Z"
            transform="translate(-178 -173)" />
        <path
            d="M1262 799c-42-30-116-61-243-89-305-66-354-37-363 19s147 110 147 110l30 60c18 38 38 64 38 64l-21 114 178 20 17-116 76-20c47-13 88-34 88-34-19-10-35-25-46-32-8-5-28-12-50-19-10 6-34 17-59 13s-50-39-60-54c-71-23-191-57-191-57l128 10c74 7 87 20 185 59s150 36 165 6c8-16-6-38-19-54Z"
            transform="translate(-178 -173)" style="fill:#b5b5b5" />
        <path class="cls-15"
            d="M1306 895c10-17 14-54-44-96 13 16 27 38 18 55-14 30-66 33-164-6s-111-52-184-59l-129-11s192 55 234 72 108 34 126 45c11 7 27 22 46 32 1 0 80-3 97-32Zm-347 204 22-135s20 0 37 5a111 111 0 0 1 27 12l-17 116Z"
            transform="translate(-178 -173)" />
        <path class="cls-15"
            d="M1201 920s-30 18-72 29l-82 20s-8-9-27-13l-28-5s2-10-4-22-31-26-51-53-40-75-40-75l49 13a128 128 0 0 0 29 45c21 20 35 36 67 40s64-7 72-11 20-14 20-14l58 25Z"
            transform="translate(-178 -173)" />
        <path
            d="m943 1084 20-121s-7-4-37-3-46 7-46 7l-18 114ZM819 839l60 111s11-5 34-8a241 241 0 0 1 46 0s-42-33-62-65l-36-59c-2-4-14-18-29-10s-17 22-13 31ZM678 727c0-23 52-42 166-31s186 39 247 62 115 56 106 73-92-21-150-34-178-28-216-27-78 7-111-4-41-16-42-39Z"
            transform="translate(-178 -173)" style="fill:#e2c9dc" />
        <path class="cls-13"
            d="M908 978a258 258 0 0 0-23 60 15 15 0 0 0 14 19 38 38 0 0 0 19-5l-20-20a148 148 0 0 0-10 27c-1 8 3 17 11 19 8 1 16-3 18-11a120 120 0 0 1 7-20c3-6 3-13-2-18a15 15 0 0 0-19-2h-4l15 19a220 220 0 0 1 20-52c4-7 2-17-5-21s-17-2-21 5Zm-35-275c-16 0-31 7-45 14l-10 5-8 4-2 1c9 9 13 11 11 5a19 19 0 0 0-1-4 25 25 0 0 0-8-12c-13-11-33-13-49-12-18 2-35 8-51 16-7 3-9 14-6 20 5 8 14 9 21 6a109 109 0 0 1 21-9 77 77 0 0 1 20-3 54 54 0 0 1 23 3h-1a17 17 0 0 1 2 1h1c-1-1-1-3-1 0a24 24 0 0 0 1 4c3 12 16 17 27 13l21-9 18-10 3-1a49 49 0 0 1 5-1s5-1 2-1a32 32 0 0 1 6 0c8 0 16-7 15-15a15 15 0 0 0-15-15Z"
            transform="translate(-178 -173)" />
        <path class="cls-17" d="m1948 1314-39 68" />
        <path class="cls-18"
            d="M1288 1786c-142 9-151-28-246-135s-255-244-390-261-310 56-322 27 30-88 183-115 256-30 409 72 177 190 335 186 235-161 309-222 228-161 439-86 260 207 197 239-67-24-146-74-188-86-335-28-184 148-242 256c-92 137-191 141-191 141Z"
            transform="translate(-178 -173)" />
        <path class="cls-17"
            d="M659 1199s104-43 286-77 298-26 298-26 108 167 257 165 225-153 225-153 236 48 248 70 6 66 6 66m-1446 55c-2-48 11-126 11-126s50 2 116 28 112 96 112 96m-379 249c-46 3-93 12-93 12v103s57 12 86 14"
            transform="translate(-178 -173)" />
        <path class="cls-17" d="m207 1254-15 118m995 217h319m-830 0h287" />
        <path class="cls-18" d="m820 1151 27-70s42 2 87 8l131 14" transform="translate(-178 -173)" />
        <circle class="cls-19" cx="1685.5" cy="1544.7" r="307.2" />
        <circle class="cls-19" cx="430" cy="1544.7" r="307.2" />
        <path class="cls-20"
            d="M1865 1900a182 182 0 0 0 182-183m-89 229a248 248 0 0 0 134-133m-278-338c-96 19-172 94-192 190"
            transform="translate(-178 -173)" />
        <path class="cls-21"
            d="M1888 1737c-35 35-42 87-17 124a156 156 0 0 0 21-3c-27-30-24-78 8-109s79-34 109-8a156 156 0 0 0 3-21c-37-24-89-18-124 17Z"
            transform="translate(-178 -173)" />
        <path class="cls-22" d="M2009 1741c-30-26-78-23-109 8s-35 80-8 109a149 149 0 0 0 117-117Z"
            transform="translate(-178 -173)" />
        <path class="cls-21"
            d="M1874 1688c49 12 98-10 118-50a150 150 0 0 0-15-23c-11 40-54 63-98 53-45-11-73-53-63-93l2-5a151 151 0 0 0-26 10c-5 48 29 95 82 108Z"
            transform="translate(-178 -173)" />
        <path class="cls-22" d="m1818 1570-2 5c-10 40 18 82 63 93 43 10 87-13 97-53l-8-9a149 149 0 0 0-150-36Z"
            transform="translate(-178 -173)" />
        <path class="cls-21"
            d="M1810 1727c12 41-8 84-45 98a146 146 0 0 0 18 13c38-21 57-69 44-116-14-47-55-78-98-76a138 138 0 0 0-8 20c38-7 77 19 89 61Z"
            transform="translate(-178 -173)" />
        <path class="cls-22" d="M1810 1727c-12-42-51-68-89-61a149 149 0 0 0 36 151l8 8c37-14 57-56 45-98Z"
            transform="translate(-178 -173)" />
        <circle class="cls-23" cx="1687" cy="1545.2" r="199.5" />
        <circle class="cls-19" cx="424.5" cy="1544.7" r="283.3" />
        <path class="cls-20"
            d="M604 1900a182 182 0 0 0 182-183m-89 229a248 248 0 0 0 134-133m-278-338c-96 19-172 94-192 190"
            transform="translate(-178 -173)" />
        <path class="cls-21"
            d="M604 1682c50 0 91-33 100-76a149 149 0 0 0-17-13c-3 40-39 72-83 72s-81-32-83-72a158 158 0 0 0-17 13c9 44 50 76 100 76Z"
            transform="translate(-178 -173)" />
        <path class="cls-22" d="M521 1593c2 40 39 72 83 72s81-32 83-72a149 149 0 0 0-166 0Z"
            transform="translate(-178 -173)" />
        <path class="cls-21"
            d="M579 1727c-27-44-77-63-119-49a146 146 0 0 0-5 27c36-20 83-6 106 33 24 39 14 88-21 110l-5 2a141 141 0 0 0 26 10c37-30 46-87 18-133Z"
            transform="translate(-178 -173)" />
        <path class="cls-22" d="m535 1850 5-3c35-21 45-70 21-110-23-38-70-52-106-32v12a149 149 0 0 0 80 133Z"
            transform="translate(-178 -173)" />
        <path class="cls-21"
            d="M652 1745c21-39 65-55 101-39a140 140 0 0 0-3-21c-42-13-90 8-114 51-23 43-16 94 16 123a144 144 0 0 0 20-9c-32-22-41-68-20-105Z"
            transform="translate(-178 -173)" />
        <path class="cls-22" d="M652 1745c-21 37-12 83 20 105a149 149 0 0 0 81-133v-11c-36-16-80 0-101 39Z"
            transform="translate(-178 -173)" />
        <circle class="cls-23" cx="426" cy="1545.2" r="199.5" />
    </g>
    <g id="Ebene_8" data-name="Ebene 8">
        <text transform="matrix(1 -.16 0 1 1370 1424)"
            style="font-weight:700;fill:#9c41a2;font-size:300px;font-family:YuGothicUI-Bold,Yu Gothic UI;letter-spacing:-.09em;isolation:isolate">
            <tspan class="cls-25" x="230.7" y="0">DEICH</tspan>
        </text>
        <text transform="matrix(1 -.16 0 1 1355 1411)"
            style="fill:#f8e969;font-weight:700;font-size:300px;font-family:YuGothicUI-Bold,Yu Gothic UI;letter-spacing:-.09em;isolation:isolate">
            <tspan class="cls-25" x="230.7" y="0">DEICH</tspan>
        </text>
        <text transform="matrix(.99 -.17 0 1 150 2318)"
            style="letter-spacing:-.02em;font-size:759.24px;font-family:CenturyGothic-Bold,Century Gothic;font-weight:700;fill:#9c41a2;isolation:isolate">WAVE</text>
        <text class="cls-30" transform="matrix(.99 -.17 0 1 94 2278)">WAVE</text>
    </g>
</svg>